<svg width="390" height="844" viewBox="0 0 390 844" fill="none" xmlns="http://www.w3.org/2000/svg" xmlns:c2pa="http://c2pa.org/manifest"><metadata><c2pa:manifest>AAAWgmp1bWIAAAAeanVtZGMycGEAEQAQgAAAqgA4m3EDYzJwYQAAABZcanVtYgAAAEdqdW1kYzJtYQARABCAAACqADibcQN1cm46YzJwYTozNjY3MjYzZi03MDdkLTQ3NTgtYmZiMC1jNjQ3ZDZlODlmNmEAAAADl2p1bWIAAAApanVtZGMyYXMAEQAQgAAAqgA4m3EDYzJwYS5hc3NlcnRpb25zAAAAALxqdW1iAAAARGp1bWRjYm9yABEAEIAAAKoAOJtxE2MycGEuaW5ncmVkaWVudC52MwAAAAAYYzJzaM4U2G0YlKiwF/A4XpBn9fUAAABwY2JvcqNpZGM6Zm9ybWF0bWltYWdlL3N2Zyt4bWxqaW5zdGFuY2VJRHgseG1wOmlpZDoxY2E1M2QyNS1mMzg0LTQyMjctOTNhNC0zMGFmODZmOGUwMTlscmVsYXRpb25zaGlwaHBhcmVudE9mAAAB4mp1bWIAAABBanVtZGNib3IAEQAQgAAAqgA4m3ETYzJwYS5hY3Rpb25zLnYyAAAAABhjMnNoON4fW9KO+qCxhcPvBEGimAAAAZljYm9yomdhY3Rpb25zgqJmYWN0aW9ua2MycGEub3BlbmVkanBhcmFtZXRlcnOha2luZ3JlZGllbnRzgaJjdXJseC1zZWxmI2p1bWJmPWMycGEuYXNzZXJ0aW9ucy9jMnBhLmluZ3JlZGllbnQudjNkaGFzaFggYncJNaO9qbhlfCBEuJ4SvuCYdQqNVAmOD0yC8QF7pcOkZmFjdGlvbngdY29tLmFudGhyb3BpYy5jbGF1ZGUucHJvdmlkZWRqcGFyYW1ldGVyc6F4H2NvbS5hbnRocm9waWMub3JpZ2luLWNvbmZpZGVuY2VndW5rbm93bmtkZXNjcmlwdGlvbnhmQ2xhdWRlIHByb3ZpZGVkIHRoaXMgZmlsZSBhdCB0aGUgcmVxdWVzdCBvZiBhIHVzZXIgYW5kIG1heSBoYXZlIGNyZWF0ZWQgb3IgbW9kaWZpZWQgdGhlIGZpbGUgY29udGVudHMubXNvZnR3YXJlQWdlbnShZG5hbWVmQ2xhdWRlcmFsbEFjdGlvbnNJbmNsdWRlZPUAAADIanVtYgAAAEBqdW1kY2JvcgARABCAAACqADibcRNjMnBhLmhhc2guZGF0YQAAAAAYYzJzaPrIF5XdH19CiP48QunyzMYAAACAY2JvcqVjYWxnZnNoYTI1NmNwYWRNAAAAAAAAAAAAAAAAAGRoYXNoWCCz0hIRuCjgAYvWUbr4FUXcp0mqh3XAl19MAi+vptk9tmRuYW1lbmp1bWJmIG1hbmlmZXN0amV4Y2x1c2lvbnOBomVzdGFydBiiZmxlbmd0aBkeBAAAAj5qdW1iAAAAJ2p1bWRjMmNsABEAEIAAAKoAOJtxA2MycGEuY2xhaW0udjIAAAACD2Nib3KlY2FsZ2ZzaGEyNTZpc2lnbmF0dXJleE1zZWxmI2p1bWJmPS9jMnBhL3VybjpjMnBhOjM2NjcyNjNmLTcwN2QtNDc1OC1iZmIwLWM2NDdkNmU4OWY2YS9jMnBhLnNpZ25hdHVyZWppbnN0YW5jZUlEeCx4bXA6aWlkOmVlNWUxMmMwLWZiZmItNGU2OC04NjNhLTM0NzdhYjJhNmJkNHJjcmVhdGVkX2Fzc2VydGlvbnODomN1cmx4LXNlbGYjanVtYmY9YzJwYS5hc3NlcnRpb25zL2MycGEuaW5ncmVkaWVudC52M2RoYXNoWCBidwk1o72puGV8IES4nhK+4Jh1Co1UCY4PTILxAXulw6JjdXJseCpzZWxmI2p1bWJmPWMycGEuYXNzZXJ0aW9ucy9jMnBhLmFjdGlvbnMudjJkaGFzaFggWe9LGExcrzwr9BC7l8jZZSmDKBv57UwUJiqJZkhXBv2iY3VybHgpc2VsZiNqdW1iZj1jMnBhLmFzc2VydGlvbnMvYzJwYS5oYXNoLmRhdGFkaGFzaFggpxH+4HEVVXhtMpD/DyAhNL3kCReW7nunkBeqR4+SMs10Y2xhaW1fZ2VuZXJhdG9yX2luZm+jZG5hbWVvQW50aHJvcGljIEZpbGVzZ3ZlcnNpb25lMS4wLjBrc3BlY1ZlcnNpb25lMi40LjAAABA4anVtYgAAAChqdW1kYzJjcwARABCAAACqADibcQNjMnBhLnNpZ25hdHVyZQAAABAIY2JvctKEWQISogEmGCFZAgowggIGMIIBjaADAgECAhRA5aAK7sI50L64g/oGQgU9Z1UTADAKBggqhkjOPQQDAzBJMRcwFQYDVQQKEw5BbnRocm9waWMsIFBCQzEuMCwGA1UEAxMlQW50aHJvcGljIENvbnRlbnQgQ3JlZGVudGlhbHMgUm9vdCBDQTAeFw0yNjA4MDcxODQzNTZaFw0yODA4MDYxOTQzNTZaMEQxFzAVBgNVBAoTDkFudGhyb3BpYywgUEJDMSkwJwYDVQQDEyBBbnRocm9waWMgQ2xhdWRlIENvbnRlbnQgU2lnbmluZzBZMBMGByqGSM49AgEGCCqGSM49AwEHA0IABJh6CmvLUBgFFNU0vUKlOVtE6djd17L5SuwX0LemFisBM3dkd/3cyjxFA3Qo5S46fX0/ihY0VZ7mfb9KF703t5OjWDBWMA4GA1UdDwEB/wQEAwIHgDAVBgNVHSUEDjAMBgorBgEEAYPoXgIBMAwGA1UdEwEB/wQCMAAwHwYDVR0jBBgwFoAUzlHiBIFOZFsj+OPEz5o+nMHXXMIwCgYIKoZIzj0EAwMDZwAwZAIwMXMdFJ4BetLLVY7ORuE9noqbbAZOZn/aArXyTwFAZfKrPzxF2vPoJNf1+UCdg1XGAjBwX1zd9WGqYkqmL5SFqw1QySjr1zJfpJM9+1rdDwSPLMOPOjKuiXjoU/pUUeG9RwmhY3BhZFkNngAAAAAAAAAAAAAAAAAAAAAAAAAAAAAAAAAAAAAAAAAAAAAAAAAAAAAAAAAAAAAAAAAAAAAAAAAAAAAAAAAAAAAAAAAAAAAAAAAAAAAAAAAAAAAAAAAAAAAAAAAAAAAAAAAAAAAAAAAAAAAAAAAAAAAAAAAAAAAAAAAAAAAAAAAAAAAAAAAAAAAAAAAAAAAAAAAAAAAAAAAAAAAAAAAAAAAAAAAAAAAAAAAAAAAAAAAAAAAAAAAAAAAAAAAAAAAAAAAAAAAAAAAAAAAAAAAAAAAAAAAAAAAAAAAAAAAAAAAAAAAAAAAAAAAAAAAAAAAAAAAAAAAAAAAAAAAAAAAAAAAAAAAAAAAAAAAAAAAAAAAAAAAAAAAAAAAAAAAAAAAAAAAAAAAAAAAAAAAAAAAAAAAAAAAAAAAAAAAAAAAAAAAAAAAAAAAAAAAAAAAAAAAAAAAAAAAAAAAAAAAAAAAAAAAAAAAAAAAAAAAAAAAAAAAAAAAAAAAAAAAAAAAAAAAAAAAAAAAAAAAAAAAAAAAAAAAAAAAAAAAAAAAAAAAAAAAAAAAAAAAAAAAAAAAAAAAAAAAAAAAAAAAAAAAAAAAAAAAAAAAAAAAAAAAAAAAAAAAAAAAAAAAAAAAAAAAAAAAAAAAAAAAAAAAAAAAAAAAAAAAAAAAAAAAAAAAAAAAAAAAAAAAAAAAAAAAAAAAAAAAAAAAAAAAAAAAAAAAAAAAAAAAAAAAAAAAAAAAAAAAAAAAAAAAAAAAAAAAAAAAAAAAAAAAAAAAAAAAAAAAAAAAAAAAAAAAAAAAAAAAAAAAAAAAAAAAAAAAAAAAAAAAAAAAAAAAAAAAAAAAAAAAAAAAAAAAAAAAAAAAAAAAAAAAAAAAAAAAAAAAAAAAAAAAAAAAAAAAAAAAAAAAAAAAAAAAAAAAAAAAAAAAAAAAAAAAAAAAAAAAAAAAAAAAAAAAAAAAAAAAAAAAAAAAAAAAAAAAAAAAAAAAAAAAAAAAAAAAAAAAAAAAAAAAAAAAAAAAAAAAAAAAAAAAAAAAAAAAAAAAAAAAAAAAAAAAAAAAAAAAAAAAAAAAAAAAAAAAAAAAAAAAAAAAAAAAAAAAAAAAAAAAAAAAAAAAAAAAAAAAAAAAAAAAAAAAAAAAAAAAAAAAAAAAAAAAAAAAAAAAAAAAAAAAAAAAAAAAAAAAAAAAAAAAAAAAAAAAAAAAAAAAAAAAAAAAAAAAAAAAAAAAAAAAAAAAAAAAAAAAAAAAAAAAAAAAAAAAAAAAAAAAAAAAAAAAAAAAAAAAAAAAAAAAAAAAAAAAAAAAAAAAAAAAAAAAAAAAAAAAAAAAAAAAAAAAAAAAAAAAAAAAAAAAAAAAAAAAAAAAAAAAAAAAAAAAAAAAAAAAAAAAAAAAAAAAAAAAAAAAAAAAAAAAAAAAAAAAAAAAAAAAAAAAAAAAAAAAAAAAAAAAAAAAAAAAAAAAAAAAAAAAAAAAAAAAAAAAAAAAAAAAAAAAAAAAAAAAAAAAAAAAAAAAAAAAAAAAAAAAAAAAAAAAAAAAAAAAAAAAAAAAAAAAAAAAAAAAAAAAAAAAAAAAAAAAAAAAAAAAAAAAAAAAAAAAAAAAAAAAAAAAAAAAAAAAAAAAAAAAAAAAAAAAAAAAAAAAAAAAAAAAAAAAAAAAAAAAAAAAAAAAAAAAAAAAAAAAAAAAAAAAAAAAAAAAAAAAAAAAAAAAAAAAAAAAAAAAAAAAAAAAAAAAAAAAAAAAAAAAAAAAAAAAAAAAAAAAAAAAAAAAAAAAAAAAAAAAAAAAAAAAAAAAAAAAAAAAAAAAAAAAAAAAAAAAAAAAAAAAAAAAAAAAAAAAAAAAAAAAAAAAAAAAAAAAAAAAAAAAAAAAAAAAAAAAAAAAAAAAAAAAAAAAAAAAAAAAAAAAAAAAAAAAAAAAAAAAAAAAAAAAAAAAAAAAAAAAAAAAAAAAAAAAAAAAAAAAAAAAAAAAAAAAAAAAAAAAAAAAAAAAAAAAAAAAAAAAAAAAAAAAAAAAAAAAAAAAAAAAAAAAAAAAAAAAAAAAAAAAAAAAAAAAAAAAAAAAAAAAAAAAAAAAAAAAAAAAAAAAAAAAAAAAAAAAAAAAAAAAAAAAAAAAAAAAAAAAAAAAAAAAAAAAAAAAAAAAAAAAAAAAAAAAAAAAAAAAAAAAAAAAAAAAAAAAAAAAAAAAAAAAAAAAAAAAAAAAAAAAAAAAAAAAAAAAAAAAAAAAAAAAAAAAAAAAAAAAAAAAAAAAAAAAAAAAAAAAAAAAAAAAAAAAAAAAAAAAAAAAAAAAAAAAAAAAAAAAAAAAAAAAAAAAAAAAAAAAAAAAAAAAAAAAAAAAAAAAAAAAAAAAAAAAAAAAAAAAAAAAAAAAAAAAAAAAAAAAAAAAAAAAAAAAAAAAAAAAAAAAAAAAAAAAAAAAAAAAAAAAAAAAAAAAAAAAAAAAAAAAAAAAAAAAAAAAAAAAAAAAAAAAAAAAAAAAAAAAAAAAAAAAAAAAAAAAAAAAAAAAAAAAAAAAAAAAAAAAAAAAAAAAAAAAAAAAAAAAAAAAAAAAAAAAAAAAAAAAAAAAAAAAAAAAAAAAAAAAAAAAAAAAAAAAAAAAAAAAAAAAAAAAAAAAAAAAAAAAAAAAAAAAAAAAAAAAAAAAAAAAAAAAAAAAAAAAAAAAAAAAAAAAAAAAAAAAAAAAAAAAAAAAAAAAAAAAAAAAAAAAAAAAAAAAAAAAAAAAAAAAAAAAAAAAAAAAAAAAAAAAAAAAAAAAAAAAAAAAAAAAAAAAAAAAAAAAAAAAAAAAAAAAAAAAAAAAAAAAAAAAAAAAAAAAAAAAAAAAAAAAAAAAAAAAAAAAAAAAAAAAAAAAAAAAAAAAAAAAAAAAAAAAAAAAAAAAAAAAAAAAAAAAAAAAAAAAAAAAAAAAAAAAAAAAAAAAAAAAAAAAAAAAAAAAAAAAAAAAAAAAAAAAAAAAAAAAAAAAAAAAAAAAAAAAAAAAAAAAAAAAAAAAAAAAAAAAAAAAAAAAAAAAAAAAAAAAAAAAAAAAAAAAAAAAAAAAAAAAAAAAAAAAAAAAAAAAAAAAAAAAAAAAAAAAAAAAAAAAAAAAAAAAAAAAAAAAAAAAAAAAAAAAAAAAAAAAAAAAAAAAAAAAAAAAAAAAAAAAAAAAAAAAAAAAAAAAAAAAAAAAAAAAAAAAAAAAAAAAAAAAAAAAAAAAAAAAAAAAAAAAAAAAAAAAAAAAAAAAAAAAAAAAAAAAAAAAAAAAAAAAAAAAAAAAAAAAAAAAAAAAAAAAAAAAAAAAAAAAAAAAAAAAAAAAAAAAAAAAAAAAAAAAAAAAAAAAAAAAAAAAAAAAAAAAAAAAAAAAAAAAAAAAAAAAAAAAAAAAAAAAAAAAAAAAAAAAAAAAAAAAAAAAAAAAAAAAAAAAAAAAAAAAAAAAAAAAAAAAAAAAAAAAAAAAAAAAAAAAAAAAAAAAAAAAAAAAAAAAAAAAAAAAAAAAAAAAAAAAAAAAAAAAAAAAAAAAAAAAAAAAAAAAAAAAAAAAAAAAAAAAAAAAAAAAAAAAAAAAAAAAAAAAAAAAAAAAAAAAAAAAAAAAAAAAAAAAAAAAAAAAAAAAAAAAAAAAAAAAAAAAAAAAAAAAAAAAAAAAAAAAAAAAAAAAAAAAAAAAAAAAAAAAAAAAAAAAAAAAAAAAAAAAAAAAAAAAAAAAAAAAAAAAAAAAAAAAAAAAAAAAAAAAAAAAAAAAAAAAAAAAAAAAAAAAAAAAAAAAAAAAAAAAAAAAAAAAAAAAAAAAAAAAAAAAAAAAAAAAAAAAAAAAAAAAAAAAAAAAAAAAAAAAAAAAAAAAAAAAAAAAAAAAAAAAAAAAAAAAAAAAAAAAAAAAAAAAAAAAAAAAAAAAAAAAAAAAAAAAAAAAAAAAAAAAAAAAAAAAAAAAAAAAAAAAAAAAAAAAAAAAAAAAAAAAAAAAAAAAAAAAAAAAAAAAAAAAAAAAAAAAAAAAAAAAAAAAAAAAAAAAAAAAAAAAAAAAAAAAAAAAAAAAAAAAAAAAAAAAAAAAAAAAAAAAAAAAAAAAAAAAAAAAAAAAAAAAAAAAAAAAAAAAAAAAAAAAAAAAAAAAAAAAAAAAAAAAAAAAAAAAAAAAAAAAAAAAAAAAAAAAAAAAAAAAAAAAAAAAAAAAAAAAAAAAAAAAAAAAAAAAAAAAAAAAAAAAAAAAAAAAAAAAAAAAAAAAAAAAAAAAAAAAAAAAAAAAAAAAAAAAAAAAAAAAAAAAAAAAAAAAAAAAAAAAAAAAAAAAAAAAAAAAAAAAAAAAAAAAAAAAAAAAAAAAAAAAAAAAAAAAAAAAAAAAAAAAAAAAAAAAAAAAAAAAAAAAAAAAAAAAAAAAAAAAAAAAAAAAAAAAAAAAAAAAAAAAAAAAAAAAAAAAAAAAAAAAAAAAAAAAAAAAAAAAAAAAAAAAAAAAAAAAAAAAAAAAAAAAAAAAAAAAAAAAAAAAAAAAAAAAAAAAAAAAAAAAAAAAAAAAAAAAAAAAAAAAAAAAAAAAAAAAAAAAAAAAAAAAAAAAAAAAAAAAAAAAAAAAAAAAAAAAAAAAAAAAAAAAAAAAAAAAAAAAAAAAAAAAAAAAAAAAAAAAAAAAAAAAAAAAAAAAAAAAAAAAAAAAAAAAAAAAAAAAAAAAAAAAAAAAAAAAAAPZYQIFAYMMNF+J4A+tSzRxT2f+ZyMYV816aB1XoCFAcfeq23SqbgwFV/Guih12Urn2MqK03j7eCvbINrK5dVNpTzbc=</c2pa:manifest></metadata>
<g clip-path="url(#clip0_180_300)">
<rect width="390" height="844" fill="#FAFAFA"></rect>
<rect x="32.5" y="344.5" width="325" height="43" rx="7.5" fill="white"></rect>
<rect x="32.5" y="344.5" width="325" height="43" rx="7.5" stroke="#737373"></rect>
<path d="M49.8299 372V360.992H50.9979V372H49.8299ZM50.5979 372V370.928H57.0779V372H50.5979ZM50.5979 366.88V365.84H56.5659V366.88H50.5979ZM50.5979 362.064V360.992H56.9819V362.064H50.5979ZM58.4798 372V364.48H59.5998V372H58.4798ZM63.6478 372V367.392C63.6478 366.773 63.4611 366.283 63.0878 365.92C62.7144 365.547 62.2451 365.36 61.6798 365.36C61.2958 365.36 60.9438 365.445 60.6238 365.616C60.3144 365.776 60.0638 366.005 59.8718 366.304C59.6904 366.603 59.5998 366.96 59.5998 367.376L59.0878 367.168C59.0878 366.592 59.2158 366.091 59.4718 365.664C59.7278 365.237 60.0691 364.907 60.4958 364.672C60.9331 364.437 61.4238 364.32 61.9678 364.32C62.5011 364.32 62.9758 364.437 63.3918 364.672C63.8184 364.907 64.1544 365.237 64.3998 365.664C64.6558 366.091 64.7838 366.597 64.7838 367.184V372H63.6478ZM68.8318 372V367.392C68.8318 366.773 68.6451 366.283 68.2718 365.92C67.8984 365.547 67.4238 365.36 66.8478 365.36C66.4744 365.36 66.1278 365.445 65.8078 365.616C65.4984 365.776 65.2478 366.005 65.0558 366.304C64.8744 366.603 64.7838 366.96 64.7838 367.376L64.1118 367.168C64.1438 366.592 64.2931 366.091 64.5598 365.664C64.8371 365.237 65.1944 364.907 65.6318 364.672C66.0798 364.437 66.5704 364.32 67.1038 364.32C67.6371 364.32 68.1171 364.437 68.5438 364.672C68.9811 364.907 69.3224 365.237 69.5678 365.664C69.8238 366.091 69.9518 366.597 69.9518 367.184V372H68.8318ZM74.8219 372.16C74.1072 372.16 73.4672 371.989 72.9019 371.648C72.3365 371.296 71.8885 370.827 71.5579 370.24C71.2379 369.653 71.0779 368.992 71.0779 368.256C71.0779 367.509 71.2379 366.843 71.5579 366.256C71.8885 365.659 72.3365 365.189 72.9019 364.848C73.4672 364.496 74.1019 364.32 74.8059 364.32C75.3819 364.32 75.8939 364.437 76.3419 364.672C76.8005 364.896 77.1685 365.216 77.4459 365.632C77.7339 366.037 77.9099 366.512 77.9739 367.056V369.408C77.9099 369.952 77.7339 370.432 77.4459 370.848C77.1685 371.264 76.8005 371.589 76.3419 371.824C75.8939 372.048 75.3872 372.16 74.8219 372.16ZM74.9979 371.088C75.7765 371.088 76.4005 370.827 76.8699 370.304C77.3499 369.781 77.5899 369.093 77.5899 368.24C77.5899 367.675 77.4779 367.179 77.2539 366.752C77.0405 366.315 76.7365 365.979 76.3419 365.744C75.9579 365.499 75.5045 365.376 74.9819 365.376C74.4485 365.376 73.9739 365.499 73.5579 365.744C73.1525 365.989 72.8272 366.331 72.5819 366.768C72.3472 367.195 72.2299 367.685 72.2299 368.24C72.2299 368.795 72.3472 369.285 72.5819 369.712C72.8272 370.139 73.1579 370.475 73.5739 370.72C73.9899 370.965 74.4645 371.088 74.9979 371.088ZM77.5259 372V369.984L77.7499 368.128L77.5259 366.32V364.48H78.6459V372H77.5259ZM80.4173 372V364.48H81.5533V372H80.4173ZM80.9773 362.848C80.7639 362.848 80.5826 362.773 80.4333 362.624C80.2839 362.464 80.2093 362.277 80.2093 362.064C80.2093 361.84 80.2839 361.653 80.4333 361.504C80.5826 361.355 80.7639 361.28 80.9773 361.28C81.2119 361.28 81.3986 361.355 81.5373 361.504C81.6866 361.653 81.7613 361.84 81.7613 362.064C81.7613 362.277 81.6866 362.464 81.5373 362.624C81.3986 362.773 81.2119 362.848 80.9773 362.848ZM83.3235 372V360.672H84.4435V372H83.3235Z" fill="#BDBDBD"></path>
<rect x="32.5" y="404.5" width="325" height="43" rx="7.5" fill="white"></rect>
<rect x="32.5" y="404.5" width="325" height="43" rx="7.5" stroke="#737373"></rect>
<path d="M50.2147 427.584V426.544H53.4627C53.9107 426.544 54.3107 426.453 54.6627 426.272C55.0254 426.091 55.308 425.835 55.5107 425.504C55.724 425.163 55.8307 424.757 55.8307 424.288C55.8307 423.819 55.724 423.419 55.5107 423.088C55.308 422.747 55.0254 422.485 54.6627 422.304C54.3107 422.112 53.9107 422.016 53.4627 422.016H50.2147V420.992H53.5427C54.204 420.992 54.796 421.131 55.3187 421.408C55.8414 421.675 56.252 422.053 56.5507 422.544C56.86 423.035 57.0147 423.616 57.0147 424.288C57.0147 424.949 56.86 425.531 56.5507 426.032C56.252 426.523 55.8414 426.907 55.3187 427.184C54.796 427.451 54.204 427.584 53.5427 427.584H50.2147ZM49.4627 432V420.992H50.6307V432H49.4627ZM61.2047 432.16C60.49 432.16 59.85 431.989 59.2847 431.648C58.7194 431.296 58.2714 430.827 57.9407 430.24C57.6207 429.653 57.4607 428.992 57.4607 428.256C57.4607 427.509 57.6207 426.843 57.9407 426.256C58.2714 425.659 58.7194 425.189 59.2847 424.848C59.85 424.496 60.4847 424.32 61.1887 424.32C61.7647 424.32 62.2767 424.437 62.7247 424.672C63.1834 424.896 63.5514 425.216 63.8287 425.632C64.1167 426.037 64.2927 426.512 64.3567 427.056V429.408C64.2927 429.952 64.1167 430.432 63.8287 430.848C63.5514 431.264 63.1834 431.589 62.7247 431.824C62.2767 432.048 61.77 432.16 61.2047 432.16ZM61.3807 431.088C62.1594 431.088 62.7834 430.827 63.2527 430.304C63.7327 429.781 63.9727 429.093 63.9727 428.24C63.9727 427.675 63.8607 427.179 63.6367 426.752C63.4234 426.315 63.1194 425.979 62.7247 425.744C62.3407 425.499 61.8874 425.376 61.3647 425.376C60.8314 425.376 60.3567 425.499 59.9407 425.744C59.5354 425.989 59.21 426.331 58.9647 426.768C58.73 427.195 58.6127 427.685 58.6127 428.24C58.6127 428.795 58.73 429.285 58.9647 429.712C59.21 430.139 59.5407 430.475 59.9567 430.72C60.3727 430.965 60.8474 431.088 61.3807 431.088ZM63.9087 432V429.984L64.1327 428.128L63.9087 426.32V424.48H65.0287V432H63.9087ZM69.1041 432.16C68.6987 432.16 68.3094 432.107 67.9361 432C67.5627 431.883 67.2214 431.723 66.9121 431.52C66.6134 431.317 66.3521 431.077 66.1281 430.8L66.8481 430.064C67.1467 430.427 67.4827 430.699 67.8561 430.88C68.2401 431.051 68.6667 431.136 69.1361 431.136C69.6374 431.136 70.0267 431.04 70.3041 430.848C70.5921 430.656 70.7361 430.389 70.7361 430.048C70.7361 429.728 70.6347 429.477 70.4321 429.296C70.2294 429.115 69.9681 428.971 69.6481 428.864C69.3387 428.757 69.0081 428.656 68.6561 428.56C68.3041 428.453 67.9681 428.325 67.6481 428.176C67.3281 428.016 67.0667 427.797 66.8641 427.52C66.6721 427.243 66.5761 426.88 66.5761 426.432C66.5761 426.005 66.6774 425.637 66.8801 425.328C67.0934 425.008 67.3921 424.763 67.7761 424.592C68.1707 424.411 68.6347 424.32 69.1681 424.32C69.7334 424.32 70.2454 424.421 70.7041 424.624C71.1627 424.827 71.5307 425.125 71.8081 425.52L71.0881 426.24C70.8641 425.952 70.5814 425.733 70.2401 425.584C69.9094 425.424 69.5361 425.344 69.1201 425.344C68.6401 425.344 68.2721 425.44 68.0161 425.632C67.7707 425.813 67.6481 426.053 67.6481 426.352C67.6481 426.64 67.7494 426.869 67.9521 427.04C68.1547 427.2 68.4107 427.333 68.7201 427.44C69.0401 427.536 69.3761 427.637 69.7281 427.744C70.0801 427.84 70.4161 427.973 70.7361 428.144C71.0561 428.304 71.3121 428.528 71.5041 428.816C71.7067 429.093 71.8081 429.472 71.8081 429.952C71.8081 430.624 71.5627 431.163 71.0721 431.568C70.5921 431.963 69.9361 432.16 69.1041 432.16ZM75.3853 432.16C74.98 432.16 74.5906 432.107 74.2173 432C73.844 431.883 73.5026 431.723 73.1933 431.52C72.8946 431.317 72.6333 431.077 72.4093 430.8L73.1293 430.064C73.428 430.427 73.764 430.699 74.1373 430.88C74.5213 431.051 74.948 431.136 75.4173 431.136C75.9186 431.136 76.308 431.04 76.5853 430.848C76.8733 430.656 77.0173 430.389 77.0173 430.048C77.0173 429.728 76.916 429.477 76.7133 429.296C76.5106 429.115 76.2493 428.971 75.9293 428.864C75.62 428.757 75.2893 428.656 74.9373 428.56C74.5853 428.453 74.2493 428.325 73.9293 428.176C73.6093 428.016 73.348 427.797 73.1453 427.52C72.9533 427.243 72.8573 426.88 72.8573 426.432C72.8573 426.005 72.9586 425.637 73.1613 425.328C73.3746 425.008 73.6733 424.763 74.0573 424.592C74.452 424.411 74.916 424.32 75.4493 424.32C76.0146 424.32 76.5266 424.421 76.9853 424.624C77.444 424.827 77.812 425.125 78.0893 425.52L77.3693 426.24C77.1453 425.952 76.8626 425.733 76.5213 425.584C76.1906 425.424 75.8173 425.344 75.4013 425.344C74.9213 425.344 74.5533 425.44 74.2973 425.632C74.052 425.813 73.9293 426.053 73.9293 426.352C73.9293 426.64 74.0306 426.869 74.2333 427.04C74.436 427.2 74.692 427.333 75.0013 427.44C75.3213 427.536 75.6573 427.637 76.0093 427.744C76.3613 427.84 76.6973 427.973 77.0173 428.144C77.3373 428.304 77.5933 428.528 77.7853 428.816C77.988 429.093 78.0893 429.472 78.0893 429.952C78.0893 430.624 77.844 431.163 77.3533 431.568C76.8733 431.963 76.2173 432.16 75.3853 432.16ZM81.4586 432L78.5626 424.48H79.7306L82.0186 430.72L81.6026 430.736L83.8746 424.48H84.5306L86.8026 430.736L86.3866 430.72L88.6586 424.48H89.8426L86.9306 432H86.2746L83.9546 425.84H84.4346L82.1306 432H81.4586ZM93.9581 432.16C93.2327 432.16 92.5714 431.984 91.9741 431.632C91.3874 431.28 90.9181 430.805 90.5661 430.208C90.2247 429.611 90.0541 428.944 90.0541 428.208C90.0541 427.483 90.2247 426.827 90.5661 426.24C90.9181 425.653 91.3874 425.189 91.9741 424.848C92.5714 424.496 93.2327 424.32 93.9581 424.32C94.6941 424.32 95.3554 424.491 95.9421 424.832C96.5287 425.173 96.9927 425.643 97.3341 426.24C97.6861 426.827 97.8621 427.483 97.8621 428.208C97.8621 428.955 97.6861 429.627 97.3341 430.224C96.9927 430.811 96.5287 431.28 95.9421 431.632C95.3554 431.984 94.6941 432.16 93.9581 432.16ZM93.9581 431.072C94.4914 431.072 94.9607 430.949 95.3661 430.704C95.7821 430.459 96.1074 430.117 96.3421 429.68C96.5874 429.243 96.7101 428.752 96.7101 428.208C96.7101 427.664 96.5874 427.184 96.3421 426.768C96.1074 426.341 95.7821 426.005 95.3661 425.76C94.9607 425.515 94.4914 425.392 93.9581 425.392C93.4354 425.392 92.9661 425.515 92.5501 425.76C92.1341 426.005 91.8087 426.341 91.5741 426.768C91.3394 427.184 91.2221 427.664 91.2221 428.208C91.2221 428.763 91.3394 429.259 91.5741 429.696C91.8087 430.123 92.1341 430.459 92.5501 430.704C92.9661 430.949 93.4354 431.072 93.9581 431.072ZM99.1438 432V424.48H100.264V432H99.1438ZM100.264 427.616L99.7998 427.408C99.7998 426.459 100.029 425.707 100.488 425.152C100.957 424.597 101.597 424.32 102.408 424.32C102.781 424.32 103.122 424.389 103.432 424.528C103.741 424.656 104.029 424.864 104.296 425.152L103.56 425.936C103.378 425.733 103.176 425.589 102.952 425.504C102.738 425.419 102.493 425.376 102.216 425.376C101.64 425.376 101.17 425.568 100.808 425.952C100.445 426.325 100.264 426.88 100.264 427.616ZM107.922 432.16C107.229 432.16 106.605 431.989 106.05 431.648C105.495 431.307 105.053 430.843 104.722 430.256C104.402 429.659 104.242 428.992 104.242 428.256C104.242 427.509 104.402 426.843 104.722 426.256C105.053 425.659 105.495 425.189 106.05 424.848C106.605 424.496 107.229 424.32 107.922 424.32C108.487 424.32 108.999 424.432 109.458 424.656C109.917 424.88 110.295 425.2 110.594 425.616C110.903 426.021 111.085 426.501 111.138 427.056V429.408C111.074 429.952 110.893 430.432 110.594 430.848C110.306 431.253 109.933 431.573 109.474 431.808C109.015 432.043 108.498 432.16 107.922 432.16ZM108.114 431.088C108.637 431.088 109.095 430.971 109.49 430.736C109.885 430.491 110.194 430.155 110.418 429.728C110.642 429.291 110.754 428.795 110.754 428.24C110.754 427.675 110.637 427.179 110.402 426.752C110.178 426.325 109.869 425.989 109.474 425.744C109.079 425.499 108.621 425.376 108.098 425.376C107.575 425.376 107.111 425.499 106.706 425.744C106.301 425.989 105.981 426.331 105.746 426.768C105.522 427.195 105.41 427.685 105.41 428.24C105.41 428.795 105.522 429.291 105.746 429.728C105.981 430.155 106.301 430.491 106.706 430.736C107.122 430.971 107.591 431.088 108.114 431.088ZM111.81 432H110.69V429.984L110.914 428.128L110.69 426.32V420.672H111.81V432Z" fill="#BDBDBD"></path>
<rect x="32" y="532" width="326" height="44" rx="8" fill="#8CC63E"></rect>
<path d="M176.955 560.16C176.048 560.16 175.27 560.005 174.619 559.696C173.979 559.387 173.398 558.923 172.875 558.304L174.315 556.864C174.646 557.301 175.03 557.643 175.467 557.888C175.904 558.123 176.438 558.24 177.067 558.24C177.632 558.24 178.08 558.128 178.411 557.904C178.752 557.68 178.923 557.371 178.923 556.976C178.923 556.635 178.827 556.357 178.635 556.144C178.443 555.931 178.187 555.749 177.867 555.6C177.558 555.451 177.211 555.317 176.827 555.2C176.454 555.072 176.075 554.928 175.691 554.768C175.318 554.608 174.971 554.411 174.651 554.176C174.342 553.931 174.091 553.621 173.899 553.248C173.707 552.864 173.611 552.384 173.611 551.808C173.611 551.125 173.776 550.544 174.107 550.064C174.438 549.584 174.891 549.216 175.467 548.96C176.043 548.704 176.694 548.576 177.419 548.576C178.187 548.576 178.88 548.72 179.499 549.008C180.118 549.296 180.624 549.669 181.019 550.128L179.579 551.568C179.248 551.205 178.907 550.939 178.555 550.768C178.214 550.597 177.824 550.512 177.387 550.512C176.886 550.512 176.491 550.608 176.203 550.8C175.915 550.992 175.771 551.269 175.771 551.632C175.771 551.941 175.867 552.192 176.059 552.384C176.251 552.576 176.502 552.741 176.811 552.88C177.131 553.019 177.478 553.152 177.851 553.28C178.235 553.408 178.614 553.552 178.987 553.712C179.371 553.872 179.718 554.08 180.027 554.336C180.347 554.592 180.603 554.923 180.795 555.328C180.987 555.723 181.083 556.213 181.083 556.8C181.083 557.845 180.715 558.667 179.979 559.264C179.243 559.861 178.235 560.16 176.955 560.16ZM182.076 560V552.272H184.188V560H182.076ZM183.132 551.024C182.791 551.024 182.508 550.912 182.284 550.688C182.06 550.453 181.948 550.165 181.948 549.824C181.948 549.493 182.06 549.211 182.284 548.976C182.508 548.741 182.791 548.624 183.132 548.624C183.484 548.624 183.767 548.741 183.98 548.976C184.204 549.211 184.316 549.493 184.316 549.824C184.316 550.165 184.204 550.453 183.98 550.688C183.767 550.912 183.484 551.024 183.132 551.024ZM188.777 563.424C187.956 563.424 187.231 563.275 186.601 562.976C185.972 562.688 185.471 562.277 185.097 561.744L186.425 560.416C186.724 560.768 187.055 561.035 187.417 561.216C187.791 561.408 188.239 561.504 188.761 561.504C189.412 561.504 189.924 561.339 190.297 561.008C190.681 560.677 190.873 560.219 190.873 559.632V557.696L191.225 556L190.889 554.304V552.272H192.969V559.6C192.969 560.368 192.788 561.035 192.425 561.6C192.073 562.176 191.583 562.624 190.953 562.944C190.324 563.264 189.599 563.424 188.777 563.424ZM188.681 559.792C187.988 559.792 187.364 559.627 186.809 559.296C186.255 558.955 185.817 558.491 185.497 557.904C185.188 557.317 185.033 556.661 185.033 555.936C185.033 555.211 185.188 554.56 185.497 553.984C185.817 553.408 186.255 552.955 186.809 552.624C187.364 552.283 187.988 552.112 188.681 552.112C189.257 552.112 189.764 552.224 190.201 552.448C190.649 552.672 191.001 552.981 191.257 553.376C191.513 553.76 191.652 554.213 191.673 554.736V557.168C191.652 557.68 191.508 558.139 191.241 558.544C190.985 558.939 190.633 559.248 190.185 559.472C189.748 559.685 189.247 559.792 188.681 559.792ZM189.097 557.888C189.481 557.888 189.812 557.808 190.089 557.648C190.377 557.477 190.601 557.248 190.761 556.96C190.921 556.661 191.001 556.325 191.001 555.952C191.001 555.568 190.921 555.232 190.761 554.944C190.601 554.656 190.377 554.432 190.089 554.272C189.812 554.101 189.481 554.016 189.097 554.016C188.713 554.016 188.377 554.101 188.089 554.272C187.801 554.432 187.577 554.661 187.417 554.96C187.257 555.248 187.177 555.579 187.177 555.952C187.177 556.315 187.257 556.645 187.417 556.944C187.577 557.232 187.801 557.461 188.089 557.632C188.377 557.803 188.713 557.888 189.097 557.888ZM199.511 560V555.568C199.511 555.109 199.367 554.736 199.079 554.448C198.791 554.16 198.417 554.016 197.959 554.016C197.66 554.016 197.393 554.08 197.159 554.208C196.924 554.336 196.737 554.517 196.599 554.752C196.471 554.987 196.407 555.259 196.407 555.568L195.591 555.152C195.591 554.544 195.719 554.016 195.975 553.568C196.241 553.109 196.604 552.752 197.063 552.496C197.532 552.24 198.06 552.112 198.647 552.112C199.212 552.112 199.719 552.256 200.167 552.544C200.615 552.821 200.967 553.189 201.223 553.648C201.479 554.096 201.607 554.581 201.607 555.104V560H199.511ZM194.311 560V552.272H196.407V560H194.311ZM205.644 560V548.752H207.82V560H205.644ZM214.605 560V555.568C214.605 555.109 214.461 554.736 214.173 554.448C213.885 554.16 213.511 554.016 213.053 554.016C212.754 554.016 212.487 554.08 212.253 554.208C212.018 554.336 211.831 554.517 211.693 554.752C211.565 554.987 211.501 555.259 211.501 555.568L210.685 555.152C210.685 554.544 210.813 554.016 211.069 553.568C211.335 553.109 211.698 552.752 212.157 552.496C212.626 552.24 213.154 552.112 213.741 552.112C214.306 552.112 214.813 552.256 215.261 552.544C215.709 552.821 216.061 553.189 216.317 553.648C216.573 554.096 216.701 554.581 216.701 555.104V560H214.605ZM209.405 560V552.272H211.501V560H209.405Z" fill="white"></path>
<ellipse opacity="0.2" cx="185.5" cy="-7" rx="222.5" ry="203" fill="#B3EA68"></ellipse>
<circle opacity="0.2" cx="378" cy="-4" r="171" fill="#B3EA68"></circle>
<g clip-path="url(#clip1_180_300)">
<path d="M81.3517 262.869L73.4896 256C71.5862 258.152 71.3379 261.545 73.4896 263.448C75.6414 265.352 79.4483 265.021 81.3517 262.869ZM108.248 256L100.883 262.869C102.786 265.021 106.097 265.352 108.248 263.448C110.4 261.545 110.152 258.152 108.248 256ZM105.848 279.172L101.71 265.103C100.883 262.621 98.2345 260.966 95.9172 260.966H86.8138C84.4965 260.966 81.8483 262.621 81.0207 265.103L76.8827 279.172C76.8827 280.91 77.9586 282.4 79.531 282.979L75.2276 293.241C75.2276 295.559 77.0483 300.69 79.3655 300.69H103.366C105.683 300.69 107.503 295.559 107.503 293.241L103.034 283.062C104.69 282.483 105.848 280.993 105.848 279.172ZM87.3931 274.786C88.3034 271.641 89.5448 270.069 91.0345 270.069C92.5241 270.069 93.7655 271.641 94.6758 274.786C94.8414 275.2 94.5931 275.697 94.0965 275.779H93.8483C93.5172 275.779 93.1862 275.531 93.0207 275.2C92.1931 272.386 91.3655 271.641 90.9517 271.641C90.5379 271.641 89.7103 272.386 88.8827 275.2C88.7172 275.614 88.3034 275.862 87.8896 275.779C87.4758 275.697 87.2276 275.283 87.3931 274.786ZM83.5034 280C82.5931 280 81.8483 279.255 81.8483 278.345C81.8483 277.434 82.5931 276.69 83.5034 276.69C84.4138 276.69 85.1586 277.434 85.1586 278.345C85.1586 279.255 84.4965 280 83.5034 280ZM90.9517 296.552C88.6345 296.552 86.8138 294.731 86.8138 292.414C86.8138 290.097 88.6345 277.517 90.9517 277.517C93.269 277.517 95.0896 290.097 95.0896 292.414C95.0896 294.731 93.269 296.552 90.9517 296.552ZM98.4 280C97.4896 280 96.7448 279.255 96.7448 278.345C96.7448 277.434 97.4896 276.69 98.4 276.69C99.3103 276.69 100.055 277.434 100.055 278.345C100.055 279.255 99.3931 280 98.4 280ZM86.731 304H95.0069C96.1655 304 96.9103 303.338 97.2414 302.345H84.4965C84.8276 303.338 85.5724 304 86.731 304Z" fill="#8CC63E"></path>
</g>
<path d="M141.769 288H138.409L130.801 276.504V288H127.441V271.224H130.801L138.409 282.744V271.224H141.769V288ZM143.725 281.304C143.725 279.96 143.989 278.768 144.517 277.728C145.061 276.688 145.789 275.888 146.701 275.328C147.629 274.768 148.661 274.488 149.797 274.488C150.789 274.488 151.653 274.688 152.389 275.088C153.141 275.488 153.741 275.992 154.189 276.6V274.704H157.573V288H154.189V286.056C153.757 286.68 153.157 287.2 152.389 287.616C151.637 288.016 150.765 288.216 149.773 288.216C148.653 288.216 147.629 287.928 146.701 287.352C145.789 286.776 145.061 285.968 144.517 284.928C143.989 283.872 143.725 282.664 143.725 281.304ZM154.189 281.352C154.189 280.536 154.029 279.84 153.709 279.264C153.389 278.672 152.957 278.224 152.413 277.92C151.869 277.6 151.285 277.44 150.661 277.44C150.037 277.44 149.461 277.592 148.933 277.896C148.405 278.2 147.973 278.648 147.637 279.24C147.317 279.816 147.157 280.504 147.157 281.304C147.157 282.104 147.317 282.808 147.637 283.416C147.973 284.008 148.405 284.464 148.933 284.784C149.477 285.104 150.053 285.264 150.661 285.264C151.285 285.264 151.869 285.112 152.413 284.808C152.957 284.488 153.389 284.04 153.709 283.464C154.029 282.872 154.189 282.168 154.189 281.352ZM166.139 288.168C164.971 288.168 163.915 287.968 162.971 287.568C162.043 287.168 161.307 286.592 160.763 285.84C160.219 285.088 159.939 284.2 159.923 283.176H163.523C163.571 283.864 163.811 284.408 164.243 284.808C164.691 285.208 165.299 285.408 166.067 285.408C166.851 285.408 167.467 285.224 167.915 284.856C168.363 284.472 168.587 283.976 168.587 283.368C168.587 282.872 168.435 282.464 168.131 282.144C167.827 281.824 167.443 281.576 166.979 281.4C166.531 281.208 165.907 281 165.107 280.776C164.019 280.456 163.131 280.144 162.443 279.84C161.771 279.52 161.187 279.048 160.691 278.424C160.211 277.784 159.971 276.936 159.971 275.88C159.971 274.888 160.219 274.024 160.715 273.288C161.211 272.552 161.907 271.992 162.803 271.608C163.699 271.208 164.723 271.008 165.875 271.008C167.603 271.008 169.003 271.432 170.075 272.28C171.163 273.112 171.763 274.28 171.875 275.784H168.179C168.147 275.208 167.899 274.736 167.435 274.368C166.987 273.984 166.387 273.792 165.635 273.792C164.979 273.792 164.451 273.96 164.051 274.296C163.667 274.632 163.475 275.12 163.475 275.76C163.475 276.208 163.619 276.584 163.907 276.888C164.211 277.176 164.579 277.416 165.011 277.608C165.459 277.784 166.083 277.992 166.883 278.232C167.971 278.552 168.859 278.872 169.547 279.192C170.235 279.512 170.827 279.992 171.323 280.632C171.819 281.272 172.067 282.112 172.067 283.152C172.067 284.048 171.835 284.88 171.371 285.648C170.907 286.416 170.227 287.032 169.331 287.496C168.435 287.944 167.371 288.168 166.139 288.168ZM187.8 271.248L182.136 282.168V288H178.776V282.168L173.088 271.248H176.88L180.48 278.904L184.056 271.248H187.8ZM207.502 271.248V288H204.142V277.104L199.654 288H197.11L192.598 277.104V288H189.238V271.248H193.054L198.382 283.704L203.71 271.248H207.502ZM216.108 288.168C214.94 288.168 213.884 287.968 212.94 287.568C212.012 287.168 211.276 286.592 210.732 285.84C210.188 285.088 209.908 284.2 209.892 283.176H213.492C213.54 283.864 213.78 284.408 214.212 284.808C214.66 285.208 215.268 285.408 216.036 285.408C216.82 285.408 217.436 285.224 217.884 284.856C218.332 284.472 218.556 283.976 218.556 283.368C218.556 282.872 218.404 282.464 218.1 282.144C217.796 281.824 217.412 281.576 216.948 281.4C216.5 281.208 215.876 281 215.076 280.776C213.988 280.456 213.1 280.144 212.412 279.84C211.74 279.52 211.156 279.048 210.66 278.424C210.18 277.784 209.94 276.936 209.94 275.88C209.94 274.888 210.188 274.024 210.684 273.288C211.18 272.552 211.876 271.992 212.772 271.608C213.668 271.208 214.692 271.008 215.844 271.008C217.572 271.008 218.972 271.432 220.044 272.28C221.132 273.112 221.732 274.28 221.844 275.784H218.148C218.116 275.208 217.868 274.736 217.404 274.368C216.956 273.984 216.356 273.792 215.604 273.792C214.948 273.792 214.42 273.96 214.02 274.296C213.636 274.632 213.444 275.12 213.444 275.76C213.444 276.208 213.588 276.584 213.876 276.888C214.18 277.176 214.548 277.416 214.98 277.608C215.428 277.784 216.052 277.992 216.852 278.232C217.94 278.552 218.828 278.872 219.516 279.192C220.204 279.512 220.796 279.992 221.292 280.632C221.788 281.272 222.036 282.112 222.036 283.152C222.036 284.048 221.804 284.88 221.34 285.648C220.876 286.416 220.196 287.032 219.3 287.496C218.404 287.944 217.34 288.168 216.108 288.168ZM237.001 274.704V288H233.617V286.32C233.185 286.896 232.617 287.352 231.913 287.688C231.225 288.008 230.473 288.168 229.657 288.168C228.617 288.168 227.697 287.952 226.897 287.52C226.097 287.072 225.465 286.424 225.001 285.576C224.553 284.712 224.329 283.688 224.329 282.504V274.704H227.689V282.024C227.689 283.08 227.953 283.896 228.481 284.472C229.009 285.032 229.729 285.312 230.641 285.312C231.569 285.312 232.297 285.032 232.825 284.472C233.353 283.896 233.617 283.08 233.617 282.024V274.704H237.001ZM243.176 276.768C243.608 276.064 244.168 275.512 244.856 275.112C245.56 274.712 246.36 274.512 247.256 274.512V278.04H246.368C245.312 278.04 244.512 278.288 243.968 278.784C243.44 279.28 243.176 280.144 243.176 281.376V288H239.816V274.704H243.176V276.768ZM254.227 274.488C255.219 274.488 256.091 274.688 256.843 275.088C257.595 275.472 258.187 275.976 258.619 276.6V274.704H262.003V288.096C262.003 289.328 261.755 290.424 261.259 291.384C260.763 292.36 260.019 293.128 259.027 293.688C258.035 294.264 256.835 294.552 255.427 294.552C253.539 294.552 251.987 294.112 250.771 293.232C249.571 292.352 248.891 291.152 248.731 289.632H252.067C252.243 290.24 252.619 290.72 253.195 291.072C253.787 291.44 254.499 291.624 255.331 291.624C256.307 291.624 257.099 291.328 257.707 290.736C258.315 290.16 258.619 289.28 258.619 288.096V286.032C258.187 286.656 257.587 287.176 256.819 287.592C256.067 288.008 255.203 288.216 254.227 288.216C253.107 288.216 252.083 287.928 251.155 287.352C250.227 286.776 249.491 285.968 248.947 284.928C248.419 283.872 248.155 282.664 248.155 281.304C248.155 279.96 248.419 278.768 248.947 277.728C249.491 276.688 250.219 275.888 251.131 275.328C252.059 274.768 253.091 274.488 254.227 274.488ZM258.619 281.352C258.619 280.536 258.459 279.84 258.139 279.264C257.819 278.672 257.387 278.224 256.843 277.92C256.299 277.6 255.715 277.44 255.091 277.44C254.467 277.44 253.891 277.592 253.363 277.896C252.835 278.2 252.403 278.648 252.067 279.24C251.747 279.816 251.587 280.504 251.587 281.304C251.587 282.104 251.747 282.808 252.067 283.416C252.403 284.008 252.835 284.464 253.363 284.784C253.907 285.104 254.483 285.264 255.091 285.264C255.715 285.264 256.299 285.112 256.843 284.808C257.387 284.488 257.819 284.04 258.139 283.464C258.459 282.872 258.619 282.168 258.619 281.352ZM266.489 273.12C265.897 273.12 265.401 272.936 265.001 272.568C264.617 272.184 264.425 271.712 264.425 271.152C264.425 270.592 264.617 270.128 265.001 269.76C265.401 269.376 265.897 269.184 266.489 269.184C267.081 269.184 267.569 269.376 267.953 269.76C268.353 270.128 268.553 270.592 268.553 271.152C268.553 271.712 268.353 272.184 267.953 272.568C267.569 272.936 267.081 273.12 266.489 273.12ZM268.145 274.704V288H264.785V274.704H268.145ZM270.1 281.352C270.1 279.976 270.38 278.776 270.94 277.752C271.5 276.712 272.276 275.912 273.268 275.352C274.26 274.776 275.396 274.488 276.676 274.488C278.324 274.488 279.684 274.904 280.756 275.736C281.844 276.552 282.572 277.704 282.94 279.192H279.316C279.124 278.616 278.796 278.168 278.332 277.848C277.884 277.512 277.324 277.344 276.652 277.344C275.692 277.344 274.932 277.696 274.372 278.4C273.812 279.088 273.532 280.072 273.532 281.352C273.532 282.616 273.812 283.6 274.372 284.304C274.932 284.992 275.692 285.336 276.652 285.336C278.012 285.336 278.9 284.728 279.316 283.512H282.94C282.572 284.952 281.844 286.096 280.756 286.944C279.668 287.792 278.308 288.216 276.676 288.216C275.396 288.216 274.26 287.936 273.268 287.376C272.276 286.8 271.5 286 270.94 284.976C270.38 283.936 270.1 282.728 270.1 281.352ZM284.038 281.304C284.038 279.96 284.302 278.768 284.83 277.728C285.374 276.688 286.102 275.888 287.014 275.328C287.942 274.768 288.974 274.488 290.11 274.488C291.102 274.488 291.966 274.688 292.702 275.088C293.454 275.488 294.054 275.992 294.502 276.6V274.704H297.886V288H294.502V286.056C294.07 286.68 293.47 287.2 292.702 287.616C291.95 288.016 291.078 288.216 290.086 288.216C288.966 288.216 287.942 287.928 287.014 287.352C286.102 286.776 285.374 285.968 284.83 284.928C284.302 283.872 284.038 282.664 284.038 281.304ZM294.502 281.352C294.502 280.536 294.342 279.84 294.022 279.264C293.702 278.672 293.27 278.224 292.726 277.92C292.182 277.6 291.598 277.44 290.974 277.44C290.35 277.44 289.774 277.592 289.246 277.896C288.718 278.2 288.286 278.648 287.95 279.24C287.63 279.816 287.47 280.504 287.47 281.304C287.47 282.104 287.63 282.808 287.95 283.416C288.286 284.008 288.718 284.464 289.246 284.784C289.79 285.104 290.366 285.264 290.974 285.264C291.598 285.264 292.182 285.112 292.726 284.808C293.27 284.488 293.702 284.04 294.022 283.464C294.342 282.872 294.502 282.168 294.502 281.352ZM304.027 270.24V288H300.667V270.24H304.027Z" fill="black"></path>
<path d="M248.066 469V459.978H249.288V469H248.066ZM248.898 465.035V463.917H253.604V465.035H248.898ZM248.898 461.096V459.978H253.825V461.096H248.898ZM257.801 469.13C257.194 469.13 256.648 468.987 256.163 468.701C255.678 468.415 255.292 468.029 255.006 467.544C254.72 467.05 254.577 466.5 254.577 465.893C254.577 465.295 254.72 464.758 255.006 464.281C255.292 463.796 255.678 463.41 256.163 463.124C256.648 462.838 257.194 462.695 257.801 462.695C258.399 462.695 258.941 462.838 259.426 463.124C259.92 463.401 260.31 463.783 260.596 464.268C260.882 464.753 261.025 465.295 261.025 465.893C261.025 466.5 260.882 467.05 260.596 467.544C260.31 468.029 259.92 468.415 259.426 468.701C258.941 468.987 258.399 469.13 257.801 469.13ZM257.801 467.999C258.191 467.999 258.538 467.908 258.841 467.726C259.144 467.544 259.383 467.297 259.556 466.985C259.729 466.664 259.816 466.3 259.816 465.893C259.816 465.494 259.725 465.139 259.543 464.827C259.37 464.515 259.131 464.272 258.828 464.099C258.533 463.917 258.191 463.826 257.801 463.826C257.411 463.826 257.064 463.917 256.761 464.099C256.458 464.272 256.219 464.515 256.046 464.827C255.873 465.139 255.786 465.494 255.786 465.893C255.786 466.3 255.873 466.664 256.046 466.985C256.219 467.297 256.458 467.544 256.761 467.726C257.064 467.908 257.411 467.999 257.801 467.999ZM262.343 469V462.825H263.513V469H262.343ZM263.513 465.477L263.071 465.282C263.071 464.493 263.253 463.865 263.617 463.397C263.981 462.929 264.506 462.695 265.19 462.695C265.502 462.695 265.784 462.751 266.035 462.864C266.287 462.968 266.521 463.146 266.737 463.397L265.97 464.19C265.84 464.051 265.697 463.952 265.541 463.891C265.385 463.83 265.203 463.8 264.995 463.8C264.562 463.8 264.207 463.939 263.929 464.216C263.652 464.493 263.513 464.914 263.513 465.477ZM269.919 471.717C269.286 471.717 268.723 471.6 268.229 471.366C267.744 471.132 267.354 470.803 267.059 470.378L267.813 469.611C268.064 469.932 268.363 470.174 268.71 470.339C269.057 470.512 269.468 470.599 269.945 470.599C270.578 470.599 271.076 470.43 271.44 470.092C271.813 469.763 271.999 469.316 271.999 468.753V467.219L272.207 465.828L271.999 464.45V462.825H273.169V468.753C273.169 469.342 273.03 469.858 272.753 470.3C272.484 470.742 272.103 471.089 271.609 471.34C271.124 471.591 270.56 471.717 269.919 471.717ZM269.919 468.896C269.356 468.896 268.849 468.762 268.398 468.493C267.956 468.224 267.605 467.856 267.345 467.388C267.085 466.911 266.955 466.378 266.955 465.789C266.955 465.2 267.085 464.675 267.345 464.216C267.605 463.748 267.956 463.38 268.398 463.111C268.849 462.834 269.356 462.695 269.919 462.695C270.404 462.695 270.833 462.79 271.206 462.981C271.579 463.172 271.873 463.44 272.09 463.787C272.315 464.125 272.437 464.524 272.454 464.983V466.621C272.428 467.072 272.302 467.47 272.077 467.817C271.86 468.155 271.566 468.419 271.193 468.61C270.82 468.801 270.396 468.896 269.919 468.896ZM270.153 467.791C270.534 467.791 270.868 467.709 271.154 467.544C271.449 467.379 271.674 467.15 271.83 466.855C271.986 466.552 272.064 466.201 272.064 465.802C272.064 465.403 271.982 465.057 271.817 464.762C271.661 464.459 271.44 464.225 271.154 464.06C270.868 463.887 270.53 463.8 270.14 463.8C269.75 463.8 269.408 463.887 269.113 464.06C268.818 464.225 268.584 464.459 268.411 464.762C268.246 465.057 268.164 465.399 268.164 465.789C268.164 466.179 268.246 466.526 268.411 466.829C268.584 467.132 268.818 467.371 269.113 467.544C269.416 467.709 269.763 467.791 270.153 467.791ZM277.746 469.13C277.131 469.13 276.576 468.991 276.082 468.714C275.588 468.428 275.198 468.042 274.912 467.557C274.626 467.072 274.483 466.521 274.483 465.906C274.483 465.299 274.622 464.753 274.899 464.268C275.185 463.783 275.567 463.401 276.043 463.124C276.529 462.838 277.07 462.695 277.668 462.695C278.24 462.695 278.743 462.825 279.176 463.085C279.618 463.345 279.961 463.705 280.203 464.164C280.455 464.623 280.58 465.143 280.58 465.724C280.58 465.811 280.576 465.906 280.567 466.01C280.559 466.105 280.541 466.218 280.515 466.348H275.302V465.373H279.891L279.462 465.75C279.462 465.334 279.389 464.983 279.241 464.697C279.094 464.402 278.886 464.177 278.617 464.021C278.349 463.856 278.024 463.774 277.642 463.774C277.244 463.774 276.893 463.861 276.589 464.034C276.286 464.207 276.052 464.45 275.887 464.762C275.723 465.074 275.64 465.442 275.64 465.867C275.64 466.3 275.727 466.682 275.9 467.011C276.074 467.332 276.321 467.583 276.641 467.765C276.962 467.938 277.33 468.025 277.746 468.025C278.093 468.025 278.409 467.964 278.695 467.843C278.99 467.722 279.241 467.54 279.449 467.297L280.203 468.064C279.909 468.411 279.545 468.675 279.111 468.857C278.687 469.039 278.232 469.13 277.746 469.13ZM282.627 469V460.238H283.797V469H282.627ZM281.106 463.891V462.825H285.318V463.891H281.106ZM290.196 465.49V464.424H292.653C292.991 464.424 293.29 464.355 293.55 464.216C293.818 464.077 294.026 463.882 294.174 463.631C294.33 463.38 294.408 463.081 294.408 462.734C294.408 462.387 294.33 462.088 294.174 461.837C294.026 461.586 293.818 461.391 293.55 461.252C293.29 461.113 292.991 461.044 292.653 461.044H290.196V459.978H292.731C293.285 459.978 293.779 460.091 294.213 460.316C294.655 460.541 295.001 460.862 295.253 461.278C295.513 461.685 295.643 462.171 295.643 462.734C295.643 463.289 295.513 463.774 295.253 464.19C295.001 464.597 294.655 464.918 294.213 465.152C293.779 465.377 293.285 465.49 292.731 465.49H290.196ZM289.377 469V459.978H290.599V469H289.377ZM299.323 469.13C298.76 469.13 298.248 468.991 297.789 468.714C297.33 468.428 296.966 468.042 296.697 467.557C296.437 467.072 296.307 466.526 296.307 465.919C296.307 465.312 296.437 464.766 296.697 464.281C296.966 463.796 297.325 463.41 297.776 463.124C298.235 462.838 298.751 462.695 299.323 462.695C299.791 462.695 300.207 462.795 300.571 462.994C300.944 463.185 301.243 463.453 301.468 463.8C301.693 464.138 301.819 464.532 301.845 464.983V466.842C301.819 467.284 301.693 467.678 301.468 468.025C301.251 468.372 300.957 468.645 300.584 468.844C300.22 469.035 299.8 469.13 299.323 469.13ZM299.518 468.025C300.099 468.025 300.567 467.83 300.922 467.44C301.277 467.041 301.455 466.534 301.455 465.919C301.455 465.494 301.373 465.126 301.208 464.814C301.052 464.493 300.827 464.246 300.532 464.073C300.237 463.891 299.895 463.8 299.505 463.8C299.115 463.8 298.768 463.891 298.465 464.073C298.17 464.255 297.936 464.506 297.763 464.827C297.598 465.139 297.516 465.499 297.516 465.906C297.516 466.322 297.598 466.69 297.763 467.011C297.936 467.323 298.175 467.57 298.478 467.752C298.781 467.934 299.128 468.025 299.518 468.025ZM301.377 469V467.336L301.598 465.828L301.377 464.333V462.825H302.56V469H301.377ZM306.226 469.13C305.88 469.13 305.55 469.087 305.238 469C304.935 468.905 304.653 468.775 304.393 468.61C304.133 468.437 303.908 468.233 303.717 467.999L304.471 467.245C304.697 467.522 304.957 467.73 305.251 467.869C305.546 467.999 305.875 468.064 306.239 468.064C306.603 468.064 306.885 468.003 307.084 467.882C307.284 467.752 307.383 467.574 307.383 467.349C307.383 467.124 307.301 466.95 307.136 466.829C306.98 466.699 306.777 466.595 306.525 466.517C306.274 466.43 306.005 466.348 305.719 466.27C305.442 466.183 305.178 466.075 304.926 465.945C304.675 465.815 304.467 465.637 304.302 465.412C304.146 465.187 304.068 464.888 304.068 464.515C304.068 464.142 304.159 463.822 304.341 463.553C304.523 463.276 304.775 463.063 305.095 462.916C305.425 462.769 305.819 462.695 306.278 462.695C306.764 462.695 307.193 462.782 307.565 462.955C307.947 463.12 308.259 463.371 308.501 463.709L307.747 464.463C307.574 464.238 307.357 464.064 307.097 463.943C306.846 463.822 306.56 463.761 306.239 463.761C305.901 463.761 305.641 463.822 305.459 463.943C305.286 464.056 305.199 464.216 305.199 464.424C305.199 464.632 305.277 464.792 305.433 464.905C305.589 465.018 305.793 465.113 306.044 465.191C306.304 465.269 306.573 465.351 306.85 465.438C307.128 465.516 307.392 465.624 307.643 465.763C307.895 465.902 308.098 466.088 308.254 466.322C308.419 466.556 308.501 466.864 308.501 467.245C308.501 467.826 308.293 468.285 307.877 468.623C307.47 468.961 306.92 469.13 306.226 469.13ZM311.774 469.13C311.427 469.13 311.098 469.087 310.786 469C310.483 468.905 310.201 468.775 309.941 468.61C309.681 468.437 309.456 468.233 309.265 467.999L310.019 467.245C310.244 467.522 310.504 467.73 310.799 467.869C311.094 467.999 311.423 468.064 311.787 468.064C312.151 468.064 312.433 468.003 312.632 467.882C312.831 467.752 312.931 467.574 312.931 467.349C312.931 467.124 312.849 466.95 312.684 466.829C312.528 466.699 312.324 466.595 312.073 466.517C311.822 466.43 311.553 466.348 311.267 466.27C310.99 466.183 310.725 466.075 310.474 465.945C310.223 465.815 310.015 465.637 309.85 465.412C309.694 465.187 309.616 464.888 309.616 464.515C309.616 464.142 309.707 463.822 309.889 463.553C310.071 463.276 310.322 463.063 310.643 462.916C310.972 462.769 311.367 462.695 311.826 462.695C312.311 462.695 312.74 462.782 313.113 462.955C313.494 463.12 313.806 463.371 314.049 463.709L313.295 464.463C313.122 464.238 312.905 464.064 312.645 463.943C312.394 463.822 312.108 463.761 311.787 463.761C311.449 463.761 311.189 463.822 311.007 463.943C310.834 464.056 310.747 464.216 310.747 464.424C310.747 464.632 310.825 464.792 310.981 464.905C311.137 465.018 311.341 465.113 311.592 465.191C311.852 465.269 312.121 465.351 312.398 465.438C312.675 465.516 312.94 465.624 313.191 465.763C313.442 465.902 313.646 466.088 313.802 466.322C313.967 466.556 314.049 466.864 314.049 467.245C314.049 467.826 313.841 468.285 313.425 468.623C313.018 468.961 312.467 469.13 311.774 469.13ZM317.127 469L314.683 462.825H315.905L317.673 467.635H317.283L319.038 462.825H319.714L321.469 467.635H321.079L322.847 462.825H324.069L321.638 469H320.949L319.168 464.333H319.597L317.803 469H317.127ZM327.752 469.13C327.146 469.13 326.6 468.987 326.114 468.701C325.629 468.415 325.243 468.029 324.957 467.544C324.671 467.05 324.528 466.5 324.528 465.893C324.528 465.295 324.671 464.758 324.957 464.281C325.243 463.796 325.629 463.41 326.114 463.124C326.6 462.838 327.146 462.695 327.752 462.695C328.35 462.695 328.892 462.838 329.377 463.124C329.871 463.401 330.261 463.783 330.547 464.268C330.833 464.753 330.976 465.295 330.976 465.893C330.976 466.5 330.833 467.05 330.547 467.544C330.261 468.029 329.871 468.415 329.377 468.701C328.892 468.987 328.35 469.13 327.752 469.13ZM327.752 467.999C328.142 467.999 328.489 467.908 328.792 467.726C329.096 467.544 329.334 467.297 329.507 466.985C329.681 466.664 329.767 466.3 329.767 465.893C329.767 465.494 329.676 465.139 329.494 464.827C329.321 464.515 329.083 464.272 328.779 464.099C328.485 463.917 328.142 463.826 327.752 463.826C327.362 463.826 327.016 463.917 326.712 464.099C326.409 464.272 326.171 464.515 325.997 464.827C325.824 465.139 325.737 465.494 325.737 465.893C325.737 466.3 325.824 466.664 325.997 466.985C326.171 467.297 326.409 467.544 326.712 467.726C327.016 467.908 327.362 467.999 327.752 467.999ZM332.295 469V462.825H333.465V469H332.295ZM333.465 465.477L333.023 465.282C333.023 464.493 333.205 463.865 333.569 463.397C333.933 462.929 334.457 462.695 335.142 462.695C335.454 462.695 335.735 462.751 335.987 462.864C336.238 462.968 336.472 463.146 336.689 463.397L335.922 464.19C335.792 464.051 335.649 463.952 335.493 463.891C335.337 463.83 335.155 463.8 334.947 463.8C334.513 463.8 334.158 463.939 333.881 464.216C333.603 464.493 333.465 464.914 333.465 465.477ZM339.922 469.13C339.35 469.13 338.839 468.991 338.388 468.714C337.938 468.428 337.578 468.042 337.309 467.557C337.049 467.072 336.919 466.526 336.919 465.919C336.919 465.312 337.049 464.766 337.309 464.281C337.578 463.796 337.938 463.41 338.388 463.124C338.839 462.838 339.35 462.695 339.922 462.695C340.382 462.695 340.798 462.795 341.17 462.994C341.543 463.185 341.842 463.453 342.067 463.8C342.301 464.138 342.431 464.532 342.457 464.983V466.842C342.431 467.284 342.306 467.678 342.08 468.025C341.855 468.372 341.556 468.645 341.183 468.844C340.811 469.035 340.39 469.13 339.922 469.13ZM340.117 468.025C340.507 468.025 340.845 467.934 341.131 467.752C341.426 467.57 341.656 467.323 341.82 467.011C341.985 466.69 342.067 466.326 342.067 465.919C342.067 465.494 341.981 465.126 341.807 464.814C341.643 464.502 341.413 464.255 341.118 464.073C340.832 463.891 340.494 463.8 340.104 463.8C339.714 463.8 339.372 463.891 339.077 464.073C338.783 464.255 338.549 464.506 338.375 464.827C338.211 465.139 338.128 465.499 338.128 465.906C338.128 466.322 338.211 466.69 338.375 467.011C338.549 467.323 338.783 467.57 339.077 467.752C339.381 467.934 339.727 468.025 340.117 468.025ZM343.172 469H341.989V467.336L342.21 465.828L341.989 464.333V459.718H343.172V469ZM349.569 466.14L349.556 463.67L349.907 463.657C350.21 463.657 350.474 463.592 350.7 463.462C350.934 463.332 351.116 463.154 351.246 462.929C351.376 462.704 351.441 462.452 351.441 462.175C351.441 461.889 351.376 461.638 351.246 461.421C351.124 461.204 350.947 461.035 350.713 460.914C350.487 460.793 350.219 460.732 349.907 460.732C349.491 460.732 349.131 460.836 348.828 461.044C348.524 461.252 348.282 461.547 348.1 461.928L347.242 461.213C347.493 460.702 347.853 460.303 348.321 460.017C348.797 459.731 349.343 459.588 349.959 459.588C350.487 459.588 350.955 459.696 351.363 459.913C351.77 460.121 352.086 460.416 352.312 460.797C352.537 461.17 352.65 461.603 352.65 462.097C352.65 462.548 352.546 462.959 352.338 463.332C352.138 463.696 351.852 463.999 351.48 464.242C351.116 464.476 350.682 464.628 350.18 464.697L350.687 464.177L350.583 466.14H349.569ZM350.063 469.13C349.82 469.13 349.616 469.048 349.452 468.883C349.296 468.718 349.218 468.515 349.218 468.272C349.218 468.029 349.296 467.83 349.452 467.674C349.616 467.509 349.82 467.427 350.063 467.427C350.305 467.427 350.505 467.509 350.661 467.674C350.825 467.83 350.908 468.029 350.908 468.272C350.908 468.515 350.825 468.718 350.661 468.883C350.505 469.048 350.305 469.13 350.063 469.13Z" fill="black"></path>
<g filter="url(#filter0_d_180_300)">
<rect x="54" y="675" width="75" height="48" rx="8" fill="white"></rect>
</g>
<g filter="url(#filter1_d_180_300)">
<rect x="149" y="675" width="75" height="48" rx="8" fill="white"></rect>
</g>
<g filter="url(#filter2_d_180_300)">
<rect x="244" y="675" width="75" height="48" rx="8" fill="white"></rect>
</g>
<g clip-path="url(#clip2_180_300)">
<path d="M105.369 699.753C105.369 698.646 105.279 697.839 105.085 697.002H92.4536V701.995H99.868C99.7186 703.236 98.9114 705.104 97.1175 706.36L97.0924 706.527L101.086 709.621L101.363 709.648C103.904 707.302 105.369 703.848 105.369 699.753Z" fill="#BDBDBD"></path>
<path d="M92.4536 712.907C96.0861 712.907 99.1355 711.711 101.363 709.648L97.1175 706.36C95.9815 707.152 94.4567 707.705 92.4536 707.705C88.8959 707.705 85.8764 705.358 84.8 702.114L84.6422 702.128L80.4893 705.342L80.435 705.493C82.6474 709.888 87.1917 712.907 92.4536 712.907Z" fill="#BDBDBD"></path>
<path d="M84.8 702.114C84.5159 701.277 84.3516 700.38 84.3516 699.454C84.3516 698.527 84.5159 697.63 84.785 696.793L84.7775 696.614L80.5726 693.349L80.435 693.414C79.5232 695.238 79 697.286 79 699.454C79 701.621 79.5232 703.669 80.435 705.493L84.8 702.114Z" fill="#BDBDBD"></path>
<path d="M92.4536 691.202C94.9799 691.202 96.684 692.293 97.6557 693.205L101.453 689.498C99.1207 687.33 96.0861 686 92.4536 686C87.1917 686 82.6474 689.02 80.435 693.414L84.785 696.793C85.8764 693.549 88.8959 691.202 92.4536 691.202Z" fill="#BDBDBD"></path>
</g>
<path fill-rule="evenodd" clip-rule="evenodd" d="M197.565 712C198.358 712 199 711.407 199 710.675V689.325C199 688.593 198.357 688 197.565 688H174.435C173.642 688 173 688.593 173 689.325V710.675C173 711.407 173.642 712 174.435 712H197.565V712ZM190.94 712V702.706H194.319L194.825 699.084H190.939V696.771C190.939 695.723 191.255 695.008 192.884 695.008L194.962 695.007V691.768C194.603 691.723 193.369 691.625 191.934 691.625C188.938 691.625 186.887 693.313 186.887 696.413V699.084H183.499V702.706H186.887V712H190.94V712Z" fill="#BDBDBD"></path>
<path d="M45 635H150" stroke="#A39797" stroke-width="0.6"></path>
<path d="M238 635H343" stroke="#A39797" stroke-width="0.6"></path>
<path d="M158.776 637.12C158.184 637.12 157.632 637.012 157.12 636.796C156.608 636.572 156.16 636.264 155.776 635.872C155.392 635.472 155.092 635.012 154.876 634.492C154.668 633.972 154.564 633.416 154.564 632.824C154.564 632.224 154.668 631.668 154.876 631.156C155.092 630.636 155.388 630.18 155.764 629.788C156.148 629.396 156.592 629.092 157.096 628.876C157.608 628.66 158.16 628.552 158.752 628.552C159.344 628.552 159.892 628.66 160.396 628.876C160.908 629.092 161.356 629.396 161.74 629.788C162.124 630.18 162.424 630.636 162.64 631.156C162.856 631.676 162.964 632.236 162.964 632.836C162.964 633.428 162.856 633.984 162.64 634.504C162.424 635.024 162.124 635.48 161.74 635.872C161.364 636.264 160.92 636.572 160.408 636.796C159.904 637.012 159.36 637.12 158.776 637.12ZM158.752 636.04C159.352 636.04 159.876 635.904 160.324 635.632C160.78 635.352 161.14 634.972 161.404 634.492C161.668 634.004 161.8 633.448 161.8 632.824C161.8 632.36 161.724 631.936 161.572 631.552C161.42 631.16 161.208 630.82 160.936 630.532C160.664 630.244 160.344 630.024 159.976 629.872C159.608 629.712 159.2 629.632 158.752 629.632C158.16 629.632 157.636 629.768 157.18 630.04C156.732 630.312 156.376 630.688 156.112 631.168C155.856 631.648 155.728 632.2 155.728 632.824C155.728 633.288 155.8 633.72 155.944 634.12C156.096 634.512 156.304 634.852 156.568 635.14C156.84 635.42 157.16 635.64 157.528 635.8C157.904 635.96 158.312 636.04 158.752 636.04ZM164.319 637V631.3H165.399V637H164.319ZM165.399 633.748L164.991 633.568C164.991 632.84 165.159 632.26 165.495 631.828C165.831 631.396 166.315 631.18 166.947 631.18C167.235 631.18 167.495 631.232 167.727 631.336C167.959 631.432 168.175 631.596 168.375 631.828L167.667 632.56C167.547 632.432 167.415 632.34 167.271 632.284C167.127 632.228 166.959 632.2 166.767 632.2C166.367 632.2 166.039 632.328 165.783 632.584C165.527 632.84 165.399 633.228 165.399 633.748ZM173.655 637.12C173.335 637.12 173.031 637.08 172.743 637C172.463 636.912 172.203 636.792 171.963 636.64C171.723 636.48 171.515 636.292 171.339 636.076L172.035 635.38C172.243 635.636 172.483 635.828 172.755 635.956C173.027 636.076 173.331 636.136 173.667 636.136C174.003 636.136 174.263 636.08 174.447 635.968C174.631 635.848 174.723 635.684 174.723 635.476C174.723 635.268 174.647 635.108 174.495 634.996C174.351 634.876 174.163 634.78 173.931 634.708C173.699 634.628 173.451 634.552 173.187 634.48C172.931 634.4 172.687 634.3 172.455 634.18C172.223 634.06 172.031 633.896 171.879 633.688C171.735 633.48 171.663 633.204 171.663 632.86C171.663 632.516 171.747 632.22 171.915 631.972C172.083 631.716 172.315 631.52 172.611 631.384C172.915 631.248 173.279 631.18 173.703 631.18C174.151 631.18 174.547 631.26 174.891 631.42C175.243 631.572 175.531 631.804 175.755 632.116L175.059 632.812C174.899 632.604 174.699 632.444 174.459 632.332C174.227 632.22 173.963 632.164 173.667 632.164C173.355 632.164 173.115 632.22 172.947 632.332C172.787 632.436 172.707 632.584 172.707 632.776C172.707 632.968 172.779 633.116 172.923 633.22C173.067 633.324 173.255 633.412 173.487 633.484C173.727 633.556 173.975 633.632 174.231 633.712C174.487 633.784 174.731 633.884 174.963 634.012C175.195 634.14 175.383 634.312 175.527 634.528C175.679 634.744 175.755 635.028 175.755 635.38C175.755 635.916 175.563 636.34 175.179 636.652C174.803 636.964 174.295 637.12 173.655 637.12ZM176.976 637V631.3H178.056V637H176.976ZM177.516 630.16C177.316 630.16 177.152 630.096 177.024 629.968C176.896 629.832 176.832 629.664 176.832 629.464C176.832 629.272 176.896 629.112 177.024 628.984C177.152 628.848 177.316 628.78 177.516 628.78C177.716 628.78 177.88 628.848 178.008 628.984C178.136 629.112 178.2 629.272 178.2 629.464C178.2 629.664 178.136 629.832 178.008 629.968C177.88 630.096 177.716 630.16 177.516 630.16ZM182.011 639.508C181.427 639.508 180.907 639.4 180.451 639.184C180.003 638.968 179.643 638.664 179.371 638.272L180.067 637.564C180.299 637.86 180.575 638.084 180.895 638.236C181.215 638.396 181.595 638.476 182.035 638.476C182.619 638.476 183.079 638.32 183.415 638.008C183.759 637.704 183.931 637.292 183.931 636.772V635.356L184.123 634.072L183.931 632.8V631.3H185.011V636.772C185.011 637.316 184.883 637.792 184.627 638.2C184.379 638.608 184.027 638.928 183.571 639.16C183.123 639.392 182.603 639.508 182.011 639.508ZM182.011 636.904C181.491 636.904 181.023 636.78 180.607 636.532C180.199 636.284 179.875 635.944 179.635 635.512C179.395 635.072 179.275 634.58 179.275 634.036C179.275 633.492 179.395 633.008 179.635 632.584C179.875 632.152 180.199 631.812 180.607 631.564C181.023 631.308 181.491 631.18 182.011 631.18C182.459 631.18 182.855 631.268 183.199 631.444C183.543 631.62 183.815 631.868 184.015 632.188C184.223 632.5 184.335 632.868 184.351 633.292V634.804C184.327 635.22 184.211 635.588 184.003 635.908C183.803 636.22 183.531 636.464 183.187 636.64C182.843 636.816 182.451 636.904 182.011 636.904ZM182.227 635.884C182.579 635.884 182.887 635.808 183.151 635.656C183.423 635.504 183.631 635.292 183.775 635.02C183.919 634.74 183.991 634.416 183.991 634.048C183.991 633.68 183.915 633.36 183.763 633.088C183.619 632.808 183.415 632.592 183.151 632.44C182.887 632.28 182.575 632.2 182.215 632.2C181.855 632.2 181.539 632.28 181.267 632.44C180.995 632.592 180.779 632.808 180.619 633.088C180.467 633.36 180.391 633.676 180.391 634.036C180.391 634.396 180.467 634.716 180.619 634.996C180.779 635.276 180.995 635.496 181.267 635.656C181.547 635.808 181.867 635.884 182.227 635.884ZM190.629 637V633.676C190.629 633.244 190.493 632.888 190.221 632.608C189.949 632.328 189.597 632.188 189.165 632.188C188.877 632.188 188.621 632.252 188.397 632.38C188.173 632.508 187.997 632.684 187.869 632.908C187.741 633.132 187.677 633.388 187.677 633.676L187.233 633.424C187.233 632.992 187.329 632.608 187.521 632.272C187.713 631.936 187.981 631.672 188.325 631.48C188.669 631.28 189.057 631.18 189.489 631.18C189.921 631.18 190.301 631.288 190.629 631.504C190.965 631.72 191.229 632.004 191.421 632.356C191.613 632.7 191.709 633.068 191.709 633.46V637H190.629ZM186.597 637V631.3H187.677V637H186.597ZM197.971 637.12C197.499 637.12 197.075 637.016 196.699 636.808C196.331 636.592 196.043 636.296 195.835 635.92C195.627 635.544 195.523 635.108 195.523 634.612V631.3H196.603V634.564C196.603 634.876 196.655 635.148 196.759 635.38C196.871 635.604 197.031 635.776 197.239 635.896C197.447 636.016 197.691 636.076 197.971 636.076C198.395 636.076 198.727 635.944 198.967 635.68C199.207 635.408 199.327 635.036 199.327 634.564V631.3H200.407V634.612C200.407 635.108 200.303 635.544 200.095 635.92C199.887 636.296 199.599 636.592 199.231 636.808C198.871 637.016 198.451 637.12 197.971 637.12ZM204.855 637.12C204.423 637.12 204.031 637.032 203.679 636.856C203.335 636.672 203.059 636.42 202.851 636.1C202.643 635.78 202.527 635.416 202.503 635.008V633.292C202.527 632.876 202.643 632.512 202.851 632.2C203.067 631.88 203.347 631.632 203.691 631.456C204.043 631.272 204.431 631.18 204.855 631.18C205.375 631.18 205.843 631.312 206.259 631.576C206.683 631.84 207.015 632.196 207.255 632.644C207.495 633.092 207.615 633.596 207.615 634.156C207.615 634.716 207.495 635.22 207.255 635.668C207.015 636.116 206.683 636.472 206.259 636.736C205.843 636.992 205.375 637.12 204.855 637.12ZM204.675 636.1C205.035 636.1 205.351 636.016 205.623 635.848C205.895 635.68 206.111 635.452 206.271 635.164C206.431 634.868 206.511 634.528 206.511 634.144C206.511 633.768 206.431 633.432 206.271 633.136C206.111 632.84 205.895 632.612 205.623 632.452C205.351 632.284 205.039 632.2 204.687 632.2C204.327 632.2 204.011 632.284 203.739 632.452C203.467 632.612 203.255 632.84 203.103 633.136C202.951 633.432 202.875 633.772 202.875 634.156C202.875 634.532 202.947 634.868 203.091 635.164C203.243 635.452 203.455 635.68 203.727 635.848C204.007 636.016 204.323 636.1 204.675 636.1ZM201.854 639.388V631.3H202.935V632.8L202.731 634.18L202.935 635.572V639.388H201.854ZM212.967 637L210.711 631.3H211.839L213.471 635.74H213.111L214.731 631.3H215.355L216.975 635.74H216.615L218.247 631.3H219.375L217.131 637H216.495L214.851 632.692H215.247L213.591 637H212.967ZM220.253 637V631.3H221.333V637H220.253ZM220.793 630.16C220.593 630.16 220.429 630.096 220.301 629.968C220.173 629.832 220.109 629.664 220.109 629.464C220.109 629.272 220.173 629.112 220.301 628.984C220.429 628.848 220.593 628.78 220.793 628.78C220.993 628.78 221.157 628.848 221.285 628.984C221.413 629.112 221.477 629.272 221.477 629.464C221.477 629.664 221.413 629.832 221.285 629.968C221.157 630.096 220.993 630.16 220.793 630.16ZM223.801 637V628.912H224.881V637H223.801ZM222.397 632.284V631.3H226.285V632.284H222.397ZM231.375 637V633.676C231.375 633.244 231.239 632.888 230.967 632.608C230.695 632.328 230.343 632.188 229.911 632.188C229.623 632.188 229.367 632.252 229.143 632.38C228.919 632.508 228.743 632.684 228.615 632.908C228.487 633.132 228.423 633.388 228.423 633.676L227.979 633.424C227.979 632.992 228.075 632.608 228.267 632.272C228.459 631.936 228.727 631.672 229.071 631.48C229.415 631.28 229.803 631.18 230.235 631.18C230.667 631.18 231.047 631.276 231.375 631.468C231.711 631.66 231.975 631.928 232.167 632.272C232.359 632.616 232.455 633.012 232.455 633.46V637H231.375ZM227.343 637V628.432H228.423V637H227.343Z" fill="#757171"></path>
<path d="M92.066 789V779.978H92.924L93.288 781.395V789H92.066ZM98.306 789L92.768 781.603L92.924 779.978L98.475 787.362L98.306 789ZM98.306 789L97.942 787.661V779.978H99.164V789H98.306ZM103.908 789.13C103.302 789.13 102.756 788.987 102.27 788.701C101.785 788.415 101.399 788.029 101.113 787.544C100.827 787.05 100.684 786.5 100.684 785.893C100.684 785.295 100.827 784.758 101.113 784.281C101.399 783.796 101.785 783.41 102.27 783.124C102.756 782.838 103.302 782.695 103.908 782.695C104.506 782.695 105.048 782.838 105.533 783.124C106.027 783.401 106.417 783.783 106.703 784.268C106.989 784.753 107.132 785.295 107.132 785.893C107.132 786.5 106.989 787.05 106.703 787.544C106.417 788.029 106.027 788.415 105.533 788.701C105.048 788.987 104.506 789.13 103.908 789.13ZM103.908 787.999C104.298 787.999 104.645 787.908 104.948 787.726C105.252 787.544 105.49 787.297 105.663 786.985C105.837 786.664 105.923 786.3 105.923 785.893C105.923 785.494 105.832 785.139 105.65 784.827C105.477 784.515 105.239 784.272 104.935 784.099C104.641 783.917 104.298 783.826 103.908 783.826C103.518 783.826 103.172 783.917 102.868 784.099C102.565 784.272 102.327 784.515 102.153 784.827C101.98 785.139 101.893 785.494 101.893 785.893C101.893 786.3 101.98 786.664 102.153 786.985C102.327 787.297 102.565 787.544 102.868 787.726C103.172 787.908 103.518 787.999 103.908 787.999ZM109.209 789V780.238H110.379V789H109.209ZM107.688 783.891V782.825H111.9V783.891H107.688ZM115.751 789V782.825H116.921V789H115.751ZM116.921 785.477L116.479 785.282C116.479 784.493 116.661 783.865 117.025 783.397C117.389 782.929 117.913 782.695 118.598 782.695C118.91 782.695 119.191 782.751 119.443 782.864C119.694 782.968 119.928 783.146 120.145 783.397L119.378 784.19C119.248 784.051 119.105 783.952 118.949 783.891C118.793 783.83 118.611 783.8 118.403 783.8C117.969 783.8 117.614 783.939 117.337 784.216C117.059 784.493 116.921 784.914 116.921 785.477ZM123.625 789.13C123.01 789.13 122.455 788.991 121.961 788.714C121.467 788.428 121.077 788.042 120.791 787.557C120.505 787.072 120.362 786.521 120.362 785.906C120.362 785.299 120.501 784.753 120.778 784.268C121.064 783.783 121.446 783.401 121.922 783.124C122.408 782.838 122.949 782.695 123.547 782.695C124.119 782.695 124.622 782.825 125.055 783.085C125.497 783.345 125.84 783.705 126.082 784.164C126.334 784.623 126.459 785.143 126.459 785.724C126.459 785.811 126.455 785.906 126.446 786.01C126.438 786.105 126.42 786.218 126.394 786.348H121.181V785.373H125.77L125.341 785.75C125.341 785.334 125.268 784.983 125.12 784.697C124.973 784.402 124.765 784.177 124.496 784.021C124.228 783.856 123.903 783.774 123.521 783.774C123.123 783.774 122.772 783.861 122.468 784.034C122.165 784.207 121.931 784.45 121.766 784.762C121.602 785.074 121.519 785.442 121.519 785.867C121.519 786.3 121.606 786.682 121.779 787.011C121.953 787.332 122.2 787.583 122.52 787.765C122.841 787.938 123.209 788.025 123.625 788.025C123.972 788.025 124.288 787.964 124.574 787.843C124.869 787.722 125.12 787.54 125.328 787.297L126.082 788.064C125.788 788.411 125.424 788.675 124.99 788.857C124.566 789.039 124.111 789.13 123.625 789.13ZM130.296 791.717C129.663 791.717 129.1 791.6 128.606 791.366C128.121 791.132 127.731 790.803 127.436 790.378L128.19 789.611C128.441 789.932 128.74 790.174 129.087 790.339C129.434 790.512 129.845 790.599 130.322 790.599C130.955 790.599 131.453 790.43 131.817 790.092C132.19 789.763 132.376 789.316 132.376 788.753V787.219L132.584 785.828L132.376 784.45V782.825H133.546V788.753C133.546 789.342 133.407 789.858 133.13 790.3C132.861 790.742 132.48 791.089 131.986 791.34C131.501 791.591 130.937 791.717 130.296 791.717ZM130.296 788.896C129.733 788.896 129.226 788.762 128.775 788.493C128.333 788.224 127.982 787.856 127.722 787.388C127.462 786.911 127.332 786.378 127.332 785.789C127.332 785.2 127.462 784.675 127.722 784.216C127.982 783.748 128.333 783.38 128.775 783.111C129.226 782.834 129.733 782.695 130.296 782.695C130.781 782.695 131.21 782.79 131.583 782.981C131.956 783.172 132.25 783.44 132.467 783.787C132.692 784.125 132.814 784.524 132.831 784.983V786.621C132.805 787.072 132.679 787.47 132.454 787.817C132.237 788.155 131.943 788.419 131.57 788.61C131.197 788.801 130.773 788.896 130.296 788.896ZM130.53 787.791C130.911 787.791 131.245 787.709 131.531 787.544C131.826 787.379 132.051 787.15 132.207 786.855C132.363 786.552 132.441 786.201 132.441 785.802C132.441 785.403 132.359 785.057 132.194 784.762C132.038 784.459 131.817 784.225 131.531 784.06C131.245 783.887 130.907 783.8 130.517 783.8C130.127 783.8 129.785 783.887 129.49 784.06C129.195 784.225 128.961 784.459 128.788 784.762C128.623 785.057 128.541 785.399 128.541 785.789C128.541 786.179 128.623 786.526 128.788 786.829C128.961 787.132 129.195 787.371 129.49 787.544C129.793 787.709 130.14 787.791 130.53 787.791ZM135.276 789V782.825H136.446V789H135.276ZM135.861 781.59C135.645 781.59 135.467 781.521 135.328 781.382C135.19 781.235 135.12 781.053 135.12 780.836C135.12 780.628 135.19 780.455 135.328 780.316C135.467 780.169 135.645 780.095 135.861 780.095C136.078 780.095 136.256 780.169 136.394 780.316C136.533 780.455 136.602 780.628 136.602 780.836C136.602 781.053 136.533 781.235 136.394 781.382C136.256 781.521 136.078 781.59 135.861 781.59ZM140.134 789.13C139.787 789.13 139.458 789.087 139.146 789C138.842 788.905 138.561 788.775 138.301 788.61C138.041 788.437 137.815 788.233 137.625 787.999L138.379 787.245C138.604 787.522 138.864 787.73 139.159 787.869C139.453 787.999 139.783 788.064 140.147 788.064C140.511 788.064 140.792 788.003 140.992 787.882C141.191 787.752 141.291 787.574 141.291 787.349C141.291 787.124 141.208 786.95 141.044 786.829C140.888 786.699 140.684 786.595 140.433 786.517C140.181 786.43 139.913 786.348 139.627 786.27C139.349 786.183 139.085 786.075 138.834 785.945C138.582 785.815 138.374 785.637 138.21 785.412C138.054 785.187 137.976 784.888 137.976 784.515C137.976 784.142 138.067 783.822 138.249 783.553C138.431 783.276 138.682 783.063 139.003 782.916C139.332 782.769 139.726 782.695 140.186 782.695C140.671 782.695 141.1 782.782 141.473 782.955C141.854 783.12 142.166 783.371 142.409 783.709L141.655 784.463C141.481 784.238 141.265 784.064 141.005 783.943C140.753 783.822 140.467 783.761 140.147 783.761C139.809 783.761 139.549 783.822 139.367 783.943C139.193 784.056 139.107 784.216 139.107 784.424C139.107 784.632 139.185 784.792 139.341 784.905C139.497 785.018 139.7 785.113 139.952 785.191C140.212 785.269 140.48 785.351 140.758 785.438C141.035 785.516 141.299 785.624 141.551 785.763C141.802 785.902 142.006 786.088 142.162 786.322C142.326 786.556 142.409 786.864 142.409 787.245C142.409 787.826 142.201 788.285 141.785 788.623C141.377 788.961 140.827 789.13 140.134 789.13ZM144.667 789V780.238H145.837V789H144.667ZM143.146 783.891V782.825H147.358V783.891H143.146ZM151.174 789.13C150.559 789.13 150.004 788.991 149.51 788.714C149.016 788.428 148.626 788.042 148.34 787.557C148.054 787.072 147.911 786.521 147.911 785.906C147.911 785.299 148.05 784.753 148.327 784.268C148.613 783.783 148.994 783.401 149.471 783.124C149.956 782.838 150.498 782.695 151.096 782.695C151.668 782.695 152.171 782.825 152.604 783.085C153.046 783.345 153.388 783.705 153.631 784.164C153.882 784.623 154.008 785.143 154.008 785.724C154.008 785.811 154.004 785.906 153.995 786.01C153.986 786.105 153.969 786.218 153.943 786.348H148.73V785.373H153.319L152.89 785.75C152.89 785.334 152.816 784.983 152.669 784.697C152.522 784.402 152.314 784.177 152.045 784.021C151.776 783.856 151.451 783.774 151.07 783.774C150.671 783.774 150.32 783.861 150.017 784.034C149.714 784.207 149.48 784.45 149.315 784.762C149.15 785.074 149.068 785.442 149.068 785.867C149.068 786.3 149.155 786.682 149.328 787.011C149.501 787.332 149.748 787.583 150.069 787.765C150.39 787.938 150.758 788.025 151.174 788.025C151.521 788.025 151.837 787.964 152.123 787.843C152.418 787.722 152.669 787.54 152.877 787.297L153.631 788.064C153.336 788.411 152.972 788.675 152.539 788.857C152.114 789.039 151.659 789.13 151.174 789.13ZM155.284 789V782.825H156.454V789H155.284ZM156.454 785.477L156.012 785.282C156.012 784.493 156.194 783.865 156.558 783.397C156.922 782.929 157.446 782.695 158.131 782.695C158.443 782.695 158.724 782.751 158.976 782.864C159.227 782.968 159.461 783.146 159.678 783.397L158.911 784.19C158.781 784.051 158.638 783.952 158.482 783.891C158.326 783.83 158.144 783.8 157.936 783.8C157.502 783.8 157.147 783.939 156.87 784.216C156.592 784.493 156.454 784.914 156.454 785.477ZM165.462 789.052L162.784 782.825H164.084L166.073 787.7H165.657L167.75 782.825H169.05L166.164 789.052H165.462ZM163.694 791.587L165.514 787.856L166.164 789.052L164.994 791.587H163.694ZM172.629 789.13C172.014 789.13 171.459 788.991 170.965 788.714C170.471 788.428 170.081 788.042 169.795 787.557C169.509 787.072 169.366 786.521 169.366 785.906C169.366 785.299 169.505 784.753 169.782 784.268C170.068 783.783 170.449 783.401 170.926 783.124C171.411 782.838 171.953 782.695 172.551 782.695C173.123 782.695 173.626 782.825 174.059 783.085C174.501 783.345 174.843 783.705 175.086 784.164C175.337 784.623 175.463 785.143 175.463 785.724C175.463 785.811 175.459 785.906 175.45 786.01C175.441 786.105 175.424 786.218 175.398 786.348H170.185V785.373H174.774L174.345 785.75C174.345 785.334 174.271 784.983 174.124 784.697C173.977 784.402 173.769 784.177 173.5 784.021C173.231 783.856 172.906 783.774 172.525 783.774C172.126 783.774 171.775 783.861 171.472 784.034C171.169 784.207 170.935 784.45 170.77 784.762C170.605 785.074 170.523 785.442 170.523 785.867C170.523 786.3 170.61 786.682 170.783 787.011C170.956 787.332 171.203 787.583 171.524 787.765C171.845 787.938 172.213 788.025 172.629 788.025C172.976 788.025 173.292 787.964 173.578 787.843C173.873 787.722 174.124 787.54 174.332 787.297L175.086 788.064C174.791 788.411 174.427 788.675 173.994 788.857C173.569 789.039 173.114 789.13 172.629 789.13ZM177.497 789V780.238H178.667V789H177.497ZM175.976 783.891V782.825H180.188V783.891H175.976ZM186.028 786.14L186.015 783.67L186.366 783.657C186.669 783.657 186.933 783.592 187.159 783.462C187.393 783.332 187.575 783.154 187.705 782.929C187.835 782.704 187.9 782.452 187.9 782.175C187.9 781.889 187.835 781.638 187.705 781.421C187.583 781.204 187.406 781.035 187.172 780.914C186.946 780.793 186.678 780.732 186.366 780.732C185.95 780.732 185.59 780.836 185.287 781.044C184.983 781.252 184.741 781.547 184.559 781.928L183.701 781.213C183.952 780.702 184.312 780.303 184.78 780.017C185.256 779.731 185.802 779.588 186.418 779.588C186.946 779.588 187.414 779.696 187.822 779.913C188.229 780.121 188.545 780.416 188.771 780.797C188.996 781.17 189.109 781.603 189.109 782.097C189.109 782.548 189.005 782.959 188.797 783.332C188.597 783.696 188.311 783.999 187.939 784.242C187.575 784.476 187.141 784.628 186.639 784.697L187.146 784.177L187.042 786.14H186.028ZM186.522 789.13C186.279 789.13 186.075 789.048 185.911 788.883C185.755 788.718 185.677 788.515 185.677 788.272C185.677 788.029 185.755 787.83 185.911 787.674C186.075 787.509 186.279 787.427 186.522 787.427C186.764 787.427 186.964 787.509 187.12 787.674C187.284 787.83 187.367 788.029 187.367 788.272C187.367 788.515 187.284 788.718 187.12 788.883C186.964 789.048 186.764 789.13 186.522 789.13Z" fill="#636363"></path>
<path d="M197.622 789.13C196.955 789.13 196.335 789.013 195.763 788.779C195.191 788.536 194.689 788.203 194.255 787.778C193.831 787.345 193.501 786.842 193.267 786.27C193.042 785.698 192.929 785.083 192.929 784.424C192.929 783.765 193.042 783.15 193.267 782.578C193.501 782.006 193.831 781.508 194.255 781.083C194.689 780.658 195.187 780.325 195.75 780.082C196.322 779.839 196.946 779.718 197.622 779.718C198.35 779.718 198.992 779.839 199.546 780.082C200.101 780.316 200.591 780.641 201.015 781.057L199.819 782.253C199.568 781.976 199.26 781.759 198.896 781.603C198.532 781.447 198.108 781.369 197.622 781.369C197.198 781.369 196.808 781.443 196.452 781.59C196.106 781.729 195.802 781.937 195.542 782.214C195.282 782.483 195.083 782.808 194.944 783.189C194.806 783.562 194.736 783.973 194.736 784.424C194.736 784.883 194.806 785.299 194.944 785.672C195.083 786.045 195.282 786.37 195.542 786.647C195.802 786.916 196.106 787.124 196.452 787.271C196.808 787.418 197.198 787.492 197.622 787.492C198.134 787.492 198.571 787.414 198.935 787.258C199.308 787.102 199.62 786.881 199.871 786.595L201.067 787.791C200.643 788.216 200.149 788.545 199.585 788.779C199.022 789.013 198.368 789.13 197.622 789.13ZM202.114 789V782.721H203.817V789H202.114ZM203.817 785.529L203.154 785.087C203.232 784.316 203.458 783.709 203.83 783.267C204.203 782.816 204.74 782.591 205.442 782.591C205.746 782.591 206.019 782.643 206.261 782.747C206.504 782.842 206.725 783.003 206.924 783.228L205.858 784.45C205.763 784.346 205.646 784.268 205.507 784.216C205.377 784.164 205.226 784.138 205.052 784.138C204.688 784.138 204.389 784.255 204.155 784.489C203.93 784.714 203.817 785.061 203.817 785.529ZM210.348 789.13C209.689 789.13 209.104 788.991 208.593 788.714C208.081 788.428 207.674 788.038 207.371 787.544C207.076 787.05 206.929 786.487 206.929 785.854C206.929 785.23 207.072 784.675 207.358 784.19C207.652 783.696 208.051 783.306 208.554 783.02C209.056 782.725 209.615 782.578 210.231 782.578C210.837 782.578 211.37 782.717 211.83 782.994C212.298 783.263 212.662 783.635 212.922 784.112C213.19 784.58 213.325 785.113 213.325 785.711C213.325 785.824 213.316 785.941 213.299 786.062C213.29 786.175 213.268 786.305 213.234 786.452L207.956 786.465V785.191L212.441 785.178L211.752 785.711C211.734 785.338 211.665 785.026 211.544 784.775C211.431 784.524 211.262 784.333 211.037 784.203C210.82 784.064 210.551 783.995 210.231 783.995C209.893 783.995 209.598 784.073 209.347 784.229C209.095 784.376 208.9 784.589 208.762 784.866C208.632 785.135 208.567 785.455 208.567 785.828C208.567 786.209 208.636 786.543 208.775 786.829C208.922 787.106 209.13 787.323 209.399 787.479C209.667 787.626 209.979 787.7 210.335 787.7C210.655 787.7 210.946 787.648 211.206 787.544C211.466 787.431 211.691 787.267 211.882 787.05L212.883 788.051C212.579 788.406 212.207 788.675 211.765 788.857C211.331 789.039 210.859 789.13 210.348 789.13ZM217.004 789.13C216.432 789.13 215.916 788.987 215.457 788.701C214.998 788.415 214.638 788.025 214.378 787.531C214.118 787.037 213.988 786.482 213.988 785.867C213.988 785.243 214.118 784.684 214.378 784.19C214.638 783.696 214.998 783.306 215.457 783.02C215.916 782.734 216.432 782.591 217.004 782.591C217.455 782.591 217.858 782.682 218.213 782.864C218.568 783.046 218.85 783.302 219.058 783.631C219.275 783.952 219.392 784.316 219.409 784.723V786.985C219.392 787.401 219.275 787.769 219.058 788.09C218.85 788.411 218.568 788.666 218.213 788.857C217.858 789.039 217.455 789.13 217.004 789.13ZM217.316 787.557C217.793 787.557 218.178 787.401 218.473 787.089C218.768 786.768 218.915 786.357 218.915 785.854C218.915 785.525 218.846 785.234 218.707 784.983C218.577 784.723 218.391 784.524 218.148 784.385C217.914 784.238 217.637 784.164 217.316 784.164C217.004 784.164 216.727 784.238 216.484 784.385C216.25 784.524 216.064 784.723 215.925 784.983C215.795 785.234 215.73 785.525 215.73 785.854C215.73 786.192 215.795 786.491 215.925 786.751C216.064 787.002 216.25 787.202 216.484 787.349C216.727 787.488 217.004 787.557 217.316 787.557ZM218.824 789V787.31L219.097 785.776L218.824 784.268V782.721H220.514V789H218.824ZM222.944 789V780.108H224.647V789H222.944ZM221.475 784.216V782.721H226.116V784.216H221.475ZM229.924 789.13C229.265 789.13 228.68 788.991 228.169 788.714C227.658 788.428 227.25 788.038 226.947 787.544C226.652 787.05 226.505 786.487 226.505 785.854C226.505 785.23 226.648 784.675 226.934 784.19C227.229 783.696 227.627 783.306 228.13 783.02C228.633 782.725 229.192 782.578 229.807 782.578C230.414 782.578 230.947 782.717 231.406 782.994C231.874 783.263 232.238 783.635 232.498 784.112C232.767 784.58 232.901 785.113 232.901 785.711C232.901 785.824 232.892 785.941 232.875 786.062C232.866 786.175 232.845 786.305 232.81 786.452L227.532 786.465V785.191L232.017 785.178L231.328 785.711C231.311 785.338 231.241 785.026 231.12 784.775C231.007 784.524 230.838 784.333 230.613 784.203C230.396 784.064 230.128 783.995 229.807 783.995C229.469 783.995 229.174 784.073 228.923 784.229C228.672 784.376 228.477 784.589 228.338 784.866C228.208 785.135 228.143 785.455 228.143 785.828C228.143 786.209 228.212 786.543 228.351 786.829C228.498 787.106 228.706 787.323 228.975 787.479C229.244 787.626 229.556 787.7 229.911 787.7C230.232 787.7 230.522 787.648 230.782 787.544C231.042 787.431 231.267 787.267 231.458 787.05L232.459 788.051C232.156 788.406 231.783 788.675 231.341 788.857C230.908 789.039 230.435 789.13 229.924 789.13ZM235.631 789L239.31 779.861H240.753L244.419 789H242.534L239.7 781.499H240.35L237.477 789H235.631ZM237.581 787.297V785.815H242.495V787.297H237.581ZM248.039 789.13C247.398 789.13 246.822 788.987 246.31 788.701C245.799 788.415 245.396 788.025 245.101 787.531C244.807 787.037 244.659 786.482 244.659 785.867C244.659 785.243 244.807 784.684 245.101 784.19C245.396 783.696 245.799 783.306 246.31 783.02C246.83 782.725 247.407 782.578 248.039 782.578C248.533 782.578 248.988 782.669 249.404 782.851C249.82 783.033 250.18 783.293 250.483 783.631L249.391 784.736C249.227 784.554 249.027 784.415 248.793 784.32C248.568 784.225 248.317 784.177 248.039 784.177C247.727 784.177 247.446 784.251 247.194 784.398C246.952 784.537 246.757 784.732 246.609 784.983C246.471 785.226 246.401 785.516 246.401 785.854C246.401 786.183 246.471 786.478 246.609 786.738C246.757 786.989 246.952 787.189 247.194 787.336C247.446 787.475 247.727 787.544 248.039 787.544C248.325 787.544 248.581 787.496 248.806 787.401C249.04 787.297 249.24 787.15 249.404 786.959L250.509 788.064C250.189 788.411 249.82 788.675 249.404 788.857C248.988 789.039 248.533 789.13 248.039 789.13ZM254.298 789.13C253.657 789.13 253.08 788.987 252.569 788.701C252.058 788.415 251.655 788.025 251.36 787.531C251.065 787.037 250.918 786.482 250.918 785.867C250.918 785.243 251.065 784.684 251.36 784.19C251.655 783.696 252.058 783.306 252.569 783.02C253.089 782.725 253.665 782.578 254.298 782.578C254.792 782.578 255.247 782.669 255.663 782.851C256.079 783.033 256.439 783.293 256.742 783.631L255.65 784.736C255.485 784.554 255.286 784.415 255.052 784.32C254.827 784.225 254.575 784.177 254.298 784.177C253.986 784.177 253.704 784.251 253.453 784.398C253.21 784.537 253.015 784.732 252.868 784.983C252.729 785.226 252.66 785.516 252.66 785.854C252.66 786.183 252.729 786.478 252.868 786.738C253.015 786.989 253.21 787.189 253.453 787.336C253.704 787.475 253.986 787.544 254.298 787.544C254.584 787.544 254.84 787.496 255.065 787.401C255.299 787.297 255.498 787.15 255.663 786.959L256.768 788.064C256.447 788.411 256.079 788.675 255.663 788.857C255.247 789.039 254.792 789.13 254.298 789.13ZM260.544 789.13C259.911 789.13 259.339 788.987 258.828 788.701C258.325 788.406 257.922 788.012 257.619 787.518C257.324 787.015 257.177 786.456 257.177 785.841C257.177 785.226 257.324 784.675 257.619 784.19C257.914 783.696 258.317 783.306 258.828 783.02C259.339 782.725 259.907 782.578 260.531 782.578C261.172 782.578 261.744 782.725 262.247 783.02C262.758 783.306 263.161 783.696 263.456 784.19C263.751 784.675 263.898 785.226 263.898 785.841C263.898 786.456 263.751 787.015 263.456 787.518C263.161 788.012 262.758 788.406 262.247 788.701C261.744 788.987 261.177 789.13 260.544 789.13ZM260.531 787.544C260.852 787.544 261.133 787.475 261.376 787.336C261.627 787.189 261.818 786.989 261.948 786.738C262.087 786.478 262.156 786.183 262.156 785.854C262.156 785.525 262.087 785.234 261.948 784.983C261.809 784.732 261.619 784.537 261.376 784.398C261.133 784.251 260.852 784.177 260.531 784.177C260.219 784.177 259.942 784.251 259.699 784.398C259.456 784.537 259.266 784.732 259.127 784.983C258.988 785.234 258.919 785.525 258.919 785.854C258.919 786.183 258.988 786.478 259.127 786.738C259.266 786.989 259.456 787.189 259.699 787.336C259.942 787.475 260.219 787.544 260.531 787.544ZM267.672 789.13C267.118 789.13 266.624 789.013 266.19 788.779C265.766 788.545 265.432 788.22 265.189 787.804C264.947 787.388 264.825 786.907 264.825 786.361V782.721H266.541V786.322C266.541 786.582 266.585 786.807 266.671 786.998C266.758 787.18 266.888 787.319 267.061 787.414C267.235 787.509 267.438 787.557 267.672 787.557C268.028 787.557 268.305 787.449 268.504 787.232C268.704 787.015 268.803 786.712 268.803 786.322V782.721H270.506V786.361C270.506 786.916 270.385 787.401 270.142 787.817C269.908 788.233 269.575 788.558 269.141 788.792C268.717 789.017 268.227 789.13 267.672 789.13ZM276.087 789V785.399C276.087 785.026 275.97 784.723 275.736 784.489C275.502 784.255 275.199 784.138 274.826 784.138C274.584 784.138 274.367 784.19 274.176 784.294C273.986 784.398 273.834 784.545 273.721 784.736C273.617 784.927 273.565 785.148 273.565 785.399L272.902 785.061C272.902 784.567 273.006 784.138 273.214 783.774C273.431 783.401 273.726 783.111 274.098 782.903C274.48 782.695 274.909 782.591 275.385 782.591C275.845 782.591 276.256 782.708 276.62 782.942C276.984 783.167 277.27 783.466 277.478 783.839C277.686 784.203 277.79 784.597 277.79 785.022V789H276.087ZM271.862 789V782.721H273.565V789H271.862ZM280.009 789V780.108H281.712V789H280.009ZM278.54 784.216V782.721H283.181V784.216H278.54Z" fill="#8CC63E"></path>
<path d="M291.394 699.74C291.382 697.609 292.352 696.001 294.316 694.817C293.217 693.256 291.557 692.397 289.366 692.228C287.291 692.066 285.023 693.43 284.193 693.43C283.316 693.43 281.306 692.286 279.727 692.286C276.466 692.339 273 694.869 273 700.018C273 701.539 273.281 703.112 273.842 704.732C274.59 706.862 277.29 712.086 280.107 711.999C281.58 711.964 282.621 710.96 284.538 710.96C286.396 710.96 287.361 711.999 289.003 711.999C291.844 711.958 294.287 707.21 295 705.074C291.189 703.292 291.394 699.85 291.394 699.74ZM288.086 690.208C289.681 688.328 289.535 686.615 289.488 686C288.08 686.081 286.449 686.952 285.52 688.026C284.497 689.175 283.895 690.597 284.023 692.199C285.549 692.315 286.94 691.538 288.086 690.208Z" fill="#BDBDBD"></path>
<path opacity="0.35" d="M337.667 17.8334H354.333C355.53 17.8334 356.5 18.8037 356.5 20.0004V26.0004C356.5 27.1968 355.53 28.1664 354.333 28.1664H337.667C336.47 28.1664 335.5 27.1968 335.5 26.0004V20.0004L335.511 19.7787C335.622 18.686 336.545 17.8334 337.667 17.8334Z" stroke="black"></path>
<path opacity="0.4" d="M358 21V25C358.805 24.6612 359.328 23.8731 359.328 23C359.328 22.1269 358.805 21.3388 358 21Z" fill="black"></path>
<path d="M337 20.4334C337 19.8259 337.492 19.3334 338.1 19.3334H353.9C354.508 19.3334 355 19.8259 355 20.4334V25.5667C355 26.1742 354.508 26.6667 353.9 26.6667H338.1C337.492 26.6667 337 26.1742 337 25.5667V20.4334Z" fill="black"></path>
<path fill-rule="evenodd" clip-rule="evenodd" d="M322.33 19.608C324.546 19.6081 326.678 20.4596 328.283 21.9863C328.404 22.1042 328.598 22.1027 328.717 21.983L329.873 20.8163C329.933 20.7556 329.967 20.6734 329.966 20.5878C329.966 20.5022 329.931 20.4204 329.87 20.3603C325.655 16.3208 319.005 16.3208 314.79 20.3603C314.729 20.4203 314.694 20.5021 314.694 20.5877C314.693 20.6733 314.727 20.7556 314.787 20.8163L315.943 21.983C316.062 22.1029 316.256 22.1044 316.377 21.9863C317.983 20.4595 320.114 19.608 322.33 19.608ZM322.33 23.4037C323.548 23.4036 324.722 23.8561 325.624 24.6733C325.747 24.7893 325.939 24.7868 326.058 24.6677L327.212 23.501C327.273 23.4398 327.307 23.3568 327.306 23.2705C327.305 23.1843 327.27 23.102 327.208 23.042C324.46 20.4856 320.204 20.4856 317.455 23.042C317.393 23.102 317.358 23.1843 317.357 23.2706C317.356 23.3569 317.39 23.4399 317.451 23.501L318.605 24.6677C318.724 24.7868 318.917 24.7893 319.039 24.6733C319.941 23.8567 321.114 23.4042 322.33 23.4037ZM324.643 25.9575C324.645 26.044 324.611 26.1274 324.549 26.188L322.552 28.2037C322.494 28.2629 322.414 28.2963 322.33 28.2963C322.247 28.2963 322.167 28.2629 322.109 28.2037L320.111 26.188C320.049 26.1274 320.015 26.0439 320.017 25.9574C320.019 25.8709 320.057 25.789 320.121 25.731C321.396 24.6521 323.265 24.6521 324.54 25.731C324.604 25.7891 324.642 25.871 324.643 25.9575Z" fill="black"></path>
<path fill-rule="evenodd" clip-rule="evenodd" d="M308.667 17.6666H307.667C307.115 17.6666 306.667 18.1143 306.667 18.6666V27.3333C306.667 27.8856 307.115 28.3333 307.667 28.3333H308.667C309.219 28.3333 309.667 27.8856 309.667 27.3333V18.6666C309.667 18.1143 309.219 17.6666 308.667 17.6666ZM303 20H304C304.552 20 305 20.4477 305 21V27.3333C305 27.8856 304.552 28.3333 304 28.3333H303C302.448 28.3333 302 27.8856 302 27.3333V21C302 20.4477 302.448 20 303 20ZM299.333 22.3333H298.333C297.781 22.3333 297.333 22.781 297.333 23.3333V27.3333C297.333 27.8856 297.781 28.3333 298.333 28.3333H299.333C299.886 28.3333 300.333 27.8856 300.333 27.3333V23.3333C300.333 22.781 299.886 22.3333 299.333 22.3333ZM294.667 24.3333H293.667C293.115 24.3333 292.667 24.781 292.667 25.3333V27.3333C292.667 27.8856 293.115 28.3333 293.667 28.3333H294.667C295.219 28.3333 295.667 27.8856 295.667 27.3333V25.3333C295.667 24.781 295.219 24.3333 294.667 24.3333Z" fill="black"></path>
<path d="M40.9428 16.9418C41.4648 16.9453 41.9726 17.0376 42.4663 17.2188C42.9634 17.3963 43.4109 17.6875 43.8086 18.0923C44.2063 18.4936 44.5224 19.0316 44.7567 19.7063C44.9911 20.381 45.1083 21.2156 45.1083 22.2099C45.1118 23.1474 45.0124 23.9854 44.81 24.7241C44.6111 25.4592 44.3253 26.0806 43.9524 26.5884C43.5795 27.0962 43.1303 27.4833 42.6047 27.7496C42.0792 28.016 41.4879 28.1491 40.831 28.1491C40.142 28.1491 39.5312 28.0142 38.9986 27.7443C38.4694 27.4744 38.0415 27.1051 37.7148 26.6364C37.3881 26.1676 37.1875 25.6314 37.1129 25.0277H39.0572C39.1566 25.4609 39.359 25.8054 39.6644 26.0611C39.9734 26.3132 40.3622 26.4393 40.831 26.4393C41.5873 26.4393 42.1697 26.1108 42.5781 25.4538C42.9865 24.7969 43.1907 23.8842 43.1907 22.7159H43.1161C42.9421 23.0284 42.7166 23.2983 42.4396 23.5256C42.1626 23.7493 41.8484 23.9215 41.4968 24.0423C41.1488 24.163 40.7795 24.2234 40.3888 24.2234C39.7496 24.2234 39.1743 24.0707 38.663 23.7653C38.1552 23.4599 37.7521 23.0408 37.4538 22.5082C37.1591 21.9755 37.0099 21.3665 37.0064 20.6811C37.0064 19.9709 37.1697 19.3335 37.4964 18.7688C37.8267 18.2006 38.2866 17.7532 38.8761 17.4265C39.4655 17.0962 40.1545 16.9347 40.9428 16.9418ZM40.9481 18.5398C40.5646 18.5398 40.2184 18.6339 39.9094 18.8221C39.604 19.0067 39.3626 19.2589 39.185 19.5785C39.011 19.8945 38.924 20.2479 38.924 20.6385C38.9275 21.0256 39.0145 21.3771 39.185 21.6932C39.359 22.0092 39.5952 22.2596 39.8935 22.4442C40.1953 22.6289 40.5398 22.7212 40.9268 22.7212C41.2145 22.7212 41.4826 22.6662 41.7312 22.5561C41.9797 22.446 42.1964 22.2933 42.381 22.098C42.5692 21.8991 42.7148 21.6737 42.8178 21.4215C42.9243 21.1694 42.9758 20.9031 42.9723 20.6225C42.9723 20.2496 42.8835 19.9052 42.706 19.5891C42.5319 19.2731 42.2922 19.0192 41.9868 18.8274C41.685 18.6357 41.3388 18.5398 40.9481 18.5398ZM47.5913 26.6896C47.2681 26.6896 46.9911 26.576 46.7603 26.3487C46.5295 26.1179 46.4158 25.8409 46.4194 25.5178C46.4158 25.1982 46.5295 24.9247 46.7603 24.6974C46.9911 24.4702 47.2681 24.3565 47.5913 24.3565C47.9038 24.3565 48.1754 24.4702 48.4062 24.6974C48.6406 24.9247 48.7596 25.1982 48.7631 25.5178C48.7596 25.7344 48.7028 25.9315 48.5927 26.109C48.4861 26.2866 48.3441 26.4286 48.1665 26.5352C47.9925 26.6381 47.8008 26.6896 47.5913 26.6896ZM47.5913 21.283C47.2681 21.283 46.9911 21.1694 46.7603 20.9421C46.5295 20.7113 46.4158 20.4343 46.4194 20.1112C46.4158 19.7915 46.5295 19.5181 46.7603 19.2908C46.9911 19.06 47.2681 18.9446 47.5913 18.9446C47.9038 18.9446 48.1754 19.06 48.4062 19.2908C48.6406 19.5181 48.7596 19.7915 48.7631 20.1112C48.7596 20.3242 48.7028 20.5195 48.5927 20.6971C48.4861 20.8746 48.3441 21.0167 48.1665 21.1232C47.9925 21.2298 47.8008 21.283 47.5913 21.283ZM50.0356 25.9759V24.4045L54.6645 17.0909H55.9749V19.3281H55.1759L52.0597 24.266V24.3512H58.521V25.9759H50.0356ZM55.2398 28V25.4964L55.2611 24.7933V17.0909H57.1254V28H55.2398ZM64.0136 17.0909V28H62.0374V19.0138H61.9734L59.4219 20.6438V18.8327L62.1332 17.0909H64.0136Z" fill="black"></path>
</g>
<defs>
<filter id="filter0_d_180_300" x="53" y="675" width="77" height="50" filterUnits="userSpaceOnUse" color-interpolation-filters="sRGB">
<feFlood flood-opacity="0" result="BackgroundImageFix"></feFlood>
<feColorMatrix in="SourceAlpha" type="matrix" values="0 0 0 0 0 0 0 0 0 0 0 0 0 0 0 0 0 0 127 0" result="hardAlpha"></feColorMatrix>
<feOffset dy="1"></feOffset>
<feGaussianBlur stdDeviation="0.5"></feGaussianBlur>
<feComposite in2="hardAlpha" operator="out"></feComposite>
<feColorMatrix type="matrix" values="0 0 0 0 0 0 0 0 0 0 0 0 0 0 0 0 0 0 0.25 0"></feColorMatrix>
<feBlend mode="normal" in2="BackgroundImageFix" result="effect1_dropShadow_180_300"></feBlend>
<feBlend mode="normal" in="SourceGraphic" in2="effect1_dropShadow_180_300" result="shape"></feBlend>
</filter>
<filter id="filter1_d_180_300" x="148" y="675" width="77" height="50" filterUnits="userSpaceOnUse" color-interpolation-filters="sRGB">
<feFlood flood-opacity="0" result="BackgroundImageFix"></feFlood>
<feColorMatrix in="SourceAlpha" type="matrix" values="0 0 0 0 0 0 0 0 0 0 0 0 0 0 0 0 0 0 127 0" result="hardAlpha"></feColorMatrix>
<feOffset dy="1"></feOffset>
<feGaussianBlur stdDeviation="0.5"></feGaussianBlur>
<feComposite in2="hardAlpha" operator="out"></feComposite>
<feColorMatrix type="matrix" values="0 0 0 0 0 0 0 0 0 0 0 0 0 0 0 0 0 0 0.25 0"></feColorMatrix>
<feBlend mode="normal" in2="BackgroundImageFix" result="effect1_dropShadow_180_300"></feBlend>
<feBlend mode="normal" in="SourceGraphic" in2="effect1_dropShadow_180_300" result="shape"></feBlend>
</filter>
<filter id="filter2_d_180_300" x="243" y="675" width="77" height="50" filterUnits="userSpaceOnUse" color-interpolation-filters="sRGB">
<feFlood flood-opacity="0" result="BackgroundImageFix"></feFlood>
<feColorMatrix in="SourceAlpha" type="matrix" values="0 0 0 0 0 0 0 0 0 0 0 0 0 0 0 0 0 0 127 0" result="hardAlpha"></feColorMatrix>
<feOffset dy="1"></feOffset>
<feGaussianBlur stdDeviation="0.5"></feGaussianBlur>
<feComposite in2="hardAlpha" operator="out"></feComposite>
<feColorMatrix type="matrix" values="0 0 0 0 0 0 0 0 0 0 0 0 0 0 0 0 0 0 0.25 0"></feColorMatrix>
<feBlend mode="normal" in2="BackgroundImageFix" result="effect1_dropShadow_180_300"></feBlend>
<feBlend mode="normal" in="SourceGraphic" in2="effect1_dropShadow_180_300" result="shape"></feBlend>
</filter>
<clipPath id="clip0_180_300">
<rect width="390" height="844" fill="white"></rect>
</clipPath>
<clipPath id="clip1_180_300">
<rect width="37.7379" height="48" fill="white" transform="translate(72 256)"></rect>
</clipPath>
<clipPath id="clip2_180_300">
<rect width="27" height="27" fill="white" transform="translate(79 686)"></rect>
</clipPath>
</defs>
</svg>