<svg xmlns="http://www.w3.org/2000/svg" width="440" height="916" fill="none" viewBox="0 0 440 916"><mask id="a" width="448" height="916" x="-5" y="0" maskUnits="userSpaceOnUse" style="mask-type:luminance"><path fill="#fff" d="M443 916H-5V0h448zM119.8 21c-35.283 0-52.925 0-66.402 6.866a63 63 0 0 0-27.532 27.532C19 68.875 19 86.517 19 121.8v672.4c0 35.283 0 52.925 6.866 66.402a63 63 0 0 0 27.532 27.532C66.875 895 84.517 895 119.8 895h200.4c35.283 0 52.925 0 66.402-6.866a63 63 0 0 0 27.532-27.532C421 847.125 421 829.483 421 794.2V121.8c0-35.283 0-52.925-6.866-66.402a63 63 0 0 0-27.532-27.532C373.125 21 355.483 21 320.2 21zM264 35c9.941 0 18 8.059 18 18s-8.059 18-18 18h-88c-9.941 0-18-8.059-18-18s8.059-18 18-18z"/></mask><g mask="url(#a)"><g filter="url(#b)"><rect width="5" height="67.5" x="1" y="349" fill="url(#c)" rx="1"/></g><g filter="url(#d)"><rect width="5" height="67.5" x="1" y="264" fill="url(#e)" rx="1"/></g><g filter="url(#f)"><rect width="5" height="42" x="1" y="191" fill="url(#g)" rx="1"/></g><g filter="url(#h)"><path fill="url(#i)" d="M434.5 288.6c0-.56 0-.84.109-1.054.096-.188.249-.341.437-.437.214-.109.494-.109 1.054-.109h1.8c.56 0 .84 0 1.054.109.188.096.341.249.437.437.109.214.109.494.109 1.054v103.8c0 .56 0 .84-.109 1.054a1 1 0 0 1-.437.437c-.214.109-.494.109-1.054.109h-1.8c-.56 0-.84 0-1.054-.109a1 1 0 0 1-.437-.437c-.109-.214-.109-.494-.109-1.054z"/></g><path stroke="#8c8b87" stroke-width="6" d="M125.6 9h188.8c21.332 0 37.15.002 49.672 1.025 12.488 1.02 21.434 3.04 29.07 6.931a73 73 0 0 1 31.902 31.902c3.89 7.636 5.91 16.582 6.931 29.07C432.998 90.45 433 106.268 433 127.6v660.8c0 21.332-.002 37.15-1.025 49.672-1.021 12.488-3.041 21.434-6.931 29.07a73 73 0 0 1-31.902 31.902c-7.636 3.89-16.582 5.91-29.07 6.931C351.55 906.998 335.732 907 314.4 907H125.6c-21.332 0-37.15-.002-49.672-1.025-12.488-1.021-21.434-3.041-29.07-6.931a73 73 0 0 1-31.902-31.902c-3.89-7.636-5.91-16.582-6.93-29.07C7.001 825.55 7 809.732 7 788.4V127.6c0-21.332.002-37.15 1.025-49.672 1.02-12.488 3.04-21.434 6.931-29.07a73 73 0 0 1 31.902-31.902c7.636-3.89 16.582-5.91 29.07-6.93C88.45 9.001 104.268 9 125.6 9Z"/><g filter="url(#j)"><path fill="#373737" d="M10 124c0-39.204 0-58.805 7.63-73.78a70 70 0 0 1 30.59-30.59C63.195 12 82.797 12 122 12h196c39.204 0 58.806 0 73.779 7.63a70 70 0 0 1 30.591 30.59C430 65.196 430 84.797 430 124v668c0 39.204 0 58.806-7.63 73.779a70 70 0 0 1-30.591 30.591C376.806 904 357.204 904 318 904H122c-39.204 0-58.805 0-73.78-7.63a70 70 0 0 1-30.59-30.591C10 850.806 10 831.204 10 792z"/></g><path fill="#000" d="M12 122.8c0-38.084 0-57.125 7.412-71.671a68 68 0 0 1 29.717-29.717C63.675 14 82.716 14 120.8 14h198.4c38.084 0 57.125 0 71.671 7.412a68 68 0 0 1 29.717 29.717C428 65.675 428 84.716 428 122.8v670.4c0 38.084 0 57.125-7.412 71.671a68 68 0 0 1-29.717 29.717C376.325 902 357.284 902 319.2 902H120.8c-38.084 0-57.125 0-71.671-7.412a68 68 0 0 1-29.717-29.717C12 850.325 12 831.284 12 793.2z"/><path fill="url(#k)" fill-opacity=".25" d="M4 127.6c0-42.564 0-63.846 8.284-80.103a76 76 0 0 1 33.213-33.213C61.754 6 83.036 6 125.6 6h188.8c42.564 0 63.846 0 80.103 8.284a76 76 0 0 1 33.213 33.213C436 63.754 436 85.036 436 127.6v660.8c0 42.564 0 63.846-8.284 80.103a76 76 0 0 1-33.213 33.213C378.246 910 356.964 910 314.4 910H125.6c-42.564 0-63.846 0-80.103-8.284a76 76 0 0 1-33.213-33.213C4 852.246 4 830.964 4 788.4z"/><path fill="url(#l)" fill-opacity=".25" d="M4 127.6c0-42.564 0-63.846 8.284-80.103a76 76 0 0 1 33.213-33.213C61.754 6 83.036 6 125.6 6h188.8c42.564 0 63.846 0 80.103 8.284a76 76 0 0 1 33.213 33.213C436 63.754 436 85.036 436 127.6v660.8c0 42.564 0 63.846-8.284 80.103a76 76 0 0 1-33.213 33.213C378.246 910 356.964 910 314.4 910H125.6c-42.564 0-63.846 0-80.103-8.284a76 76 0 0 1-33.213-33.213C4 852.246 4 830.964 4 788.4z"/><path fill="url(#m)" fill-opacity=".25" d="M4 127.6c0-42.564 0-63.846 8.284-80.103a76 76 0 0 1 33.213-33.213C61.754 6 83.036 6 125.6 6h188.8c42.564 0 63.846 0 80.103 8.284a76 76 0 0 1 33.213 33.213C436 63.754 436 85.036 436 127.6v660.8c0 42.564 0 63.846-8.284 80.103a76 76 0 0 1-33.213 33.213C378.246 910 356.964 910 314.4 910H125.6c-42.564 0-63.846 0-80.103-8.284a76 76 0 0 1-33.213-33.213C4 852.246 4 830.964 4 788.4z"/><path fill="url(#n)" fill-opacity=".25" d="M4 127.6c0-42.564 0-63.846 8.284-80.103a76 76 0 0 1 33.213-33.213C61.754 6 83.036 6 125.6 6h188.8c42.564 0 63.846 0 80.103 8.284a76 76 0 0 1 33.213 33.213C436 63.754 436 85.036 436 127.6v660.8c0 42.564 0 63.846-8.284 80.103a76 76 0 0 1-33.213 33.213C378.246 910 356.964 910 314.4 910H125.6c-42.564 0-63.846 0-80.103-8.284a76 76 0 0 1-33.213-33.213C4 852.246 4 830.964 4 788.4z"/><path fill="#000" fill-opacity=".1" d="M4 98h6v9H4zm426 0h6v9h-6zM4 808h6v9H4zm426 0h6v9h-6z"/><g filter="url(#o)" opacity=".55"><circle cx="264.5" cy="52.5" r="4.5" fill="url(#p)" transform="rotate(1 264.5 52.5)"/><circle cx="264.5" cy="52.5" r="4.5" fill="url(#q)" transform="rotate(1 264.5 52.5)"/></g><g filter="url(#r)"><circle cx="264.5" cy="52.5" r="4.5" fill="#000" fill-opacity=".01" transform="rotate(51 264.5 52.5)"/></g><circle cx="264.307" cy="50.987" r="1" fill="#4c4c4d" transform="rotate(51 264.307 50.987)"/><circle cx="264.449" cy="54.677" r="1" fill="#4c4c4d" opacity=".64" style="mix-blend-mode:screen" transform="rotate(51 264.449 54.677)"/><g filter="url(#s)"><path fill="#1f1f1f" d="M308.925 12c-3.247 0-6.457.681-9.424 2a23.2 23.2 0 0 1-9.425 2H148.925c-3.247 0-6.457-.681-9.424-2a23.2 23.2 0 0 0-9.425-2z"/></g><mask id="t" width="432" height="904" x="4" y="6" maskUnits="userSpaceOnUse" style="mask-type:alpha"><path stroke="#8c8b87" stroke-width="6" d="M125.6 9h188.8c21.332 0 37.15.002 49.672 1.025 12.488 1.02 21.434 3.04 29.07 6.931a73 73 0 0 1 31.902 31.902c3.89 7.636 5.91 16.582 6.931 29.07C432.998 90.45 433 106.268 433 127.6v660.8c0 21.332-.002 37.15-1.025 49.672-1.021 12.488-3.041 21.434-6.931 29.07a73 73 0 0 1-31.902 31.902c-7.636 3.89-16.582 5.91-29.07 6.931C351.55 906.998 335.732 907 314.4 907H125.6c-21.332 0-37.15-.002-49.672-1.025-12.488-1.021-21.434-3.041-29.07-6.931a73 73 0 0 1-31.902-31.902c-3.89-7.636-5.91-16.582-6.93-29.07C7.001 825.55 7 809.732 7 788.4V127.6c0-21.332.002-37.15 1.025-49.672 1.02-12.488 3.04-21.434 6.931-29.07a73 73 0 0 1 31.902-31.902c7.636-3.89 16.582-5.91 29.07-6.93C88.45 9.001 104.268 9 125.6 9Z"/></mask><g mask="url(#t)"><g filter="url(#u)"><rect width="5" height="67.5" x="1" y="349" fill="url(#v)" rx="1"/></g><g filter="url(#w)"><rect width="5" height="67.5" x="1" y="264" fill="url(#x)" rx="1"/></g><g filter="url(#y)"><rect width="5" height="42" x="1" y="191" fill="url(#z)" rx="1"/></g><g filter="url(#A)"><path fill="url(#B)" d="M433.5 288.6c0-.56 0-.84.109-1.054.096-.188.249-.341.437-.437.214-.109.494-.109 1.054-.109h1.8c.56 0 .84 0 1.054.109.188.096.341.249.437.437.109.214.109.494.109 1.054v103.8c0 .56 0 .84-.109 1.054a1 1 0 0 1-.437.437c-.214.109-.494.109-1.054.109h-1.8c-.56 0-.84 0-1.054-.109a1 1 0 0 1-.437-.437c-.109-.214-.109-.494-.109-1.054z"/></g></g></g><defs><filter id="b" width="8" height="67.5" x="-1" y="349" color-interpolation-filters="sRGB" filterUnits="userSpaceOnUse"><feFlood flood-opacity="0" result="BackgroundImageFix"/><feBlend in="SourceGraphic" in2="BackgroundImageFix" result="shape"/><feColorMatrix in="SourceAlpha" result="hardAlpha" values="0 0 0 0 0 0 0 0 0 0 0 0 0 0 0 0 0 0 127 0"/><feOffset dx="1"/><feGaussianBlur stdDeviation=".5"/><feComposite in2="hardAlpha" k2="-1" k3="1" operator="arithmetic"/><feColorMatrix values="0 0 0 0 0.654902 0 0 0 0 0.65098 0 0 0 0 0.627451 0 0 0 1 0"/><feBlend in2="shape" result="effect1_innerShadow_58_7740"/><feColorMatrix in="SourceAlpha" result="hardAlpha" values="0 0 0 0 0 0 0 0 0 0 0 0 0 0 0 0 0 0 127 0"/><feOffset dx="-2.5"/><feGaussianBlur stdDeviation="1"/><feComposite in2="hardAlpha" k2="-1" k3="1" operator="arithmetic"/><feColorMatrix values="0 0 0 0 0 0 0 0 0 0 0 0 0 0 0 0 0 0 0.5 0"/><feBlend in2="effect1_innerShadow_58_7740" result="effect2_innerShadow_58_7740"/></filter><filter id="d" width="8" height="67.5" x="-1" y="264" color-interpolation-filters="sRGB" filterUnits="userSpaceOnUse"><feFlood flood-opacity="0" result="BackgroundImageFix"/><feBlend in="SourceGraphic" in2="BackgroundImageFix" result="shape"/><feColorMatrix in="SourceAlpha" result="hardAlpha" values="0 0 0 0 0 0 0 0 0 0 0 0 0 0 0 0 0 0 127 0"/><feOffset dx="1"/><feGaussianBlur stdDeviation=".5"/><feComposite in2="hardAlpha" k2="-1" k3="1" operator="arithmetic"/><feColorMatrix values="0 0 0 0 0.654902 0 0 0 0 0.65098 0 0 0 0 0.627451 0 0 0 1 0"/><feBlend in2="shape" result="effect1_innerShadow_58_7740"/><feColorMatrix in="SourceAlpha" result="hardAlpha" values="0 0 0 0 0 0 0 0 0 0 0 0 0 0 0 0 0 0 127 0"/><feOffset dx="-2.5"/><feGaussianBlur stdDeviation="1"/><feComposite in2="hardAlpha" k2="-1" k3="1" operator="arithmetic"/><feColorMatrix values="0 0 0 0 0 0 0 0 0 0 0 0 0 0 0 0 0 0 0.5 0"/><feBlend in2="effect1_innerShadow_58_7740" result="effect2_innerShadow_58_7740"/></filter><filter id="f" width="8" height="42" x="-1" y="191" color-interpolation-filters="sRGB" filterUnits="userSpaceOnUse"><feFlood flood-opacity="0" result="BackgroundImageFix"/><feBlend in="SourceGraphic" in2="BackgroundImageFix" result="shape"/><feColorMatrix in="SourceAlpha" result="hardAlpha" values="0 0 0 0 0 0 0 0 0 0 0 0 0 0 0 0 0 0 127 0"/><feOffset dx="1"/><feGaussianBlur stdDeviation=".5"/><feComposite in2="hardAlpha" k2="-1" k3="1" operator="arithmetic"/><feColorMatrix values="0 0 0 0 0.654902 0 0 0 0 0.65098 0 0 0 0 0.627451 0 0 0 1 0"/><feBlend in2="shape" result="effect1_innerShadow_58_7740"/><feColorMatrix in="SourceAlpha" result="hardAlpha" values="0 0 0 0 0 0 0 0 0 0 0 0 0 0 0 0 0 0 127 0"/><feOffset dx="-2.5"/><feGaussianBlur stdDeviation="1"/><feComposite in2="hardAlpha" k2="-1" k3="1" operator="arithmetic"/><feColorMatrix values="0 0 0 0 0 0 0 0 0 0 0 0 0 0 0 0 0 0 0.5 0"/><feBlend in2="effect1_innerShadow_58_7740" result="effect2_innerShadow_58_7740"/></filter><filter id="h" width="7.5" height="107" x="434" y="287" color-interpolation-filters="sRGB" filterUnits="userSpaceOnUse"><feFlood flood-opacity="0" result="BackgroundImageFix"/><feBlend in="SourceGraphic" in2="BackgroundImageFix" result="shape"/><feColorMatrix in="SourceAlpha" result="hardAlpha" values="0 0 0 0 0 0 0 0 0 0 0 0 0 0 0 0 0 0 127 0"/><feOffset dx="-1"/><feGaussianBlur stdDeviation=".25"/><feComposite in2="hardAlpha" k2="-1" k3="1" operator="arithmetic"/><feColorMatrix values="0 0 0 0 0.654806 0 0 0 0 0.65116 0 0 0 0 0.62697 0 0 0 1 0"/><feBlend in2="shape" result="effect1_innerShadow_58_7740"/><feColorMatrix in="SourceAlpha" result="hardAlpha" values="0 0 0 0 0 0 0 0 0 0 0 0 0 0 0 0 0 0 127 0"/><feOffset dx="2"/><feGaussianBlur stdDeviation="1"/><feComposite in2="hardAlpha" k2="-1" k3="1" operator="arithmetic"/><feColorMatrix values="0 0 0 0 0 0 0 0 0 0 0 0 0 0 0 0 0 0 0.5 0"/><feBlend in2="effect1_innerShadow_58_7740" result="effect2_innerShadow_58_7740"/></filter><filter id="j" width="436" height="908" x="2" y="4" color-interpolation-filters="sRGB" filterUnits="userSpaceOnUse"><feFlood flood-opacity="0" result="BackgroundImageFix"/><feColorMatrix in="SourceAlpha" result="hardAlpha" values="0 0 0 0 0 0 0 0 0 0 0 0 0 0 0 0 0 0 127 0"/><feOffset/><feGaussianBlur stdDeviation="2"/><feColorMatrix values="0 0 0 0 0.960784 0 0 0 0 0.956863 0 0 0 0 0.933333 0 0 0 1 0"/><feBlend in2="BackgroundImageFix" result="effect1_dropShadow_58_7740"/><feColorMatrix in="SourceAlpha" result="hardAlpha" values="0 0 0 0 0 0 0 0 0 0 0 0 0 0 0 0 0 0 127 0"/><feOffset/><feGaussianBlur stdDeviation="4"/><feComposite in2="hardAlpha" operator="out"/><feColorMatrix values="0 0 0 0 0.960784 0 0 0 0 0.956863 0 0 0 0 0.933333 0 0 0 1 0"/><feBlend in2="effect1_dropShadow_58_7740" result="effect2_dropShadow_58_7740"/><feColorMatrix in="SourceAlpha" result="hardAlpha" values="0 0 0 0 0 0 0 0 0 0 0 0 0 0 0 0 0 0 127 0"/><feOffset/><feGaussianBlur stdDeviation="3.5"/><feComposite in2="hardAlpha" operator="out"/><feColorMatrix values="0 0 0 0 0.960784 0 0 0 0 0.956863 0 0 0 0 0.933333 0 0 0 1 0"/><feBlend in2="effect2_dropShadow_58_7740" result="effect3_dropShadow_58_7740"/><feColorMatrix in="SourceAlpha" result="hardAlpha" values="0 0 0 0 0 0 0 0 0 0 0 0 0 0 0 0 0 0 127 0"/><feOffset/><feGaussianBlur stdDeviation="4"/><feComposite in2="hardAlpha" operator="out"/><feColorMatrix values="0 0 0 0 0.960784 0 0 0 0 0.956863 0 0 0 0 0.933333 0 0 0 1 0"/><feBlend in2="effect3_dropShadow_58_7740" result="effect4_dropShadow_58_7740"/><feBlend in="SourceGraphic" in2="effect4_dropShadow_58_7740" result="shape"/></filter><filter id="o" width="13" height="13" x="258" y="46" color-interpolation-filters="sRGB" filterUnits="userSpaceOnUse"><feFlood flood-opacity="0" result="BackgroundImageFix"/><feColorMatrix in="SourceAlpha" result="hardAlpha" values="0 0 0 0 0 0 0 0 0 0 0 0 0 0 0 0 0 0 127 0"/><feOffset/><feGaussianBlur stdDeviation="1"/><feColorMatrix values="0 0 0 0 0 0 0 0 0 0 0 0 0 0 0 0 0 0 0.5 0"/><feBlend in2="BackgroundImageFix" result="effect1_dropShadow_58_7740"/><feBlend in="SourceGraphic" in2="effect1_dropShadow_58_7740" result="shape"/></filter><filter id="r" width="9" height="9" x="260" y="48" color-interpolation-filters="sRGB" filterUnits="userSpaceOnUse"><feFlood flood-opacity="0" result="BackgroundImageFix"/><feBlend in="SourceGraphic" in2="BackgroundImageFix" result="shape"/><feColorMatrix in="SourceAlpha" result="hardAlpha" values="0 0 0 0 0 0 0 0 0 0 0 0 0 0 0 0 0 0 127 0"/><feOffset/><feGaussianBlur stdDeviation="1"/><feComposite in2="hardAlpha" k2="-1" k3="1" operator="arithmetic"/><feColorMatrix values="0 0 0 0 0.512512 0 0 0 0 0.584193 0 0 0 0 0.686594 0 0 0 1 0"/><feBlend in2="shape" result="effect1_innerShadow_58_7740"/><feColorMatrix in="SourceAlpha" result="hardAlpha" values="0 0 0 0 0 0 0 0 0 0 0 0 0 0 0 0 0 0 127 0"/><feMorphology in="SourceAlpha" radius=".5" result="effect2_innerShadow_58_7740"/><feOffset/><feGaussianBlur stdDeviation=".5"/><feComposite in2="hardAlpha" k2="-1" k3="1" operator="arithmetic"/><feColorMatrix values="0 0 0 0 0 0 0 0 0 0 0 0 0 0 0 0 0 0 1 0"/><feBlend in2="effect1_innerShadow_58_7740" result="effect2_innerShadow_58_7740"/></filter><filter id="s" width="180.849" height="6" x="129.076" y="12" color-interpolation-filters="sRGB" filterUnits="userSpaceOnUse"><feFlood flood-opacity="0" result="BackgroundImageFix"/><feColorMatrix in="SourceAlpha" result="hardAlpha" values="0 0 0 0 0 0 0 0 0 0 0 0 0 0 0 0 0 0 127 0"/><feOffset dy="1"/><feGaussianBlur stdDeviation=".5"/><feComposite in2="hardAlpha" operator="out"/><feColorMatrix values="0 0 0 0 1 0 0 0 0 1 0 0 0 0 1 0 0 0 0.25 0"/><feBlend in2="BackgroundImageFix" result="effect1_dropShadow_58_7740"/><feBlend in="SourceGraphic" in2="effect1_dropShadow_58_7740" result="shape"/><feColorMatrix in="SourceAlpha" result="hardAlpha" values="0 0 0 0 0 0 0 0 0 0 0 0 0 0 0 0 0 0 127 0"/><feOffset dy="-.25"/><feComposite in2="hardAlpha" k2="-1" k3="1" operator="arithmetic"/><feColorMatrix values="0 0 0 0 1 0 0 0 0 1 0 0 0 0 1 0 0 0 0.2 0"/><feBlend in2="shape" result="effect2_innerShadow_58_7740"/></filter><filter id="u" width="13" height="75.5" x="-3" y="345" color-interpolation-filters="sRGB" filterUnits="userSpaceOnUse"><feFlood flood-opacity="0" result="BackgroundImageFix"/><feBlend in="SourceGraphic" in2="BackgroundImageFix" result="shape"/><feColorMatrix in="SourceAlpha" result="hardAlpha" values="0 0 0 0 0 0 0 0 0 0 0 0 0 0 0 0 0 0 127 0"/><feOffset dx="1"/><feGaussianBlur stdDeviation=".5"/><feComposite in2="hardAlpha" k2="-1" k3="1" operator="arithmetic"/><feColorMatrix values="0 0 0 0 0.654902 0 0 0 0 0.65098 0 0 0 0 0.627451 0 0 0 1 0"/><feBlend in2="shape" result="effect1_innerShadow_58_7740"/><feColorMatrix in="SourceAlpha" result="hardAlpha" values="0 0 0 0 0 0 0 0 0 0 0 0 0 0 0 0 0 0 127 0"/><feOffset dx="-1"/><feGaussianBlur stdDeviation=".5"/><feComposite in2="hardAlpha" k2="-1" k3="1" operator="arithmetic"/><feColorMatrix values="0 0 0 0 0 0 0 0 0 0 0 0 0 0 0 0 0 0 0.5 0"/><feBlend in2="effect1_innerShadow_58_7740" result="effect2_innerShadow_58_7740"/><feGaussianBlur result="effect3_foregroundBlur_58_7740" stdDeviation="2"/></filter><filter id="w" width="13" height="75.5" x="-3" y="260" color-interpolation-filters="sRGB" filterUnits="userSpaceOnUse"><feFlood flood-opacity="0" result="BackgroundImageFix"/><feBlend in="SourceGraphic" in2="BackgroundImageFix" result="shape"/><feColorMatrix in="SourceAlpha" result="hardAlpha" values="0 0 0 0 0 0 0 0 0 0 0 0 0 0 0 0 0 0 127 0"/><feOffset dx="1"/><feGaussianBlur stdDeviation=".5"/><feComposite in2="hardAlpha" k2="-1" k3="1" operator="arithmetic"/><feColorMatrix values="0 0 0 0 0.654902 0 0 0 0 0.65098 0 0 0 0 0.627451 0 0 0 1 0"/><feBlend in2="shape" result="effect1_innerShadow_58_7740"/><feColorMatrix in="SourceAlpha" result="hardAlpha" values="0 0 0 0 0 0 0 0 0 0 0 0 0 0 0 0 0 0 127 0"/><feOffset dx="-1"/><feGaussianBlur stdDeviation=".5"/><feComposite in2="hardAlpha" k2="-1" k3="1" operator="arithmetic"/><feColorMatrix values="0 0 0 0 0 0 0 0 0 0 0 0 0 0 0 0 0 0 0.5 0"/><feBlend in2="effect1_innerShadow_58_7740" result="effect2_innerShadow_58_7740"/><feGaussianBlur result="effect3_foregroundBlur_58_7740" stdDeviation="2"/></filter><filter id="y" width="13" height="50" x="-3" y="187" color-interpolation-filters="sRGB" filterUnits="userSpaceOnUse"><feFlood flood-opacity="0" result="BackgroundImageFix"/><feBlend in="SourceGraphic" in2="BackgroundImageFix" result="shape"/><feColorMatrix in="SourceAlpha" result="hardAlpha" values="0 0 0 0 0 0 0 0 0 0 0 0 0 0 0 0 0 0 127 0"/><feOffset dx="1"/><feGaussianBlur stdDeviation=".5"/><feComposite in2="hardAlpha" k2="-1" k3="1" operator="arithmetic"/><feColorMatrix values="0 0 0 0 0.654902 0 0 0 0 0.65098 0 0 0 0 0.627451 0 0 0 1 0"/><feBlend in2="shape" result="effect1_innerShadow_58_7740"/><feColorMatrix in="SourceAlpha" result="hardAlpha" values="0 0 0 0 0 0 0 0 0 0 0 0 0 0 0 0 0 0 127 0"/><feOffset dx="-1"/><feGaussianBlur stdDeviation="1"/><feComposite in2="hardAlpha" k2="-1" k3="1" operator="arithmetic"/><feColorMatrix values="0 0 0 0 0 0 0 0 0 0 0 0 0 0 0 0 0 0 0.5 0"/><feBlend in2="effect1_innerShadow_58_7740" result="effect2_innerShadow_58_7740"/><feGaussianBlur result="effect3_foregroundBlur_58_7740" stdDeviation="2"/></filter><filter id="A" width="13" height="115" x="429.5" y="283" color-interpolation-filters="sRGB" filterUnits="userSpaceOnUse"><feFlood flood-opacity="0" result="BackgroundImageFix"/><feBlend in="SourceGraphic" in2="BackgroundImageFix" result="shape"/><feColorMatrix in="SourceAlpha" result="hardAlpha" values="0 0 0 0 0 0 0 0 0 0 0 0 0 0 0 0 0 0 127 0"/><feOffset dx="-1"/><feGaussianBlur stdDeviation=".25"/><feComposite in2="hardAlpha" k2="-1" k3="1" operator="arithmetic"/><feColorMatrix values="0 0 0 0 0.654806 0 0 0 0 0.65116 0 0 0 0 0.62697 0 0 0 1 0"/><feBlend in2="shape" result="effect1_innerShadow_58_7740"/><feColorMatrix in="SourceAlpha" result="hardAlpha" values="0 0 0 0 0 0 0 0 0 0 0 0 0 0 0 0 0 0 127 0"/><feOffset dx="1"/><feGaussianBlur stdDeviation=".5"/><feComposite in2="hardAlpha" k2="-1" k3="1" operator="arithmetic"/><feColorMatrix values="0 0 0 0 0 0 0 0 0 0 0 0 0 0 0 0 0 0 0.5 0"/><feBlend in2="effect1_innerShadow_58_7740" result="effect2_innerShadow_58_7740"/><feGaussianBlur result="effect3_foregroundBlur_58_7740" stdDeviation="2"/></filter><linearGradient id="c" x1="1" x2="1" y1="349" y2="416.5" gradientUnits="userSpaceOnUse"><stop stop-color="#ebebeb"/><stop offset=".038" stop-color="#fff"/><stop offset=".113" stop-color="#dfded9"/><stop offset=".495" stop-color="#d0d0cc"/><stop offset=".91" stop-color="#c4c4c0"/><stop offset=".949" stop-color="#696764"/><stop offset=".978" stop-color="#fff"/><stop offset="1" stop-color="#8b8b87"/></linearGradient><linearGradient id="e" x1="1" x2="1" y1="264" y2="331.5" gradientUnits="userSpaceOnUse"><stop stop-color="#ebebeb"/><stop offset=".038" stop-color="#fff"/><stop offset=".113" stop-color="#dfded9"/><stop offset=".495" stop-color="#d0d0cc"/><stop offset=".91" stop-color="#c4c4c0"/><stop offset=".949" stop-color="#696764"/><stop offset=".978" stop-color="#fff"/><stop offset="1" stop-color="#8b8b87"/></linearGradient><linearGradient id="g" x1="1" x2="1" y1="191" y2="233" gradientUnits="userSpaceOnUse"><stop stop-color="#c4c4be"/><stop offset=".052" stop-color="#fffffa"/><stop offset=".508" stop-color="#cdccc7"/><stop offset=".832" stop-color="#c2c1be"/><stop offset=".911" stop-color="#7f7e7a"/><stop offset=".961" stop-color="#e6e6e6"/><stop offset="1" stop-color="#8f8f8f"/></linearGradient><linearGradient id="i" x1="434.512" x2="434.512" y1="287" y2="393.486" gradientUnits="userSpaceOnUse"><stop stop-color="#b0afaa"/><stop offset=".009" stop-color="#faf8f4"/><stop offset=".024" stop-color="#fff"/><stop offset=".072" stop-color="#d4d3cf"/><stop offset=".494" stop-color="#c0bfb9"/><stop offset=".921" stop-color="#cccbc6"/><stop offset=".963" stop-color="#767570"/><stop offset=".987" stop-color="#e1e1e1"/><stop offset="1" stop-color="#777572"/></linearGradient><linearGradient id="p" x1="260" x2="263.569" y1="54.285" y2="54.285" gradientUnits="userSpaceOnUse"><stop stop-color="#5b6a78"/><stop offset="1" stop-color="#6f7376" stop-opacity=".01"/></linearGradient><linearGradient id="q" x1="269" x2="265.901" y1="50.951" y2="50.951" gradientUnits="userSpaceOnUse"><stop stop-color="#797e8e" stop-opacity=".835"/><stop offset="1" stop-color="#6c7782" stop-opacity=".01"/></linearGradient><linearGradient id="v" x1="1" x2="1" y1="349" y2="416.5" gradientUnits="userSpaceOnUse"><stop stop-color="#ebebeb"/><stop offset=".038" stop-color="#fff"/><stop offset=".113" stop-color="#dfded9"/><stop offset=".495" stop-color="#d0d0cc"/><stop offset=".91" stop-color="#c4c4c0"/><stop offset=".949" stop-color="#696764"/><stop offset=".978" stop-color="#fff"/><stop offset="1" stop-color="#8b8b87"/></linearGradient><linearGradient id="x" x1="1" x2="1" y1="264" y2="331.5" gradientUnits="userSpaceOnUse"><stop stop-color="#ebebeb"/><stop offset=".038" stop-color="#fff"/><stop offset=".113" stop-color="#dfded9"/><stop offset=".495" stop-color="#d0d0cc"/><stop offset=".91" stop-color="#c4c4c0"/><stop offset=".949" stop-color="#696764"/><stop offset=".978" stop-color="#fff"/><stop offset="1" stop-color="#8b8b87"/></linearGradient><linearGradient id="z" x1="1" x2="1" y1="191" y2="233" gradientUnits="userSpaceOnUse"><stop stop-color="#c4c4be"/><stop offset=".052" stop-color="#fffffa"/><stop offset=".508" stop-color="#cdccc7"/><stop offset=".832" stop-color="#c2c1be"/><stop offset=".911" stop-color="#7f7e7a"/><stop offset=".961" stop-color="#e6e6e6"/><stop offset="1" stop-color="#8f8f8f"/></linearGradient><linearGradient id="B" x1="433.512" x2="433.512" y1="287" y2="393.486" gradientUnits="userSpaceOnUse"><stop stop-color="#b0afaa"/><stop offset=".009" stop-color="#faf8f4"/><stop offset=".024" stop-color="#fff"/><stop offset=".072" stop-color="#d4d3cf"/><stop offset=".494" stop-color="#c0bfb9"/><stop offset=".921" stop-color="#cccbc6"/><stop offset=".963" stop-color="#767570"/><stop offset=".987" stop-color="#e1e1e1"/><stop offset="1" stop-color="#777572"/></linearGradient><radialGradient id="k" cx="0" cy="0" r="1" gradientTransform="matrix(0 110.761 -53.2551 0 -2.252 -4.016)" gradientUnits="userSpaceOnUse"><stop/><stop offset="1" stop-opacity=".01"/></radialGradient><radialGradient id="l" cx="0" cy="0" r="1" gradientTransform="matrix(0 90.7304 -43.6243 0 423.844 12.258)" gradientUnits="userSpaceOnUse"><stop/><stop offset="1" stop-opacity=".01"/></radialGradient><radialGradient id="m" cx="0" cy="0" r="1" gradientTransform="matrix(5.03712 83.5758 -40.1843 10.4763 429 890)" gradientUnits="userSpaceOnUse"><stop/><stop offset="1" stop-opacity=".01"/></radialGradient><radialGradient id="n" cx="0" cy="0" r="1" gradientTransform="matrix(9.0329 90.0667 -43.3052 18.7867 3 890)" gradientUnits="userSpaceOnUse"><stop/><stop offset="1" stop-opacity=".01"/></radialGradient></defs></svg>