<svg width="188" height="188" viewBox="0 0 188 188" fill="none" xmlns="http://www.w3.org/2000/svg" xmlns:c2pa="http://c2pa.org/manifest"><metadata><c2pa:manifest>AAAWgmp1bWIAAAAeanVtZGMycGEAEQAQgAAAqgA4m3EDYzJwYQAAABZcanVtYgAAAEdqdW1kYzJtYQARABCAAACqADibcQN1cm46YzJwYTpiMTIwMWZlNC0yNDQ0LTQ1MGQtOTYzZC0yMjczODE0YmRjOTcAAAADl2p1bWIAAAApanVtZGMyYXMAEQAQgAAAqgA4m3EDYzJwYS5hc3NlcnRpb25zAAAAALxqdW1iAAAARGp1bWRjYm9yABEAEIAAAKoAOJtxE2MycGEuaW5ncmVkaWVudC52MwAAAAAYYzJzaLwwnT23eH0OVDdajz6YBJEAAABwY2JvcqNpZGM6Zm9ybWF0bWltYWdlL3N2Zyt4bWxqaW5zdGFuY2VJRHgseG1wOmlpZDo1YmVjZDUxYy1mNTRiLTQxMWEtOWMxOC04NzVmMmZmNDM5NDFscmVsYXRpb25zaGlwaHBhcmVudE9mAAAB4mp1bWIAAABBanVtZGNib3IAEQAQgAAAqgA4m3ETYzJwYS5hY3Rpb25zLnYyAAAAABhjMnNoCxsdmwf0eoZUblLUlEGrfAAAAZljYm9yomdhY3Rpb25zgqJmYWN0aW9ua2MycGEub3BlbmVkanBhcmFtZXRlcnOha2luZ3JlZGllbnRzgaJjdXJseC1zZWxmI2p1bWJmPWMycGEuYXNzZXJ0aW9ucy9jMnBhLmluZ3JlZGllbnQudjNkaGFzaFggkBMbsJ2G18gWEiSydt9UhHxOAMqE3HJyjAhGkhULJ0ukZmFjdGlvbngdY29tLmFudGhyb3BpYy5jbGF1ZGUucHJvdmlkZWRqcGFyYW1ldGVyc6F4H2NvbS5hbnRocm9waWMub3JpZ2luLWNvbmZpZGVuY2VndW5rbm93bmtkZXNjcmlwdGlvbnhmQ2xhdWRlIHByb3ZpZGVkIHRoaXMgZmlsZSBhdCB0aGUgcmVxdWVzdCBvZiBhIHVzZXIgYW5kIG1heSBoYXZlIGNyZWF0ZWQgb3IgbW9kaWZpZWQgdGhlIGZpbGUgY29udGVudHMubXNvZnR3YXJlQWdlbnShZG5hbWVmQ2xhdWRlcmFsbEFjdGlvbnNJbmNsdWRlZPUAAADIanVtYgAAAEBqdW1kY2JvcgARABCAAACqADibcRNjMnBhLmhhc2guZGF0YQAAAAAYYzJzaH2COvKbz8CzsWnWkIoNTmYAAACAY2JvcqVjYWxnZnNoYTI1NmNwYWRNAAAAAAAAAAAAAAAAAGRoYXNoWCAHXXE+wD//W0bWvo3rPK80HTCclzsojUfKJ9XZeACSNWRuYW1lbmp1bWJmIG1hbmlmZXN0amV4Y2x1c2lvbnOBomVzdGFydBiiZmxlbmd0aBkeBAAAAj5qdW1iAAAAJ2p1bWRjMmNsABEAEIAAAKoAOJtxA2MycGEuY2xhaW0udjIAAAACD2Nib3KlY2FsZ2ZzaGEyNTZpc2lnbmF0dXJleE1zZWxmI2p1bWJmPS9jMnBhL3VybjpjMnBhOmIxMjAxZmU0LTI0NDQtNDUwZC05NjNkLTIyNzM4MTRiZGM5Ny9jMnBhLnNpZ25hdHVyZWppbnN0YW5jZUlEeCx4bXA6aWlkOjk1MmQxNDNlLTMzZDgtNGJhYS05ZTUyLTFmMjUyMDI3NTEzOHJjcmVhdGVkX2Fzc2VydGlvbnODomN1cmx4LXNlbGYjanVtYmY9YzJwYS5hc3NlcnRpb25zL2MycGEuaW5ncmVkaWVudC52M2RoYXNoWCCQExuwnYbXyBYSJLJ231SEfE4AyoTccnKMCEaSFQsnS6JjdXJseCpzZWxmI2p1bWJmPWMycGEuYXNzZXJ0aW9ucy9jMnBhLmFjdGlvbnMudjJkaGFzaFgg4Wgw0oBv8cCvepTwTBbu9TNRS0mUTmmlN7efMZPjgW2iY3VybHgpc2VsZiNqdW1iZj1jMnBhLmFzc2VydGlvbnMvYzJwYS5oYXNoLmRhdGFkaGFzaFggUSruenwQwg4uxeIWg8nZlEV0M2FLkJBvjVS/1+mtWyx0Y2xhaW1fZ2VuZXJhdG9yX2luZm+jZG5hbWVvQW50aHJvcGljIEZpbGVzZ3ZlcnNpb25lMS4wLjBrc3BlY1ZlcnNpb25lMi40LjAAABA4anVtYgAAAChqdW1kYzJjcwARABCAAACqADibcQNjMnBhLnNpZ25hdHVyZQAAABAIY2JvctKEWQISogEmGCFZAgowggIGMIIBjaADAgECAhRA5aAK7sI50L64g/oGQgU9Z1UTADAKBggqhkjOPQQDAzBJMRcwFQYDVQQKEw5BbnRocm9waWMsIFBCQzEuMCwGA1UEAxMlQW50aHJvcGljIENvbnRlbnQgQ3JlZGVudGlhbHMgUm9vdCBDQTAeFw0yNjA4MDcxODQzNTZaFw0yODA4MDYxOTQzNTZaMEQxFzAVBgNVBAoTDkFudGhyb3BpYywgUEJDMSkwJwYDVQQDEyBBbnRocm9waWMgQ2xhdWRlIENvbnRlbnQgU2lnbmluZzBZMBMGByqGSM49AgEGCCqGSM49AwEHA0IABJh6CmvLUBgFFNU0vUKlOVtE6djd17L5SuwX0LemFisBM3dkd/3cyjxFA3Qo5S46fX0/ihY0VZ7mfb9KF703t5OjWDBWMA4GA1UdDwEB/wQEAwIHgDAVBgNVHSUEDjAMBgorBgEEAYPoXgIBMAwGA1UdEwEB/wQCMAAwHwYDVR0jBBgwFoAUzlHiBIFOZFsj+OPEz5o+nMHXXMIwCgYIKoZIzj0EAwMDZwAwZAIwMXMdFJ4BetLLVY7ORuE9noqbbAZOZn/aArXyTwFAZfKrPzxF2vPoJNf1+UCdg1XGAjBwX1zd9WGqYkqmL5SFqw1QySjr1zJfpJM9+1rdDwSPLMOPOjKuiXjoU/pUUeG9RwmhY3BhZFkNngAAAAAAAAAAAAAAAAAAAAAAAAAAAAAAAAAAAAAAAAAAAAAAAAAAAAAAAAAAAAAAAAAAAAAAAAAAAAAAAAAAAAAAAAAAAAAAAAAAAAAAAAAAAAAAAAAAAAAAAAAAAAAAAAAAAAAAAAAAAAAAAAAAAAAAAAAAAAAAAAAAAAAAAAAAAAAAAAAAAAAAAAAAAAAAAAAAAAAAAAAAAAAAAAAAAAAAAAAAAAAAAAAAAAAAAAAAAAAAAAAAAAAAAAAAAAAAAAAAAAAAAAAAAAAAAAAAAAAAAAAAAAAAAAAAAAAAAAAAAAAAAAAAAAAAAAAAAAAAAAAAAAAAAAAAAAAAAAAAAAAAAAAAAAAAAAAAAAAAAAAAAAAAAAAAAAAAAAAAAAAAAAAAAAAAAAAAAAAAAAAAAAAAAAAAAAAAAAAAAAAAAAAAAAAAAAAAAAAAAAAAAAAAAAAAAAAAAAAAAAAAAAAAAAAAAAAAAAAAAAAAAAAAAAAAAAAAAAAAAAAAAAAAAAAAAAAAAAAAAAAAAAAAAAAAAAAAAAAAAAAAAAAAAAAAAAAAAAAAAAAAAAAAAAAAAAAAAAAAAAAAAAAAAAAAAAAAAAAAAAAAAAAAAAAAAAAAAAAAAAAAAAAAAAAAAAAAAAAAAAAAAAAAAAAAAAAAAAAAAAAAAAAAAAAAAAAAAAAAAAAAAAAAAAAAAAAAAAAAAAAAAAAAAAAAAAAAAAAAAAAAAAAAAAAAAAAAAAAAAAAAAAAAAAAAAAAAAAAAAAAAAAAAAAAAAAAAAAAAAAAAAAAAAAAAAAAAAAAAAAAAAAAAAAAAAAAAAAAAAAAAAAAAAAAAAAAAAAAAAAAAAAAAAAAAAAAAAAAAAAAAAAAAAAAAAAAAAAAAAAAAAAAAAAAAAAAAAAAAAAAAAAAAAAAAAAAAAAAAAAAAAAAAAAAAAAAAAAAAAAAAAAAAAAAAAAAAAAAAAAAAAAAAAAAAAAAAAAAAAAAAAAAAAAAAAAAAAAAAAAAAAAAAAAAAAAAAAAAAAAAAAAAAAAAAAAAAAAAAAAAAAAAAAAAAAAAAAAAAAAAAAAAAAAAAAAAAAAAAAAAAAAAAAAAAAAAAAAAAAAAAAAAAAAAAAAAAAAAAAAAAAAAAAAAAAAAAAAAAAAAAAAAAAAAAAAAAAAAAAAAAAAAAAAAAAAAAAAAAAAAAAAAAAAAAAAAAAAAAAAAAAAAAAAAAAAAAAAAAAAAAAAAAAAAAAAAAAAAAAAAAAAAAAAAAAAAAAAAAAAAAAAAAAAAAAAAAAAAAAAAAAAAAAAAAAAAAAAAAAAAAAAAAAAAAAAAAAAAAAAAAAAAAAAAAAAAAAAAAAAAAAAAAAAAAAAAAAAAAAAAAAAAAAAAAAAAAAAAAAAAAAAAAAAAAAAAAAAAAAAAAAAAAAAAAAAAAAAAAAAAAAAAAAAAAAAAAAAAAAAAAAAAAAAAAAAAAAAAAAAAAAAAAAAAAAAAAAAAAAAAAAAAAAAAAAAAAAAAAAAAAAAAAAAAAAAAAAAAAAAAAAAAAAAAAAAAAAAAAAAAAAAAAAAAAAAAAAAAAAAAAAAAAAAAAAAAAAAAAAAAAAAAAAAAAAAAAAAAAAAAAAAAAAAAAAAAAAAAAAAAAAAAAAAAAAAAAAAAAAAAAAAAAAAAAAAAAAAAAAAAAAAAAAAAAAAAAAAAAAAAAAAAAAAAAAAAAAAAAAAAAAAAAAAAAAAAAAAAAAAAAAAAAAAAAAAAAAAAAAAAAAAAAAAAAAAAAAAAAAAAAAAAAAAAAAAAAAAAAAAAAAAAAAAAAAAAAAAAAAAAAAAAAAAAAAAAAAAAAAAAAAAAAAAAAAAAAAAAAAAAAAAAAAAAAAAAAAAAAAAAAAAAAAAAAAAAAAAAAAAAAAAAAAAAAAAAAAAAAAAAAAAAAAAAAAAAAAAAAAAAAAAAAAAAAAAAAAAAAAAAAAAAAAAAAAAAAAAAAAAAAAAAAAAAAAAAAAAAAAAAAAAAAAAAAAAAAAAAAAAAAAAAAAAAAAAAAAAAAAAAAAAAAAAAAAAAAAAAAAAAAAAAAAAAAAAAAAAAAAAAAAAAAAAAAAAAAAAAAAAAAAAAAAAAAAAAAAAAAAAAAAAAAAAAAAAAAAAAAAAAAAAAAAAAAAAAAAAAAAAAAAAAAAAAAAAAAAAAAAAAAAAAAAAAAAAAAAAAAAAAAAAAAAAAAAAAAAAAAAAAAAAAAAAAAAAAAAAAAAAAAAAAAAAAAAAAAAAAAAAAAAAAAAAAAAAAAAAAAAAAAAAAAAAAAAAAAAAAAAAAAAAAAAAAAAAAAAAAAAAAAAAAAAAAAAAAAAAAAAAAAAAAAAAAAAAAAAAAAAAAAAAAAAAAAAAAAAAAAAAAAAAAAAAAAAAAAAAAAAAAAAAAAAAAAAAAAAAAAAAAAAAAAAAAAAAAAAAAAAAAAAAAAAAAAAAAAAAAAAAAAAAAAAAAAAAAAAAAAAAAAAAAAAAAAAAAAAAAAAAAAAAAAAAAAAAAAAAAAAAAAAAAAAAAAAAAAAAAAAAAAAAAAAAAAAAAAAAAAAAAAAAAAAAAAAAAAAAAAAAAAAAAAAAAAAAAAAAAAAAAAAAAAAAAAAAAAAAAAAAAAAAAAAAAAAAAAAAAAAAAAAAAAAAAAAAAAAAAAAAAAAAAAAAAAAAAAAAAAAAAAAAAAAAAAAAAAAAAAAAAAAAAAAAAAAAAAAAAAAAAAAAAAAAAAAAAAAAAAAAAAAAAAAAAAAAAAAAAAAAAAAAAAAAAAAAAAAAAAAAAAAAAAAAAAAAAAAAAAAAAAAAAAAAAAAAAAAAAAAAAAAAAAAAAAAAAAAAAAAAAAAAAAAAAAAAAAAAAAAAAAAAAAAAAAAAAAAAAAAAAAAAAAAAAAAAAAAAAAAAAAAAAAAAAAAAAAAAAAAAAAAAAAAAAAAAAAAAAAAAAAAAAAAAAAAAAAAAAAAAAAAAAAAAAAAAAAAAAAAAAAAAAAAAAAAAAAAAAAAAAAAAAAAAAAAAAAAAAAAAAAAAAAAAAAAAAAAAAAAAAAAAAAAAAAAAAAAAAAAAAAAAAAAAAAAAAAAAAAAAAAAAAAAAAAAAAAAAAAAAAAAAAAAAAAAAAAAAAAAAAAAAAAAAAAAAAAAAAAAAAAAAAAAAAAAAAAAAAAAAAAAAAAAAAAAAAAAAAAAAAAAAAAAAAAAAAAAAAAAAAAAAAAAAAAAAAAAAAAAAAAAAAAAAAAAAAAAAAAAAAAAAAAAAAAAAAAAAAAAAAAAAAAAAAAAAAAAAAAAAAAAAAAAAAAAAAAAAAAAAAAAAAAAAAAAAAAAAAAAAAAAAAAAAAAAAAAAAAAAAAAAAAAAAAAAAAAAAAAAAAAAAAAAAAAAAAAAAAAAAAAAAAAAAAAAAAAAAAAAAAAAAAAAAAAAAAAAAAAAAAAAAAAAAAAAAAAAAAAAAAAAAAAAAAAAAAAAAAAAAAAAAAAAAAAAAAAAAAAAAAAAAAAAAAAAAAAAAAAAAAAAAAAAAAAAAAAAAAAAAAAAAAAAAAAAAAAAAAAAAAAAAAAAAAAAAAAAAAAAAAAAAAAAAAAAAAAAAAAAAAAAAAAAAAAAAAAAAAAAAAAAAAAAAAAAAAAAAAAAAAAAAAAAAAAAAAAAAAAAAAAAAAAAAAAAAAAAAAAAAAAAAAAAAAAAAAAAAAAAAAAAAAAAAAAAAAAAAAAAAAAAAAAAAAAAAAAAAAAAAAAAAAAAAAAAAAAAAAAAAAAAAAAAAAAAAAAAAAAAAAAAAAAAAAAAAAAAAAAAAAAAAAAAAAAAAAAAAAAAAAAAAAAAAAAAAAAAAAAAAAAAAAAAAAAAAAAAAAAAAAAAAAAAAAAAAAAAAAAAAAAAAAAAAAAAAAAAAAAAAAAAAAAAAAAAAAAAAAAAAAAAAAAAAAAAAAAAAAAAAAAAAAAAAAAAAAAAAAAAAAAAAAAAAAAAAAAAAAAAAAAAAAAAAAAAAAAAAAAAAAAAAAAAAAAAAAAAAAAAAAAAAAAAAAAAAAAAAAAAAAAAAAAAAAAAAAAAAAAAAAAAAAAAAAAAAAAAAAAAAAAAAAAAAAAAAAAAAAAAAAAAAAAAAAAAAAAAAAAAAAAAAAAAAAAAAAAAAAAAAAAAAAAAAAAAAAAAAAAAAAAAAAAAAAAAAAAAAAAAAAAAAAAAAAAAAAAAAAAAAAAAAAAAAAAAAAAAAAAAAAAAAAAAAAAAAAAAAAAAAAAAAAAAAAAAAAAAAAAAAAAAAAAAAAAAAAAAAAAAAAAAAAAAAAAAAAAAAAAAAAAAAAAAAAAAAAAAAAAAAAAAAAAAAAAAAAAAAAAAAAAAAAAAAAAAAAAAAAAAAAAAAAAAAAAAAAAAAAAAAAAAAAAAAAAAAAAAAAAAAAAAAAAAAAAAAAAAAAAAAAAAAAAAAAAAAAAAAAAAAAAAAAAAAAAAAAAAAAAAAAAAAAAAAAAAAAAAAAAAAAAAAAAAAAAAAAAAAAAAAAAAAAAAAAAAAAAAAAAAAAAAAAAAAAAAAAAAAAAAAAAAAAAAAAAAAAAAAAAAAAAAAAAAAAAAAAAAAAAAAAAAAAAAAAAAAAAAAAAAAAAAAAAAAAAAAAAAAAAAAAAAAAAAAAAAAAAAAAAAAAAAAAAAAAAAAAAAAAAAAAAAAAAAAAAAAAAAAAAAAAAAAAAAPZYQLeh4Pdm3/aqtJXmVadttpvBRtYnOht50ElVuYl/i8mp+PMgbAMQUtgKQ8BjhySKnlwut3iAbvkIUKW5P9/QpwY=</c2pa:manifest></metadata>
<path d="M94.0007 133.408C111.617 133.408 125.898 121.827 125.898 107.542C125.898 93.2563 111.617 81.6755 94.0007 81.6755C76.3844 81.6755 62.1035 93.2563 62.1035 107.542C62.1035 121.827 76.3844 133.408 94.0007 133.408Z" fill="#F7BA65"></path>
<path d="M94.0002 24C59.477 24 58.582 60.9791 58.582 60.9791V66.5644H129.406V60.9791C129.406 60.9791 128.523 24 94.0002 24Z" fill="#dcdfe6"></path>
<path d="M91.3827 58.7937C74.3852 58.7937 66.6467 32.3262 80.3505 26.354C59.2258 34.4946 58.582 60.979 58.582 60.979V66.5643H91.3827V58.7937Z" fill="#c3c7d1"></path>
<path d="M156.105 172.153L151.088 150.591C149.529 143.891 144.524 138.525 137.949 136.505L109.363 127.72H78.636L50.0504 136.504C43.4748 138.525 38.4698 143.891 36.911 150.591L31.8945 172.153C30.4845 178.21 35.0823 184 41.3004 184H146.698C152.916 184 157.514 178.21 156.105 172.153Z" fill="#dcdfe6"></path>
<path d="M78.6358 127.72L50.0502 136.505C43.4746 138.525 38.4696 143.891 36.9108 150.591L31.8942 172.153C30.4849 178.21 35.0827 184 41.3008 184H129.113C99.9433 184 78.6358 156.488 78.6358 127.72Z" fill="#c3c7d1"></path>
<path d="M41.3008 184L46.8392 166.275C47.3595 164.609 49.7808 164.846 49.9745 166.579C50.6492 172.61 52.8286 179.758 58.8858 184H41.3008Z" fill="#a6abb8"></path>
<path d="M146.698 184L141.16 166.275C140.64 164.609 138.218 164.846 138.025 166.579C137.35 172.61 135.17 179.758 129.113 184H146.698Z" fill="#c3c7d1"></path>
<path d="M78.6367 127.72C78.6367 145.886 94.0005 157.064 94.0005 157.064C94.0005 157.064 109.368 145.886 109.368 127.72H78.6367Z" fill="#f7f8fa"></path>
<path d="M112.771 104.898H75.2285C79.6223 114.302 78.636 127.72 78.636 127.72C78.636 127.72 81.006 135.378 93.9998 135.378C106.994 135.378 109.364 127.72 109.364 127.72C109.364 127.72 108.377 114.302 112.771 104.898Z" fill="#F5D6A7"></path>
<path d="M94.0002 51.8267C66.4608 51.8267 58.7342 72.6207 58.5977 72.9942C58.6773 76.2064 59.0623 79.3282 59.7208 82.3195H128.266C128.927 79.3173 129.312 76.1835 129.39 72.9588C129.003 71.9342 121.081 51.8267 94.0002 51.8267Z" fill="#F7BA65"></path>
<path d="M68.1498 94.5217C73.302 93.1412 76.0798 86.8013 74.3542 80.361C72.6287 73.9207 67.0532 69.8189 61.901 71.1993C56.7489 72.5797 53.9711 78.9196 55.6967 85.3599C57.4222 91.8002 62.9977 95.9021 68.1498 94.5217Z" fill="#F5D6A7"></path>
<path d="M132.301 85.3624C134.027 78.9221 131.249 72.5822 126.097 71.2017C120.945 69.8213 115.369 73.9232 113.644 80.3635C111.918 86.8038 114.696 93.1437 119.848 94.5241C125 95.9045 130.576 91.8027 132.301 85.3624Z" fill="#F3DBB9"></path>
<path d="M66.1124 87.0971C66.0862 86.769 65.7283 83.8631 61.3302 82.8824C60.0671 82.6006 59.2712 81.3481 59.5527 80.0846C59.8346 78.8215 61.0865 78.0271 62.3505 78.3071C70.4299 80.1093 70.7824 86.5902 70.7937 86.8656L66.1099 87.0537L66.1124 87.0971Z" fill="#F5C67F"></path>
<path d="M121.887 87.0973L121.889 87.0536L117.205 86.8654C117.216 86.5901 117.569 80.1092 125.648 78.307C126.912 78.0267 128.164 78.8211 128.446 80.0845C128.727 81.3479 127.932 82.6004 126.668 82.8823C122.271 83.8632 121.913 86.7692 121.887 87.0973Z" fill="#F6D094"></path>
<path d="M118.233 93.7819C119.217 90.3713 119.755 86.6938 119.755 82.8594C119.755 65.0797 108.224 50.6663 94.0005 50.6663C79.7767 50.6663 68.2461 65.0797 68.2461 82.8594C68.2461 86.6941 68.7836 90.3713 69.7677 93.7819H118.233Z" fill="#F7EAD3"></path>
<path d="M84.2586 93.7819C83.2739 90.3709 82.733 86.6947 82.733 82.8594C82.733 68.2238 90.547 55.8709 101.244 51.9591C98.9461 51.1188 96.5158 50.6663 94.0005 50.6663C79.7767 50.6663 68.2461 65.0797 68.2461 82.8594C68.2461 86.6941 68.7836 90.3713 69.7677 93.7819H84.2586Z" fill="#F3DBB9"></path>
<path d="M58.5938 66.5644C58.5938 66.5644 66.9047 45.8706 93.9994 45.8706C121.094 45.8706 129.405 66.5644 129.405 66.5644V73.0031C129.405 73.0031 121.094 58.7478 93.9994 58.7478C66.9047 58.7478 58.5938 73.0031 58.5938 73.0031V66.5644ZM93.9994 87.0262C83.9066 87.0262 70.6447 93.4578 69.7928 93.8759C73.3922 106.23 82.8713 115.052 93.9994 115.052C105.128 115.052 114.607 106.23 118.206 93.8759C117.354 93.4578 104.092 87.0262 93.9994 87.0262Z" fill="#eceef2"></path>
<path d="M83.1719 88.7806C76.2963 90.7175 70.3538 93.6003 69.7928 93.8759C73.3922 106.23 82.8713 115.052 93.9994 115.052C96.5147 115.052 98.945 114.6 101.243 113.76C92.0247 110.388 84.9528 100.747 83.1719 88.7806ZM58.5938 66.5643V73.0031C58.5938 73.0031 66.3672 59.6731 91.3819 58.7943C84.7066 58.7943 79.4603 54.7115 76.3791 49.3918C63.1209 55.2981 58.5938 66.5643 58.5938 66.5643Z" fill="#dcdfe6"></path>
<path d="M123.637 168.038H113.979C112.684 168.038 111.635 166.989 111.635 165.694C111.635 164.4 112.684 163.351 113.979 163.351H123.637C124.931 163.351 125.98 164.4 125.98 165.694C125.98 166.989 124.931 168.038 123.637 168.038Z" fill="#888e9c"></path>
<path d="M104.761 84.0194C103.467 84.0194 102.418 82.9704 102.418 81.6757V78.4563C102.418 77.1616 103.467 76.1125 104.761 76.1125C106.056 76.1125 107.105 77.1616 107.105 78.4563V81.6757C107.105 82.97 106.056 84.0194 104.761 84.0194ZM83.2402 84.0194C81.9459 84.0194 80.8965 82.9704 80.8965 81.6757V78.4563C80.8965 77.1616 81.9459 76.1125 83.2402 76.1125C84.5346 76.1125 85.584 77.1616 85.584 78.4563V81.6757C85.584 82.97 84.5346 84.0194 83.2402 84.0194Z" fill="#4f5361"></path>
<path d="M84.8483 72.5271H81.6289C80.3345 72.5271 79.2852 71.478 79.2852 70.1833C79.2852 68.8887 80.3345 67.8396 81.6289 67.8396H84.8483C86.1427 67.8396 87.192 68.8887 87.192 70.1833C87.192 71.478 86.1427 72.5271 84.8483 72.5271ZM106.369 72.5271H103.15C101.855 72.5271 100.806 71.478 100.806 70.1833C100.806 68.8887 101.855 67.8396 103.15 67.8396H106.369C107.664 67.8396 108.713 68.8887 108.713 70.1833C108.713 71.478 107.664 72.5271 106.369 72.5271Z" fill="#b03716"></path>
<path d="M110.592 107.478L109.448 107.087C103.457 105.038 98.2591 103.999 94 103.999C89.7619 103.999 84.5925 105.028 78.6359 107.058L77.4072 107.477C78.6841 108.823 80.0653 110.019 81.5366 111.038C86.3612 109.498 90.6481 108.686 94 108.686C97.3522 108.686 101.638 109.498 106.463 111.038C107.934 110.019 109.316 108.824 110.592 107.478ZM74.5575 103.964C79.1259 102.049 87.3819 99.0279 94.0003 99.0279C100.634 99.0279 108.923 102.069 113.443 103.964C114.328 102.691 115.134 101.33 115.853 99.8929L115.533 99.7579C110.75 97.7345 101.592 94.3401 94.0003 94.3401C86.3687 94.3401 77.1622 97.7648 72.3534 99.806L72.1484 99.8932C72.8666 101.33 73.6722 102.691 74.5575 103.964Z" fill="#c3c7d1"></path>
<rect x="2" y="2" width="184" height="184" rx="92" stroke="#b03716" stroke-width="4"></rect>
</svg>