<svg xmlns="http://www.w3.org/2000/svg" xmlns:xlink="http://www.w3.org/1999/xlink" width="390" height="844" fill="none" viewBox="0 0 390 844"><path fill="#f9f9fc" d="M0 0h390v844H0z"/><g clip-path="url(#a)"><path fill="#424242" d="m49.51 67.87-1.78-1.77-9.89 9.9 9.9 9.9 1.77-1.77L41.38 76z"/></g><path fill="url(#b)" d="M65 252h260v300H65z"/><path stroke="#424242" stroke-width="3" d="M193.5 541V264"/><path fill="#000" d="M36.18 134.3v3.5h4.7v2.22h-4.7v3.7h5.3V146h-8.1v-13.98h8.1v2.28zm11.584 11.88q-1.36 0-2.44-.48-1.08-.5-1.72-1.34a3.4 3.4 0 0 1-.68-1.86h2.82q.08.64.62 1.06.561.42 1.38.42.8 0 1.24-.32.46-.32.46-.82 0-.54-.56-.8-.54-.28-1.74-.6-1.239-.3-2.04-.62a3.6 3.6 0 0 1-1.36-.98q-.56-.66-.56-1.78 0-.92.52-1.68.54-.76 1.52-1.2 1-.44 2.34-.44 1.98 0 3.16 1 1.18.98 1.3 2.66h-2.68q-.06-.66-.56-1.04-.48-.4-1.3-.4-.76 0-1.18.28a.9.9 0 0 0-.4.78q0 .56.56.86.561.28 1.74.58 1.2.3 1.98.62t1.34 1q.58.66.6 1.76 0 .96-.54 1.72-.52.76-1.52 1.2-.98.42-2.3.42m9.419-8.96v5.36q0 .56.26.82.28.24.92.24h1.3V146h-1.76q-3.54 0-3.54-3.44v-5.34h-1.32v-2.3h1.32v-2.74h2.82v2.74h2.48v2.3zm10.234-2.46q1.26 0 2.24.56.98.54 1.52 1.62.56 1.06.56 2.56v6.5h-2.8v-6.12q0-1.32-.66-2.02-.66-.72-1.8-.72-1.16 0-1.84.72-.66.7-.66 2.02V146h-2.8v-14.8h2.8v5.1q.54-.72 1.44-1.12.9-.42 2-.42m16.783 5.46q0 .6-.08 1.08h-8.1q.099 1.2.84 1.88.74.68 1.82.68 1.56 0 2.22-1.34h3.02q-.48 1.6-1.84 2.64-1.36 1.02-3.34 1.02-1.6 0-2.88-.7a5.15 5.15 0 0 1-1.98-2.02q-.7-1.3-.7-3 0-1.72.7-3.02a4.9 4.9 0 0 1 1.96-2q1.26-.7 2.9-.7 1.58 0 2.82.68 1.26.68 1.94 1.94.7 1.24.7 2.86m-2.9-.8q-.021-1.08-.78-1.72-.76-.66-1.86-.66-1.04 0-1.76.64-.7.62-.86 1.74zm7.243-2.78a3.96 3.96 0 0 1 1.4-1.38q.88-.5 2-.5v2.94h-.74q-1.32 0-2 .62-.66.62-.66 2.16V146h-2.8v-11.08h2.8zm19.232-.28q0 1.12-.54 2.1-.52.98-1.66 1.58-1.12.6-2.84.6h-2.34V146h-2.8v-13.96h5.14q1.62 0 2.76.56t1.7 1.54q.58.98.58 2.22m-5.16 2.02q1.16 0 1.72-.52.56-.54.56-1.5 0-2.04-2.28-2.04h-2.22v4.06zm5.928 2.04q0-1.68.66-2.98.68-1.3 1.82-2a4.9 4.9 0 0 1 2.58-.7q1.239 0 2.16.5.939.5 1.5 1.26v-1.58h2.82V146h-2.82v-1.62q-.54.78-1.5 1.3-.94.5-2.18.5-1.4 0-2.56-.72-1.14-.72-1.82-2.02-.66-1.32-.66-3.02m8.72.04q0-1.02-.4-1.74a2.74 2.74 0 0 0-1.08-1.12 2.83 2.83 0 0 0-1.46-.4q-.78 0-1.44.38t-1.08 1.12q-.4.72-.4 1.72t.4 1.76q.42.74 1.08 1.14.68.4 1.44.4a2.95 2.95 0 0 0 1.46-.38q.68-.4 1.08-1.12.4-.74.4-1.76m7.855-3.82a3.95 3.95 0 0 1 1.4-1.38q.88-.5 2-.5v2.94h-.74q-1.32 0-2 .62-.66.62-.66 2.16V146h-2.8v-11.08h2.8zm11.345 9.36-3.76-4.72V146h-2.8v-14.8h2.8v8.42l3.72-4.7h3.64l-4.88 5.56 4.92 5.52zm5.18-13.96h2.94l-2.16 5.04h-1.92zm8.688 14.14q-1.36 0-2.44-.48-1.08-.5-1.72-1.34a3.4 3.4 0 0 1-.68-1.86h2.82q.08.64.62 1.06.56.42 1.38.42.8 0 1.24-.32.46-.32.46-.82 0-.54-.56-.8-.54-.28-1.74-.6-1.24-.3-2.04-.62a3.6 3.6 0 0 1-1.36-.98q-.56-.66-.56-1.78 0-.92.52-1.68.54-.76 1.52-1.2 1-.44 2.34-.44 1.98 0 3.16 1 1.18.98 1.3 2.66h-2.68q-.06-.66-.56-1.04-.48-.4-1.3-.4-.76 0-1.18.28a.9.9 0 0 0-.4.78q0 .56.56.86.56.28 1.74.58 1.2.3 1.98.62t1.34 1q.58.66.6 1.76 0 .96-.54 1.72-.52.76-1.52 1.2-.98.42-2.3.42m22.364-.18h-2.8l-6.34-9.58V146h-2.8v-13.98h2.8l6.34 9.6v-9.6h2.8zm1.547-5.58q0-1.68.66-2.98.68-1.3 1.82-2a4.9 4.9 0 0 1 2.58-.7q1.24 0 2.16.5.94.5 1.5 1.26v-1.58h2.82V146h-2.82v-1.62q-.54.78-1.5 1.3-.94.5-2.18.5-1.4 0-2.56-.72-1.14-.72-1.82-2.02-.66-1.32-.66-3.02m8.72.04q0-1.02-.4-1.74a2.74 2.74 0 0 0-1.08-1.12q-.68-.4-1.46-.4t-1.44.38-1.08 1.12q-.4.72-.4 1.72t.4 1.76q.42.74 1.08 1.14.68.4 1.44.4.78 0 1.46-.38.68-.4 1.08-1.12.4-.74.4-1.76m9.295 5.72q-1.36 0-2.44-.48-1.08-.5-1.72-1.34a3.4 3.4 0 0 1-.68-1.86h2.82q.08.64.62 1.06.56.42 1.38.42.8 0 1.24-.32.46-.32.46-.82 0-.54-.56-.8-.54-.28-1.74-.6-1.24-.3-2.04-.62a3.6 3.6 0 0 1-1.36-.98q-.56-.66-.56-1.78 0-.92.52-1.68.54-.76 1.52-1.2.999-.44 2.34-.44 1.98 0 3.16 1 1.18.98 1.3 2.66h-2.68q-.06-.66-.56-1.04-.48-.4-1.3-.4-.76 0-1.18.28a.9.9 0 0 0-.4.78q0 .56.56.86.56.28 1.74.58 1.2.3 1.98.62t1.34 1q.579.66.6 1.76 0 .96-.54 1.72-.52.76-1.52 1.2-.98.42-2.3.42m5.438-5.76q0-1.68.66-2.98.68-1.3 1.82-2a4.9 4.9 0 0 1 2.58-.7q1.24 0 2.16.5.94.5 1.5 1.26v-1.58h2.82V146h-2.82v-1.62q-.54.78-1.5 1.3-.94.5-2.18.5-1.4 0-2.56-.72-1.14-.72-1.82-2.02-.66-1.32-.66-3.02m8.72.04q0-1.02-.4-1.74a2.74 2.74 0 0 0-1.08-1.12q-.68-.4-1.46-.4t-1.44.38-1.08 1.12q-.4.72-.4 1.72t.4 1.76q.42.74 1.08 1.14.68.4 1.44.4.78 0 1.46-.38.68-.4 1.08-1.12.4-.74.4-1.76m7.855-9.26V146h-2.8v-14.8zm11.352 14.94q-1.46 0-2.64-.5-1.16-.5-1.84-1.44t-.7-2.22h3q.06.86.6 1.36.56.5 1.52.5.98 0 1.54-.46.56-.48.56-1.24 0-.62-.38-1.02a2.54 2.54 0 0 0-.96-.62q-.56-.24-1.56-.52-1.36-.4-2.22-.78a4.1 4.1 0 0 1-1.46-1.18q-.6-.8-.6-2.12 0-1.24.62-2.16t1.74-1.4q1.12-.5 2.56-.5 2.16 0 3.5 1.06 1.36 1.04 1.5 2.92h-3.08a1.56 1.56 0 0 0-.62-1.18q-.56-.48-1.5-.48-.82 0-1.32.42-.48.42-.48 1.22 0 .56.36.94.38.36.92.6.56.22 1.56.52 1.36.4 2.22.8a4 4 0 0 1 1.48 1.2q.62.8.62 2.1 0 1.12-.58 2.08t-1.7 1.54q-1.12.56-2.66.56m17.467-11.22-6.86 16.32h-2.98l2.4-5.52-4.44-10.8h3.14l2.86 7.74 2.9-7.74zm14.77-.16q2.04 0 3.28 1.26 1.26 1.24 1.26 3.48v6.5h-2.8v-6.12q0-1.3-.66-1.98-.66-.7-1.8-.7t-1.82.7q-.66.68-.66 1.98V146h-2.8v-6.12q0-1.3-.66-1.98-.66-.7-1.8-.7-1.16 0-1.84.7-.66.68-.66 1.98V146h-2.8v-11.08h2.8v1.34q.54-.7 1.38-1.1.86-.4 1.88-.4 1.3 0 2.32.56 1.02.54 1.58 1.56.54-.96 1.56-1.54a4.5 4.5 0 0 1 2.24-.58m20.457 0q2.04 0 3.28 1.26 1.26 1.24 1.26 3.48v6.5h-2.8v-6.12q0-1.3-.66-1.98-.66-.7-1.8-.7t-1.82.7q-.66.68-.66 1.98V146h-2.8v-6.12q0-1.3-.66-1.98-.66-.7-1.8-.7-1.16 0-1.84.7-.66.68-.66 1.98V146h-2.8v-11.08h2.8v1.34q.54-.7 1.38-1.1.86-.4 1.88-.4 1.3 0 2.32.56 1.02.54 1.58 1.56.54-.96 1.56-1.54a4.5 4.5 0 0 1 2.24-.58m16.997 5.46q0 .6-.08 1.08h-8.1q.099 1.2.84 1.88.74.68 1.82.68 1.56 0 2.22-1.34h3.02q-.48 1.6-1.84 2.64-1.36 1.02-3.34 1.02-1.6 0-2.88-.7a5.15 5.15 0 0 1-1.98-2.02q-.7-1.3-.7-3 0-1.72.7-3.02a4.9 4.9 0 0 1 1.96-2q1.26-.7 2.9-.7 1.58 0 2.82.68 1.26.68 1.94 1.94.7 1.24.7 2.86m-2.9-.8q-.021-1.08-.78-1.72-.76-.66-1.86-.66-1.04 0-1.76.64-.7.62-.86 1.74zm7.704-2.2v5.36q0 .56.26.82.28.24.92.24h1.3V146h-1.76q-3.54 0-3.54-3.44v-5.34h-1.32v-2.3h1.32v-2.74h2.82v2.74h2.48v2.3zm6.793-.58a3.96 3.96 0 0 1 1.4-1.38q.88-.5 2-.5v2.94h-.74q-1.32 0-2 .62-.66.62-.66 2.16V146h-2.8v-11.08h2.8zm15.386-1.72-6.86 16.32h-2.98l2.4-5.52-4.44-10.8h3.14l2.86 7.74 2.9-7.74z"/><g clip-path="url(#c)"><path fill="#000" d="M102.235 64.58 96.993 60c-1.269 1.435-1.434 3.697 0 4.966 1.435 1.269 3.973 1.048 5.242-.387M120.166 60l-4.911 4.58c1.269 1.434 3.476 1.654 4.911.386 1.434-1.27 1.269-3.531 0-4.966m-1.6 15.448-2.759-9.379c-.552-1.655-2.317-2.759-3.862-2.759h-6.069c-1.545 0-3.31 1.104-3.862 2.759l-2.759 9.38c0 1.158.718 2.151 1.766 2.537l-2.87 6.842c0 1.544 1.215 4.965 2.759 4.965h16c1.545 0 2.759-3.42 2.759-4.965l-2.979-6.787c1.103-.386 1.876-1.379 1.876-2.593m-12.304-2.924c.607-2.096 1.435-3.145 2.428-3.145s1.82 1.049 2.427 3.145a.49.49 0 0 1-.386.662h-.165c-.221 0-.442-.165-.552-.386-.552-1.876-1.104-2.372-1.379-2.372-.276 0-.828.496-1.38 2.372-.11.276-.386.441-.662.386s-.441-.33-.331-.662M103.669 76a1.106 1.106 0 0 1-1.103-1.103c0-.607.496-1.104 1.103-1.104s1.104.497 1.104 1.104c0 .606-.442 1.103-1.104 1.103m4.966 11.034a2.73 2.73 0 0 1-2.759-2.758c0-1.545 1.214-9.931 2.759-9.931s2.758 8.386 2.758 9.93a2.73 2.73 0 0 1-2.758 2.76M113.6 76a1.106 1.106 0 0 1-1.103-1.103c0-.607.496-1.104 1.103-1.104s1.104.497 1.104 1.104c0 .606-.442 1.103-1.104 1.103m-7.779 16h5.517c.772 0 1.269-.441 1.49-1.103h-8.497c.221.662.717 1.103 1.49 1.103"/></g><path fill="#000" d="M146.517 83h-2.8l-6.34-9.58V83h-2.8V69.02h2.8l6.34 9.6v-9.6h2.8zm1.547-5.58q0-1.68.66-2.98.68-1.3 1.82-2a4.9 4.9 0 0 1 2.58-.7q1.24 0 2.16.5.94.5 1.5 1.26v-1.58h2.82V83h-2.82v-1.62q-.54.78-1.5 1.3-.94.5-2.18.5-1.4 0-2.56-.72-1.14-.72-1.82-2.02-.66-1.32-.66-3.02m8.72.04q0-1.02-.4-1.74a2.73 2.73 0 0 0-1.08-1.12 2.83 2.83 0 0 0-1.46-.4q-.78 0-1.44.38t-1.08 1.12q-.4.72-.4 1.72t.4 1.76q.42.74 1.08 1.14.681.4 1.44.4.78 0 1.46-.38a2.9 2.9 0 0 0 1.08-1.12q.4-.74.4-1.76m9.875 5.68q-1.46 0-2.64-.5-1.16-.5-1.84-1.44t-.7-2.22h3q.06.86.6 1.36.56.5 1.52.5.98 0 1.54-.46.56-.48.56-1.24 0-.62-.38-1.02a2.54 2.54 0 0 0-.96-.62q-.56-.24-1.56-.52-1.36-.4-2.22-.78a4.1 4.1 0 0 1-1.46-1.18q-.6-.8-.6-2.12 0-1.24.62-2.16t1.74-1.4q1.12-.5 2.56-.5 2.16 0 3.5 1.06 1.36 1.04 1.5 2.92h-3.08a1.56 1.56 0 0 0-.62-1.18q-.56-.48-1.5-.48-.82 0-1.32.42-.48.42-.48 1.22 0 .56.36.94.38.36.92.6.56.22 1.56.52 1.36.4 2.22.8a4 4 0 0 1 1.48 1.2q.62.8.62 2.1 0 1.12-.58 2.08t-1.7 1.54q-1.12.56-2.66.56m17.967-14.1-4.72 9.1V83h-2.8v-4.86l-4.74-9.1h3.16l3 6.38 2.98-6.38zm16.335 0V83h-2.8v-9.08l-3.74 9.08h-2.12l-3.76-9.08V83h-2.8V69.04h3.18l4.44 10.38 4.44-10.38zm7.089 14.1q-1.461 0-2.64-.5-1.16-.5-1.84-1.44t-.7-2.22h3q.06.86.6 1.36.56.5 1.52.5.98 0 1.54-.46.56-.48.56-1.24 0-.62-.38-1.02a2.56 2.56 0 0 0-.96-.62q-.561-.24-1.56-.52-1.36-.4-2.22-.78a4.1 4.1 0 0 1-1.46-1.18q-.6-.8-.6-2.12 0-1.24.62-2.16t1.74-1.4q1.12-.5 2.56-.5 2.16 0 3.5 1.06 1.359 1.04 1.5 2.92h-3.08a1.56 1.56 0 0 0-.62-1.18q-.561-.48-1.5-.48-.82 0-1.32.42-.48.42-.48 1.22 0 .56.36.94.38.36.92.6.56.22 1.56.52 1.359.4 2.22.8a4 4 0 0 1 1.48 1.2q.62.8.62 2.1 0 1.12-.58 2.08t-1.7 1.54q-1.12.56-2.66.56m17.327-11.22V83h-2.82v-1.4q-.54.72-1.42 1.14-.86.4-1.88.4-1.3 0-2.3-.54a4 4 0 0 1-1.58-1.62q-.56-1.08-.56-2.56v-6.5h2.8v6.1q0 1.32.66 2.04.66.7 1.8.7 1.16 0 1.82-.7.66-.72.66-2.04v-6.1zm5.063 1.72a3.96 3.96 0 0 1 1.4-1.38q.88-.5 2-.5v2.94h-.74q-1.32 0-2 .62-.66.62-.66 2.16V83h-2.8V71.92h2.8zm9.126-1.9q1.24 0 2.18.5.94.48 1.48 1.26v-1.58h2.82v11.16q0 1.54-.62 2.74a4.54 4.54 0 0 1-1.86 1.92q-1.24.72-3 .72-2.36 0-3.88-1.1-1.5-1.1-1.7-3h2.78q.22.76.94 1.2.74.46 1.78.46 1.22 0 1.98-.74.76-.72.76-2.2v-1.72q-.54.78-1.5 1.3-.94.52-2.16.52-1.4 0-2.56-.72t-1.84-2.02q-.66-1.32-.66-3.02 0-1.68.66-2.98.68-1.3 1.82-2a4.9 4.9 0 0 1 2.58-.7m3.66 5.72q0-1.02-.4-1.74a2.74 2.74 0 0 0-1.08-1.12q-.68-.4-1.46-.4t-1.44.38-1.08 1.12q-.4.72-.4 1.72t.4 1.76q.42.74 1.08 1.14.68.4 1.44.4.78 0 1.46-.38.68-.4 1.08-1.12.4-.74.4-1.76m6.474-6.86q-.74 0-1.24-.46-.48-.48-.48-1.18t.48-1.16q.5-.48 1.24-.48t1.22.48q.5.46.5 1.16t-.5 1.18q-.48.46-1.22.46m1.38 1.32V83h-2.8V71.92zm1.547 5.54q0-1.72.7-3a4.9 4.9 0 0 1 1.94-2q1.24-.72 2.84-.72 2.06 0 3.4 1.04 1.36 1.02 1.82 2.88h-3.02a2.14 2.14 0 0 0-.82-1.12q-.56-.42-1.4-.42-1.2 0-1.9.88-.7.86-.7 2.46 0 1.58.7 2.46.7.86 1.9.86 1.7 0 2.22-1.52h3.02q-.46 1.8-1.82 2.86t-3.4 1.06q-1.6 0-2.84-.7a5.1 5.1 0 0 1-1.94-2q-.7-1.3-.7-3.02m11.531-.04q0-1.68.66-2.98.68-1.3 1.82-2a4.9 4.9 0 0 1 2.58-.7q1.24 0 2.16.5.94.5 1.5 1.26v-1.58h2.82V83h-2.82v-1.62q-.54.78-1.5 1.3-.94.5-2.18.5-1.4 0-2.56-.72-1.14-.72-1.82-2.02-.66-1.32-.66-3.02m8.72.04q0-1.02-.4-1.74a2.74 2.74 0 0 0-1.08-1.12 2.83 2.83 0 0 0-1.46-.4q-.78 0-1.44.38t-1.08 1.12q-.4.72-.4 1.72t.4 1.76q.42.74 1.08 1.14.68.4 1.44.4.78 0 1.46-.38.68-.4 1.08-1.12.4-.74.4-1.76m7.855-9.26V83h-2.8V68.2z"/><rect width="326" height="44" x="32" y="785" fill="#f2f2f2" rx="8"/><path fill="#424242" d="M146.729 813.176a6.3 6.3 0 0 1-2.352-.432 6 6 0 0 1-1.888-1.248 5.8 5.8 0 0 1-1.248-1.856 5.9 5.9 0 0 1-.448-2.304q0-1.232.448-2.288a5.6 5.6 0 0 1 1.248-1.856 5.7 5.7 0 0 1 1.872-1.216 6.1 6.1 0 0 1 2.352-.448q1.344 0 2.384.432a5.8 5.8 0 0 1 1.84 1.184l-1.68 1.696a3.1 3.1 0 0 0-1.088-.752q-.624-.272-1.456-.272-.735 0-1.36.256-.608.24-1.056.704a3.5 3.5 0 0 0-.688 1.12 4.2 4.2 0 0 0-.24 1.44q0 .8.24 1.456.256.656.688 1.12.448.463 1.056.72.625.256 1.36.256.864 0 1.504-.272a3.3 3.3 0 0 0 1.104-.752l1.696 1.696a6.2 6.2 0 0 1-1.872 1.184q-1.04.432-2.416.432m8.508-.016q-1.073 0-1.92-.528a3.84 3.84 0 0 1-1.328-1.44q-.48-.912-.48-2.08t.48-2.08a3.84 3.84 0 0 1 1.328-1.44q.848-.528 1.92-.528.784 0 1.408.304.64.304 1.04.848.4.528.448 1.216v3.36a2.3 2.3 0 0 1-.448 1.232 2.64 2.64 0 0 1-1.024.832 3.3 3.3 0 0 1-1.424.304m.496-2.208q.784 0 1.264-.512.48-.528.48-1.328 0-.545-.224-.96a1.47 1.47 0 0 0-.608-.64 1.66 1.66 0 0 0-.896-.24q-.512 0-.912.24a1.7 1.7 0 0 0-.624.64 2 2 0 0 0-.224.96q0 .528.224.944t.624.656.896.24m1.648 2.048v-2.096l.368-1.888-.368-1.888v-1.904h2.4V813zm8.604.16a3.4 3.4 0 0 1-1.44-.304 2.9 2.9 0 0 1-1.072-.832 2.34 2.34 0 0 1-.48-1.232v-3.28a2.4 2.4 0 0 1 .48-1.248 2.9 2.9 0 0 1 1.072-.88q.656-.32 1.44-.32 1.103 0 1.952.528a3.64 3.64 0 0 1 1.344 1.44q.495.912.496 2.08 0 1.168-.496 2.08a3.64 3.64 0 0 1-1.344 1.44q-.849.528-1.952.528m-.448-2.208a1.69 1.69 0 0 0 1.536-.896q.224-.416.224-.944 0-.545-.224-.96a1.6 1.6 0 0 0-.624-.64 1.66 1.66 0 0 0-.896-.24q-.513 0-.912.24a1.6 1.6 0 0 0-.608.64q-.224.416-.224.96 0 .528.208.944.224.416.624.656t.896.24m-4.032 5.328v-11.056h2.448v2l-.4 1.888.368 1.888v5.28zm10.463-3.28v-10.992h2.448V813zm-1.76-5.696v-2.08h5.968v2.08zm10.503 5.872q-1.073 0-1.904-.432a3.34 3.34 0 0 1-1.28-1.216q-.464-.784-.464-1.792v-4.512h2.448v4.48q0 .4.128.688.144.288.416.448t.656.16q.543 0 .864-.336.32-.352.32-.96v-4.48h2.448v4.496q0 1.024-.464 1.808-.465.768-1.28 1.216-.817.432-1.888.432m5.169-.176v-7.776h2.448V813zm2.448-4.272-1.024-.8q.304-1.36 1.024-2.112t2-.752q.56 0 .976.176.432.16.752.512l-1.456 1.84a1.1 1.1 0 0 0-.4-.272 1.5 1.5 0 0 0-.544-.096q-.609 0-.976.384-.352.368-.352 1.12m8.001 4.448q-1.264 0-2.256-.512a3.95 3.95 0 0 1-1.536-1.456q-.56-.928-.56-2.096t.544-2.08a4 4 0 0 1 1.504-1.456q.944-.528 2.128-.528 1.152 0 2.032.496a3.55 3.55 0 0 1 1.376 1.376q.512.88.512 2.016 0 .208-.032.448a4 4 0 0 1-.08.528l-6.704.016v-1.68l5.664-.016-1.056.704q-.016-.672-.208-1.104a1.38 1.38 0 0 0-.576-.672q-.368-.24-.912-.24-.576 0-1.008.272a1.77 1.77 0 0 0-.656.736q-.224.48-.224 1.168t.24 1.184q.256.48.704.752.464.256 1.088.256.576 0 1.04-.192.464-.208.816-.608l1.344 1.344a3.6 3.6 0 0 1-1.392 1.008 4.7 4.7 0 0 1-1.792.336m8.197-.176v-11.296h2.512V813zm4.463 0v-7.776h2.448V813zm4.976 0v-4.544q0-.592-.368-.912a1.23 1.23 0 0 0-.88-.336q-.368 0-.656.16a1.16 1.16 0 0 0-.464.416 1.3 1.3 0 0 0-.16.672l-.944-.416q0-.929.4-1.584a2.65 2.65 0 0 1 1.088-1.024 3.24 3.24 0 0 1 1.552-.368q.816 0 1.456.368.656.368 1.04 1.024t.384 1.568V813zm4.976 0v-4.544q0-.592-.368-.912a1.23 1.23 0 0 0-.88-.336q-.368 0-.656.16a1.16 1.16 0 0 0-.464.416 1.3 1.3 0 0 0-.16.672l-1.408-.192q.032-.992.464-1.696.448-.72 1.168-1.104.736-.4 1.648-.4.895 0 1.584.384.703.368 1.104 1.072.416.688.416 1.664V813zm7.265.16q-1.073 0-1.92-.528a3.84 3.84 0 0 1-1.328-1.44q-.48-.912-.48-2.08t.48-2.08a3.84 3.84 0 0 1 1.328-1.44q.848-.528 1.92-.528.783 0 1.408.304.64.304 1.04.848.4.528.448 1.216v3.36a2.3 2.3 0 0 1-.448 1.232 2.65 2.65 0 0 1-1.024.832 3.3 3.3 0 0 1-1.424.304m.496-2.208q.784 0 1.264-.512.48-.528.48-1.328 0-.545-.224-.96a1.5 1.5 0 0 0-.608-.64 1.66 1.66 0 0 0-.896-.24q-.513 0-.912.24a1.7 1.7 0 0 0-.624.64q-.224.416-.224.96 0 .528.224.944.223.416.624.656.4.24.896.24M228.35 813v-2.096l.368-1.888-.368-1.888v-1.904h2.4V813zm7.419 3.488q-1.28 0-2.256-.448a3.63 3.63 0 0 1-1.52-1.232l1.504-1.504q.417.496.928.752.528.256 1.264.256.912 0 1.424-.448.528-.448.528-1.264v-1.984l.416-1.696-.368-1.696v-2h2.4v7.312q0 1.2-.56 2.08a3.84 3.84 0 0 1-1.536 1.376q-.976.496-2.224.496m-.112-3.728q-1.071 0-1.904-.512a3.66 3.66 0 0 1-1.312-1.392 4 4 0 0 1-.48-1.952q0-1.088.48-1.952a3.55 3.55 0 0 1 1.312-1.376q.833-.512 1.904-.512.8 0 1.424.304.64.288 1.024.832.4.528.448 1.232v2.96a2.3 2.3 0 0 1-.448 1.232 2.64 2.64 0 0 1-1.024.832 3.3 3.3 0 0 1-1.424.304m.464-2.176q.513 0 .88-.224.384-.224.576-.592a1.8 1.8 0 0 0 .208-.864q0-.48-.208-.864a1.44 1.44 0 0 0-.576-.608 1.66 1.66 0 0 0-.88-.224q-.495 0-.88.224a1.54 1.54 0 0 0-.592.608 1.8 1.8 0 0 0-.208.864q0 .448.208.848.208.384.576.608.384.224.896.224m9.536 2.592q-1.265 0-2.256-.512a3.95 3.95 0 0 1-1.536-1.456q-.56-.928-.56-2.096t.544-2.08a4 4 0 0 1 1.504-1.456q.944-.528 2.128-.528 1.152 0 2.032.496a3.55 3.55 0 0 1 1.376 1.376q.512.88.512 2.016 0 .208-.032.448a4 4 0 0 1-.08.528l-6.704.016v-1.68l5.664-.016-1.056.704q-.016-.672-.208-1.104a1.38 1.38 0 0 0-.576-.672q-.368-.24-.912-.24-.576 0-1.008.272a1.77 1.77 0 0 0-.656.736q-.224.48-.224 1.168t.24 1.184q.256.48.704.752.464.256 1.088.256.576 0 1.04-.192.463-.208.816-.608l1.344 1.344a3.6 3.6 0 0 1-1.392 1.008 4.7 4.7 0 0 1-1.792.336"/><rect width="326" height="44" x="32" y="629" fill="#fff" rx="8"/><rect width="148" height="35" x="39" y="634" fill="#424242" rx="5"/><path fill="#fff" d="M95.526 657v-11.296h1.76l.751 2.256V657zm7.792 0-6.656-8.528.623-2.768 6.657 8.528zm0 0-.672-2.256v-9.04h2.512V657zm7.54.176q-1.2 0-2.176-.528a4.1 4.1 0 0 1-1.52-1.472 3.95 3.95 0 0 1-.56-2.08q0-1.152.56-2.064a4 4 0 0 1 1.52-1.44q.96-.544 2.176-.544t2.176.528 1.52 1.456q.56.912.56 2.064t-.56 2.08a4.1 4.1 0 0 1-1.52 1.472q-.96.528-2.176.528m0-2.224q.528 0 .928-.224a1.57 1.57 0 0 0 .608-.656q.224-.432.224-.976t-.224-.944a1.56 1.56 0 0 0-.624-.64q-.384-.24-.912-.24-.511 0-.912.24a1.56 1.56 0 0 0-.624.64 2 2 0 0 0-.224.96q0 .528.224.96.224.416.624.656.4.224.912.224m8.307 2.24a5.36 5.36 0 0 1-2.592-.672 4.3 4.3 0 0 1-.96-.768l1.392-1.408q.384.416.912.656.528.224 1.152.224.431 0 .656-.128.24-.128.24-.352 0-.288-.288-.432a2.8 2.8 0 0 0-.704-.272l-.912-.272a4 4 0 0 1-.912-.4 2 2 0 0 1-.704-.704q-.273-.464-.272-1.168 0-.751.384-1.296.383-.56 1.088-.88.703-.32 1.648-.32a4.6 4.6 0 0 1 1.824.352 3.2 3.2 0 0 1 1.376 1.008l-1.392 1.408a2.05 2.05 0 0 0-.832-.608 2.4 2.4 0 0 0-.88-.176q-.417 0-.624.128a.36.36 0 0 0-.208.336q0 .24.272.384t.704.256.912.272.912.432.704.736q.272.448.272 1.184 0 1.136-.864 1.808-.849.672-2.304.672m8.336-.016q-1.264 0-2.256-.512a3.95 3.95 0 0 1-1.536-1.456q-.56-.928-.56-2.096t.544-2.08a4 4 0 0 1 1.504-1.456q.944-.528 2.128-.528 1.152 0 2.032.496a3.55 3.55 0 0 1 1.376 1.376q.512.88.512 2.016 0 .208-.032.448a4 4 0 0 1-.08.528l-6.704.016v-1.68l5.664-.016-1.056.704q-.016-.672-.208-1.104a1.38 1.38 0 0 0-.576-.672q-.368-.24-.912-.24-.576 0-1.008.272a1.77 1.77 0 0 0-.656.736q-.224.48-.224 1.168t.24 1.184q.256.48.704.752.464.256 1.088.256.576 0 1.04-.192.463-.208.816-.608l1.344 1.344a3.6 3.6 0 0 1-1.392 1.008 4.7 4.7 0 0 1-1.792.336"/><path fill="#424242" d="M259.479 657v-11.296h2.512V657zm1.92-4.432v-2.16h5.648v2.16zm0-4.704v-2.16h5.904v2.16zm10.291 9.296q-1.072 0-1.92-.528a3.84 3.84 0 0 1-1.328-1.44q-.48-.912-.48-2.08t.48-2.08a3.84 3.84 0 0 1 1.328-1.44q.847-.528 1.92-.528.784 0 1.408.304.64.304 1.04.848.4.528.448 1.216v3.36a2.3 2.3 0 0 1-.448 1.232 2.64 2.64 0 0 1-1.024.832 3.3 3.3 0 0 1-1.424.304m.496-2.208q.784 0 1.264-.512.48-.528.48-1.328 0-.545-.224-.96a1.47 1.47 0 0 0-.608-.64 1.66 1.66 0 0 0-.896-.24q-.511 0-.912.24a1.7 1.7 0 0 0-.624.64 2 2 0 0 0-.224.96q0 .528.224.944t.624.656.896.24m1.648 2.048v-2.096l.368-1.888-.368-1.888v-1.904h2.4V657zm7.884.176q-1.2 0-2.176-.528a3.94 3.94 0 0 1-2.096-3.536q0-1.168.56-2.08a4.07 4.07 0 0 1 1.552-1.456q.975-.528 2.192-.528.911 0 1.664.32a3.8 3.8 0 0 1 1.36.928l-1.568 1.568a1.7 1.7 0 0 0-.64-.448 2.2 2.2 0 0 0-.816-.144q-.528 0-.944.24-.4.224-.64.64-.224.4-.224.944t.224.96q.24.416.656.656.415.24.928.24.48 0 .848-.16.383-.175.656-.48l1.552 1.568a4.2 4.2 0 0 1-1.376.976 4.4 4.4 0 0 1-1.712.32m7.83 0q-1.264 0-2.256-.512a3.95 3.95 0 0 1-1.536-1.456q-.56-.928-.56-2.096t.544-2.08a4 4 0 0 1 1.504-1.456q.943-.528 2.128-.528 1.152 0 2.032.496a3.56 3.56 0 0 1 1.376 1.376q.512.88.512 2.016 0 .208-.032.448a4 4 0 0 1-.08.528l-6.704.016v-1.68l5.664-.016-1.056.704q-.016-.672-.208-1.104a1.38 1.38 0 0 0-.576-.672q-.369-.24-.912-.24-.576 0-1.008.272a1.77 1.77 0 0 0-.656.736q-.224.48-.224 1.168t.24 1.184q.255.48.704.752.464.256 1.088.256a2.7 2.7 0 0 0 1.04-.192q.464-.208.816-.608l1.344 1.344a3.6 3.6 0 0 1-1.392 1.008 4.7 4.7 0 0 1-1.792.336"/><path fill="#000" d="m44.546 619.09 5.488-7.91h1.54l-5.488 7.91zm0 .91v-.91l1.12-.294h5.81V620zm.294-8.512v-1.204h6.734v.896l-1.134.308zm10.54 8.652a3.4 3.4 0 0 1-1.764-.462 3.46 3.46 0 0 1-1.246-1.246 3.5 3.5 0 0 1-.462-1.778q0-.966.462-1.736a3.46 3.46 0 0 1 1.246-1.246 3.4 3.4 0 0 1 1.764-.462q.967 0 1.75.462.798.448 1.26 1.232t.462 1.75q0 .98-.462 1.778a3.43 3.43 0 0 1-1.26 1.246 3.4 3.4 0 0 1-1.75.462m0-1.218q.63 0 1.12-.294t.77-.798q.28-.518.28-1.176 0-.644-.294-1.148a2 2 0 0 0-.77-.784 2.06 2.06 0 0 0-1.106-.294q-.63 0-1.12.294a2 2 0 0 0-.77.784q-.28.504-.28 1.148 0 .659.28 1.176.28.504.77.798t1.12.294m7.61 1.218a3.4 3.4 0 0 1-1.764-.462 3.46 3.46 0 0 1-1.246-1.246 3.5 3.5 0 0 1-.462-1.778q0-.966.462-1.736a3.46 3.46 0 0 1 1.246-1.246 3.4 3.4 0 0 1 1.764-.462q.966 0 1.75.462.798.448 1.26 1.232t.462 1.75q0 .98-.462 1.778a3.43 3.43 0 0 1-1.26 1.246 3.4 3.4 0 0 1-1.75.462m0-1.218q.63 0 1.12-.294t.77-.798q.28-.518.28-1.176 0-.644-.294-1.148a2 2 0 0 0-.77-.784 2.06 2.06 0 0 0-1.106-.294q-.63 0-1.12.294a2 2 0 0 0-.77.784q-.28.504-.28 1.148 0 .659.28 1.176.28.504.77.798t1.12.294M67.562 620v-6.65h1.26V620zm4.494 0v-4.018q0-.742-.462-1.162-.449-.434-1.134-.434a1.7 1.7 0 0 0-.826.196 1.6 1.6 0 0 0-.588.546q-.225.35-.224.84l-.518-.252q0-.756.322-1.316.336-.56.91-.868a2.6 2.6 0 0 1 1.288-.322q.699 0 1.26.308.573.308.896.868.336.56.336 1.33V620zm4.494 0v-4.018q0-.742-.462-1.162-.448-.434-1.12-.434-.462 0-.84.196a1.6 1.6 0 0 0-.588.546q-.225.35-.224.84l-.714-.252q.042-.77.406-1.316.378-.56.966-.868a2.63 2.63 0 0 1 1.288-.322q.728 0 1.302.308t.91.868q.35.56.35 1.344V620zm-32.116 90 3.976-9.716h.952L53.324 710h-1.428l-3.262-8.218h.49L45.834 710zm1.89-2.198v-1.148h5.11v1.148zM59.056 710v-3.878q0-.756-.476-1.246t-1.232-.49q-.504 0-.896.224a1.63 1.63 0 0 0-.616.616q-.224.392-.224.896l-.518-.294q0-.756.336-1.344t.938-.924q.602-.35 1.358-.35t1.33.378q.588.378.924.994.336.602.336 1.288V710zm-4.704 0v-6.65h1.26V710zm10.108 2.926q-1.022 0-1.82-.378a3.2 3.2 0 0 1-1.26-1.064l.812-.826q.406.518.966.784.56.28 1.33.28 1.022 0 1.61-.546.602-.532.602-1.442v-1.652l.224-1.498-.224-1.484v-1.75h1.26v6.384q0 .952-.448 1.666-.435.714-1.232 1.12-.785.406-1.82.406m0-3.038a3.14 3.14 0 0 1-1.638-.434 3.16 3.16 0 0 1-1.134-1.19 3.54 3.54 0 0 1-.42-1.722q0-.952.42-1.694.42-.756 1.134-1.19a3.06 3.06 0 0 1 1.638-.448q.784 0 1.386.308t.952.868q.364.546.392 1.288v1.764a2.6 2.6 0 0 1-.406 1.288q-.35.546-.952.854a3 3 0 0 1-1.372.308m.252-1.19q.615 0 1.078-.266.476-.266.728-.742.252-.49.252-1.134t-.266-1.12a1.8 1.8 0 0 0-.714-.756q-.462-.28-1.092-.28t-1.106.28q-.476.266-.756.756a2.2 2.2 0 0 0-.266 1.106q0 .63.266 1.12.28.49.756.77.49.266 1.12.266M69.489 710v-9.996h1.26V710zm5.864.14q-.994 0-1.792-.448a3.43 3.43 0 0 1-1.26-1.246q-.462-.784-.462-1.778 0-.98.448-1.764a3.4 3.4 0 0 1 1.232-1.232 3.4 3.4 0 0 1 1.75-.462q.924 0 1.624.42.714.42 1.106 1.162.406.742.406 1.68 0 .14-.014.308-.015.154-.056.364H72.72v-1.05h4.942l-.462.406q0-.672-.238-1.134a1.7 1.7 0 0 0-.672-.728q-.435-.266-1.05-.266-.644 0-1.134.28a1.9 1.9 0 0 0-.756.784q-.266.504-.266 1.19 0 .7.28 1.232.28.518.798.812.518.28 1.19.28.56 0 1.022-.196.476-.197.812-.588l.812.826q-.476.56-1.176.854a3.7 3.7 0 0 1-1.47.294"/><rect width="326" height="44" x="32" y="720" fill="#fff" rx="8"/><path fill="#424242" d="M58.31 748v-11.136h2.511V748zm-3.537-9.104v-2.192h9.584v2.192zm12.648 9.28q-1.2 0-2.177-.528a4.1 4.1 0 0 1-1.52-1.472 3.95 3.95 0 0 1-.56-2.08q0-1.152.56-2.064a4 4 0 0 1 1.52-1.44q.96-.544 2.177-.544 1.215 0 2.175.528t1.52 1.456q.56.912.56 2.064t-.56 2.08a4.1 4.1 0 0 1-1.52 1.472q-.96.528-2.175.528m0-2.224q.526 0 .927-.224.4-.24.609-.656.224-.432.224-.976t-.224-.944a1.57 1.57 0 0 0-.624-.64q-.385-.24-.912-.24-.513 0-.913.24a1.57 1.57 0 0 0-.623.64q-.225.416-.225.96 0 .528.225.96.224.416.623.656.4.224.913.224m9.954 2.208a3.4 3.4 0 0 1-1.44-.304 2.9 2.9 0 0 1-1.072-.832 2.35 2.35 0 0 1-.48-1.232v-3.28q.065-.688.48-1.248a2.9 2.9 0 0 1 1.072-.88q.657-.32 1.44-.32 1.104 0 1.952.528a3.64 3.64 0 0 1 1.344 1.44q.495.912.496 2.08 0 1.168-.496 2.08a3.64 3.64 0 0 1-1.344 1.44q-.848.528-1.952.528m-.448-2.208a1.69 1.69 0 0 0 1.536-.896q.225-.416.224-.944 0-.545-.224-.96a1.57 1.57 0 0 0-.624-.64 1.66 1.66 0 0 0-.896-.24q-.511 0-.912.24a1.6 1.6 0 0 0-.608.64q-.225.416-.224.96 0 .528.208.944.225.416.624.656.4.24.896.24m-4.032 5.328v-11.056h2.448v2l-.4 1.888.368 1.888v5.28zm34.521-3.28v-11.296h2.512V748zm1.936 0v-2.208h5.584V748zm10.524.176q-1.264 0-2.256-.512a3.95 3.95 0 0 1-1.536-1.456q-.56-.928-.56-2.096t.544-2.08a4 4 0 0 1 1.504-1.456q.944-.528 2.128-.528 1.152 0 2.032.496a3.55 3.55 0 0 1 1.376 1.376q.512.88.512 2.016 0 .208-.032.448a4 4 0 0 1-.08.528l-6.704.016v-1.68l5.664-.016-1.056.704q-.016-.672-.208-1.104a1.38 1.38 0 0 0-.576-.672q-.368-.24-.912-.24-.576 0-1.008.272a1.77 1.77 0 0 0-.656.736q-.224.48-.224 1.168t.24 1.184q.256.48.704.752.464.256 1.088.256.576 0 1.04-.192.464-.208.816-.608l1.344 1.344a3.6 3.6 0 0 1-1.392 1.008 4.7 4.7 0 0 1-1.792.336m5.746-.176v-8.448q0-.944.416-1.696a3.1 3.1 0 0 1 1.2-1.2q.768-.448 1.824-.448.8 0 1.392.272.608.256 1.056.72l-1.536 1.536a1.05 1.05 0 0 0-.368-.24 1 1 0 0 0-.464-.096q-.496 0-.784.288t-.288.784V748zm-1.712-5.696v-2.08h6.4v2.08zm8.339 5.696v-10.992h2.448V748zm-1.76-5.696v-2.08h5.968v2.08zm116.816 1.04v-1.856h2.384q.751 0 1.152-.384.416-.384.416-1.04 0-.607-.4-1.008-.4-.4-1.152-.4h-2.4v-1.952h2.688q1.12 0 1.968.432a3.2 3.2 0 0 1 1.328 1.168q.48.751.48 1.728 0 .992-.48 1.744-.48.737-1.344 1.152-.864.416-2.032.416zm-1.92 4.656v-11.296h2.512V748zm6.144 0-3.52-4.864 2.304-.624 4.192 5.488zm4.069 0v-7.776h2.448V748zm1.232-8.848q-.576 0-.96-.384a1.37 1.37 0 0 1-.368-.96q0-.576.368-.96.384-.384.96-.384t.944.384.368.96q0 .56-.368.96-.368.384-.944.384m6.236 12.336q-1.28 0-2.256-.448a3.63 3.63 0 0 1-1.52-1.232l1.504-1.504q.417.496.928.752.529.256 1.264.256.912 0 1.424-.448.528-.448.528-1.264v-1.984l.416-1.696-.368-1.696v-2h2.4v7.312q0 1.2-.56 2.08a3.84 3.84 0 0 1-1.536 1.376q-.975.496-2.224.496m-.112-3.728q-1.071 0-1.904-.512a3.66 3.66 0 0 1-1.312-1.392 4 4 0 0 1-.48-1.952q0-1.088.48-1.952a3.55 3.55 0 0 1 1.312-1.376q.833-.512 1.904-.512.8 0 1.424.304.64.288 1.024.832.4.528.448 1.232v2.96a2.3 2.3 0 0 1-.448 1.232 2.64 2.64 0 0 1-1.024.832 3.3 3.3 0 0 1-1.424.304m.464-2.176q.513 0 .88-.224.384-.224.576-.592a1.8 1.8 0 0 0 .208-.864q0-.48-.208-.864a1.44 1.44 0 0 0-.576-.608 1.66 1.66 0 0 0-.88-.224q-.495 0-.88.224a1.54 1.54 0 0 0-.592.608 1.8 1.8 0 0 0-.208.864q0 .448.208.848.209.384.576.608.384.224.896.224M274.25 748v-4.432q0-.608-.384-.976-.368-.384-.944-.384-.4 0-.704.176a1.16 1.16 0 0 0-.48.48 1.4 1.4 0 0 0-.176.704l-.944-.464q0-.912.384-1.6a2.6 2.6 0 0 1 1.072-1.056q.689-.384 1.584-.384.912 0 1.6.384a2.54 2.54 0 0 1 1.056 1.04q.384.656.384 1.536V748zm-5.136 0v-11.616h2.448V748zm10.167 0v-10.992h2.448V748zm-1.76-5.696v-2.08h5.968v2.08zM299.102 748v-1.952h2.656q.735 0 1.152-.432t.416-1.056a1.5 1.5 0 0 0-.192-.768q-.192-.336-.544-.528-.337-.192-.832-.192h-2.656v-1.904h2.448q.624 0 1.008-.304.384-.32.384-.96 0-.624-.384-.928-.384-.32-1.008-.32h-2.448v-1.952h2.928q1.087 0 1.84.4.768.4 1.168 1.072t.4 1.488q0 1.04-.672 1.76t-1.984.992l.064-.848q1.424.272 2.192 1.104.784.832.784 2.048 0 .928-.464 1.68-.448.736-1.312 1.168-.849.432-2.048.432zm-1.92 0v-11.296h2.48V748zm13.77.176q-1.2 0-2.176-.528a4.1 4.1 0 0 1-1.52-1.472 3.94 3.94 0 0 1-.56-2.08q0-1.152.56-2.064a4 4 0 0 1 1.52-1.44q.96-.544 2.176-.544t2.176.528a4 4 0 0 1 1.52 1.456q.56.912.56 2.064t-.56 2.08a4.1 4.1 0 0 1-1.52 1.472q-.96.528-2.176.528m0-2.224q.528 0 .928-.224.4-.24.608-.656.224-.432.224-.976t-.224-.944a1.6 1.6 0 0 0-.624-.64q-.384-.24-.912-.24-.513 0-.912.24a1.56 1.56 0 0 0-.624.64q-.224.416-.224.96 0 .528.224.96.224.416.624.656.399.224.912.224m6.579 2.048v-10.992h2.448V748zm-1.76-5.696v-2.08h10.896v2.08zm6.688 5.696v-10.992h2.448V748zm8.868.176q-1.2 0-2.176-.528a4.1 4.1 0 0 1-1.52-1.472 3.94 3.94 0 0 1-.56-2.08q0-1.152.56-2.064a4 4 0 0 1 1.52-1.44q.96-.544 2.176-.544t2.176.528a4 4 0 0 1 1.52 1.456q.56.912.56 2.064t-.56 2.08a4.1 4.1 0 0 1-1.52 1.472q-.96.528-2.176.528m0-2.224q.528 0 .928-.224.4-.24.608-.656.224-.432.224-.976t-.224-.944a1.6 1.6 0 0 0-.624-.64q-.384-.24-.912-.24-.513 0-.912.24a1.56 1.56 0 0 0-.624.64q-.224.416-.224.96 0 .528.224.96.224.416.624.656.399.224.912.224m5.475 2.048v-7.776h2.448V748zm4.976 0v-4.544q0-.592-.368-.912a1.23 1.23 0 0 0-.88-.336q-.369 0-.656.16a1.16 1.16 0 0 0-.464.416 1.3 1.3 0 0 0-.16.672l-.944-.416q0-.929.4-1.584a2.64 2.64 0 0 1 1.088-1.024 3.24 3.24 0 0 1 1.552-.368q.816 0 1.456.368.656.368 1.04 1.024t.384 1.568V748zm4.976 0v-4.544q0-.592-.368-.912a1.23 1.23 0 0 0-.88-.336q-.368 0-.656.16a1.2 1.2 0 0 0-.465.416 1.3 1.3 0 0 0-.159.672l-1.408-.192q.032-.992.464-1.696.447-.72 1.168-1.104.736-.4 1.648-.4.896 0 1.584.384.703.368 1.104 1.072.416.688.416 1.664V748z"/><rect width="72" height="35" x="159" y="724" fill="#424242" rx="5"/><path fill="#fff" d="M176.229 748v-11.296h2.512V748zm1.92-4.432v-2.16h5.648v2.16zm0-4.704v-2.16h5.904v2.16zm7.293 9.136v-7.776h2.448V748zm2.448-4.272-1.024-.8q.304-1.36 1.024-2.112t2-.752q.56 0 .976.176.432.16.752.512l-1.456 1.84a1.1 1.1 0 0 0-.4-.272 1.5 1.5 0 0 0-.544-.096q-.608 0-.976.384-.352.368-.352 1.12m7.906 4.448q-1.2 0-2.176-.528a4.1 4.1 0 0 1-1.52-1.472 3.94 3.94 0 0 1-.56-2.08q0-1.152.56-2.064a4 4 0 0 1 1.52-1.44q.96-.544 2.176-.544t2.176.528a4 4 0 0 1 1.52 1.456q.56.912.56 2.064t-.56 2.08a4.1 4.1 0 0 1-1.52 1.472q-.96.528-2.176.528m0-2.224q.528 0 .928-.224.4-.24.608-.656.224-.432.224-.976t-.224-.944a1.6 1.6 0 0 0-.624-.64q-.384-.24-.912-.24-.513 0-.912.24a1.56 1.56 0 0 0-.624.64q-.225.416-.224.96 0 .528.224.96.224.416.624.656.399.224.912.224m10.61 2.048v-4.432q0-.608-.384-.976-.368-.384-.944-.384-.4 0-.704.176a1.17 1.17 0 0 0-.48.48 1.4 1.4 0 0 0-.176.704l-.944-.464q0-.912.4-1.6a2.7 2.7 0 0 1 1.104-1.056 3.4 3.4 0 0 1 1.616-.384q.864 0 1.52.416.672.4 1.056 1.072t.384 1.472V748zm-5.136 0v-7.776h2.448V748zm10.167 0v-10.992h2.448V748zm-1.76-5.696v-2.08h5.968v2.08z"/><path fill="#000" d="M35.85 185.14q-1.148 0-1.96-.42a4.4 4.4 0 0 1-1.442-1.218l.896-.896q.462.644 1.064.98.602.322 1.484.322.868 0 1.386-.378.532-.378.532-1.036 0-.546-.252-.882a1.84 1.84 0 0 0-.686-.546 6 6 0 0 0-.924-.392 41 41 0 0 1-1.008-.378 5 5 0 0 1-.924-.504 2.4 2.4 0 0 1-.686-.798q-.252-.49-.252-1.232 0-.826.392-1.4.406-.588 1.092-.896.7-.322 1.568-.322.952 0 1.708.378.756.364 1.232.966l-.896.896a3.1 3.1 0 0 0-.938-.756 2.45 2.45 0 0 0-1.134-.252q-.784 0-1.246.35-.462.336-.462.952 0 .49.252.798.266.294.686.504t.924.392q.518.168 1.022.378t.924.532.672.84q.266.504.266 1.274 0 1.289-.896 2.016-.882.728-2.394.728m9.224-.14v-3.878q0-.756-.476-1.246-.477-.49-1.232-.49-.504 0-.896.224a1.63 1.63 0 0 0-.616.616q-.224.392-.224.896l-.518-.294q0-.756.336-1.344.335-.588.938-.924.602-.35 1.358-.35t1.33.336q.588.336.924.938t.336 1.386V185zm-4.704 0v-9.996h1.26V185zm10.388.14a3.4 3.4 0 0 1-1.765-.462 3.46 3.46 0 0 1-1.245-1.246 3.5 3.5 0 0 1-.462-1.778q0-.966.462-1.736a3.46 3.46 0 0 1 1.245-1.246 3.4 3.4 0 0 1 1.764-.462q.967 0 1.75.462.799.448 1.26 1.232.462.784.462 1.75 0 .98-.462 1.778a3.43 3.43 0 0 1-1.26 1.246 3.4 3.4 0 0 1-1.75.462m0-1.218q.63 0 1.12-.294t.77-.798q.28-.518.28-1.176 0-.644-.294-1.148a2 2 0 0 0-.77-.784 2.06 2.06 0 0 0-1.106-.294q-.63 0-1.12.294a2 2 0 0 0-.77.784q-.28.504-.28 1.148 0 .659.28 1.176.28.504.77.798t1.12.294M57.042 185l-2.632-6.65h1.316l1.904 5.18h-.42l1.89-5.18h.728l1.89 5.18h-.42l1.904-5.18h1.316L61.9 185h-.742l-1.918-5.026h.462L57.77 185zm11.092 0v-9.716h.924l4.116 6.762h-.63l4.116-6.762h.924V185h-1.316v-7.406l.308.084-3.248 5.334h-.924l-3.248-5.334.294-.084V185zm11.214 0v-6.65h1.26V185zm.63-7.98a.78.78 0 0 1-.574-.224.83.83 0 0 1-.224-.588q0-.336.224-.56a.75.75 0 0 1 .574-.238q.35 0 .574.238a.76.76 0 0 1 .224.56.83.83 0 0 1-.224.588.78.78 0 0 1-.574.224m2.167 7.98v-6.65h1.26V185zm1.26-3.794-.476-.21q0-1.274.588-2.03t1.694-.756q.504 0 .91.182.406.168.756.574l-.826.854a1.26 1.26 0 0 0-.462-.322A1.6 1.6 0 0 0 85 179.4q-.7 0-1.148.448t-.448 1.358M87.47 185v-6.65h1.26V185zm1.26-3.794-.476-.21q0-1.274.588-2.03t1.694-.756q.504 0 .91.182.407.168.756.574l-.826.854a1.26 1.26 0 0 0-.462-.322 1.6 1.6 0 0 0-.588-.098q-.7 0-1.148.448t-.448 1.358m6.859 3.934a3.4 3.4 0 0 1-1.764-.462 3.46 3.46 0 0 1-1.246-1.246 3.5 3.5 0 0 1-.462-1.778q0-.966.462-1.736a3.46 3.46 0 0 1 1.246-1.246 3.4 3.4 0 0 1 1.764-.462q.966 0 1.75.462.798.448 1.26 1.232t.462 1.75q0 .98-.462 1.778a3.43 3.43 0 0 1-1.26 1.246 3.4 3.4 0 0 1-1.75.462m0-1.218q.63 0 1.12-.294t.77-.798q.28-.518.28-1.176 0-.644-.294-1.148a2 2 0 0 0-.77-.784 2.06 2.06 0 0 0-1.106-.294q-.63 0-1.12.294a2 2 0 0 0-.77.784q-.28.504-.28 1.148 0 .659.28 1.176.28.504.77.798t1.12.294m4.572 1.078v-6.65h1.26V185zm1.26-3.794-.476-.21q0-1.274.588-2.03t1.694-.756q.504 0 .91.182.405.168.756.574l-.826.854a1.26 1.26 0 0 0-.462-.322 1.6 1.6 0 0 0-.588-.098q-.7 0-1.148.448t-.448 1.358m7.101 3.794v-9.716h1.316V185zm3.065 0v-6.65h1.26V185zm4.494 0v-4.018q0-.742-.462-1.162-.447-.434-1.134-.434-.462 0-.826.196a1.6 1.6 0 0 0-.588.546 1.53 1.53 0 0 0-.224.84l-.518-.252q0-.756.322-1.316a2.33 2.33 0 0 1 .91-.868 2.6 2.6 0 0 1 1.288-.322q.7 0 1.26.308.575.308.896.868.336.56.336 1.33V185zm4.494 0v-4.018q0-.742-.462-1.162-.448-.434-1.12-.434-.462 0-.84.196a1.6 1.6 0 0 0-.588.546 1.53 1.53 0 0 0-.224.84l-.714-.252q.043-.77.406-1.316.378-.56.966-.868a2.64 2.64 0 0 1 1.288-.322q.729 0 1.302.308t.91.868q.35.56.35 1.344V185zm5.497.14a3.13 3.13 0 0 1-1.652-.448 3.35 3.35 0 0 1-1.176-1.246 3.7 3.7 0 0 1-.42-1.764q0-.98.42-1.764a3.4 3.4 0 0 1 1.162-1.246 3.1 3.1 0 0 1 1.666-.462q.756 0 1.344.322.602.308.966.868.363.546.406 1.274v2.002a2.6 2.6 0 0 1-.406 1.274 2.5 2.5 0 0 1-.952.882q-.588.308-1.358.308m.21-1.19q.937 0 1.512-.63.573-.644.574-1.638 0-.686-.266-1.19a1.84 1.84 0 0 0-.728-.798 2.06 2.06 0 0 0-1.106-.294q-.63 0-1.12.294-.477.294-.756.812a2.44 2.44 0 0 0-.266 1.162q0 .672.266 1.19a2.1 2.1 0 0 0 .77.798q.49.294 1.12.294m2.002 1.05v-1.792l.238-1.624-.238-1.61v-1.624h1.274V185zm5.546 2.926q-1.022 0-1.82-.378a3.2 3.2 0 0 1-1.26-1.064l.812-.826q.406.518.966.784.56.28 1.33.28 1.022 0 1.61-.546.602-.532.602-1.442v-1.652l.224-1.498-.224-1.484v-1.75h1.26v6.384q0 .952-.448 1.666a3 3 0 0 1-1.232 1.12q-.783.406-1.82.406m0-3.038a3.14 3.14 0 0 1-1.638-.434 3.16 3.16 0 0 1-1.134-1.19 3.54 3.54 0 0 1-.42-1.722q0-.952.42-1.694.42-.756 1.134-1.19a3.06 3.06 0 0 1 1.638-.448q.785 0 1.386.308.603.308.952.868.365.546.392 1.288v1.764a2.6 2.6 0 0 1-.406 1.288q-.35.546-.952.854a3 3 0 0 1-1.372.308m.252-1.19q.616 0 1.078-.266.476-.266.728-.742.252-.49.252-1.134t-.266-1.12a1.8 1.8 0 0 0-.714-.756q-.462-.28-1.092-.28t-1.106.28a1.96 1.96 0 0 0-.756.756 2.23 2.23 0 0 0-.266 1.106q0 .63.266 1.12.28.49.756.77.49.266 1.12.266m7.858 1.442q-.994 0-1.792-.448a3.43 3.43 0 0 1-1.26-1.246q-.462-.784-.462-1.778 0-.98.448-1.764a3.4 3.4 0 0 1 1.232-1.232 3.4 3.4 0 0 1 1.75-.462q.924 0 1.624.42.714.42 1.106 1.162.406.743.406 1.68 0 .14-.014.308-.014.154-.056.364h-5.614v-1.05h4.942l-.462.406q0-.672-.238-1.134a1.7 1.7 0 0 0-.672-.728q-.435-.266-1.05-.266-.645 0-1.134.28a1.9 1.9 0 0 0-.756.784q-.266.504-.266 1.19 0 .7.28 1.232.279.518.798.812.518.28 1.19.28.56 0 1.022-.196.476-.197.812-.588l.812.826q-.477.56-1.176.854a3.7 3.7 0 0 1-1.47.294"/><path fill="#424242" fill-rule="evenodd" d="M175.26 170.06c1.126-.065 2.251-.06 3.377-.06h5.705c1.148 0 2.272-.005 3.398.06 1.023.058 2.019.182 3.011.46a9.858 9.858 0 0 1 5.23 15.488 9.9 9.9 0 0 1-5.23 3.531c-.992.278-1.988.402-3.011.46-1.126.065-2.25.059-3.376.059l-5.707.001c-1.146-.001-2.271.005-3.397-.06-1.022-.058-2.018-.182-3.01-.46a9.88 9.88 0 0 1-5.23-3.531 9.86 9.86 0 0 1 0-11.957 9.87 9.87 0 0 1 5.23-3.531c.992-.278 1.988-.402 3.01-.46" clip-rule="evenodd"/><g filter="url(#d)"><path fill="#fff" fill-rule="evenodd" d="M187.97 188.765a8.735 8.735 0 1 0-.001-17.471 8.735 8.735 0 0 0 .001 17.471" clip-rule="evenodd"/></g><path stroke="#000" d="M337.667 17.833h16.666c1.197 0 2.167.97 2.167 2.167v6c0 1.197-.97 2.166-2.167 2.166h-16.666A2.166 2.166 0 0 1 335.5 26v-6c0-1.196.97-2.167 2.167-2.167Z" opacity=".35"/><path fill="#000" d="M358 21v4a2.17 2.17 0 0 0 0-4" opacity=".4"/><path fill="#000" d="M337 20.433a1.1 1.1 0 0 1 1.1-1.1h15.8a1.1 1.1 0 0 1 1.1 1.1v5.134a1.1 1.1 0 0 1-1.1 1.1h-15.8a1.1 1.1 0 0 1-1.1-1.1z"/><path fill="#000" fill-rule="evenodd" d="M322.33 19.608a8.64 8.64 0 0 1 5.953 2.378.31.31 0 0 0 .433-.003l1.156-1.167a.32.32 0 0 0-.002-.456 10.897 10.897 0 0 0-15.08 0 .32.32 0 0 0-.003.456l1.156 1.167c.119.12.312.121.433.003a8.64 8.64 0 0 1 5.954-2.378m0 3.796c1.217 0 2.391.452 3.294 1.27a.31.31 0 0 0 .433-.006l1.155-1.167a.32.32 0 0 0-.005-.459 7.16 7.16 0 0 0-9.752 0 .32.32 0 0 0-.004.459l1.154 1.167a.31.31 0 0 0 .433.005 4.9 4.9 0 0 1 3.292-1.27m2.313 2.553a.3.3 0 0 1-.094.231l-1.997 2.016a.314.314 0 0 1-.444 0l-1.997-2.016a.31.31 0 0 1 .009-.457 3.42 3.42 0 0 1 4.42 0c.064.058.101.14.103.226m-15.977-8.289h-1a1 1 0 0 0-1 1v8.666a1 1 0 0 0 1 1h1a1 1 0 0 0 1-1v-8.666a1 1 0 0 0-1-1M302.999 20h1a1 1 0 0 1 1 1v6.333a1 1 0 0 1-1 1h-1a1 1 0 0 1-1-1V21a1 1 0 0 1 1-1m-3.666 2.333h-1a1 1 0 0 0-1 1v4a1 1 0 0 0 1 1h1a1 1 0 0 0 1-1v-4a1 1 0 0 0-1-1m-4.667 2h-1a1 1 0 0 0-1 1v2a1 1 0 0 0 1 1h1a1 1 0 0 0 1-1v-2a1 1 0 0 0-1-1" clip-rule="evenodd"/><path fill="#000" d="M40.943 16.942q.783.005 1.523.277.746.265 1.343.873.595.603.948 1.614.351 1.013.351 2.504.005 1.406-.298 2.514-.298 1.103-.858 1.864a3.8 3.8 0 0 1-1.347 1.162q-.789.4-1.774.4-1.033 0-1.833-.406-.793-.405-1.283-1.108a3.5 3.5 0 0 1-.602-1.608h1.944q.15.65.607 1.033.464.378 1.167.378 1.135 0 1.747-.985.612-.986.613-2.738h-.075q-.261.468-.676.81a3.1 3.1 0 0 1-.943.516q-.523.181-1.108.181a3.3 3.3 0 0 1-1.726-.458 3.34 3.34 0 0 1-1.21-1.257q-.441-.799-.447-1.827 0-1.065.49-1.912.495-.852 1.38-1.342.884-.495 2.067-.485m.005 1.598q-.575 0-1.039.282a2 2 0 0 0-.724.756 2.16 2.16 0 0 0-.261 1.06q.005.582.261 1.055.261.475.708.751a1.94 1.94 0 0 0 1.034.277 1.96 1.96 0 0 0 1.454-.623 2.2 2.2 0 0 0 .437-.676q.16-.379.154-.8 0-.559-.266-1.033a2.06 2.06 0 0 0-.72-.762 1.9 1.9 0 0 0-1.038-.287m6.643 8.15q-.485 0-.83-.341a1.12 1.12 0 0 1-.342-.831q-.005-.48.341-.82.347-.341.831-.341.469 0 .815.34a1.12 1.12 0 0 1 .187 1.412q-.16.267-.427.426a1.1 1.1 0 0 1-.575.155m0-5.407q-.485 0-.83-.34a1.12 1.12 0 0 1-.342-.832q-.005-.48.341-.82.347-.346.831-.346.469 0 .815.346.352.34.357.82-.005.32-.17.586-.16.267-.427.426a1.1 1.1 0 0 1-.575.16m2.445 4.693v-1.572l4.628-7.313h1.31v2.237h-.798l-3.116 4.938v.085h6.461v1.625zM55.24 28v-2.504l.021-.703v-7.702h1.864V28zm8.773-10.91V28h-1.976v-8.986h-.064l-2.551 1.63v-1.811l2.711-1.742z"/><defs><clipPath id="a"><path fill="#fff" d="M32 64h24v24H32z"/></clipPath><clipPath id="c"><path fill="#fff" d="M96 60h25.159v32H96z"/></clipPath><pattern id="b" width="1" height="1" patternContentUnits="objectBoundingBox"><use xlink:href="#e" transform="matrix(.00422 0 0 .00366 -.308 -.671)"/></pattern><filter id="d" width="27.824" height="27.823" x="174.058" y="168.059" color-interpolation-filters="sRGB" filterUnits="userSpaceOnUse"><feFlood flood-opacity="0" result="BackgroundImageFix"/><feColorMatrix in="SourceAlpha" result="hardAlpha" values="0 0 0 0 0 0 0 0 0 0 0 0 0 0 0 0 0 0 127 0"/><feOffset dy="1.941"/><feGaussianBlur stdDeviation=".324"/><feColorMatrix values="0 0 0 0 0 0 0 0 0 0 0 0 0 0 0 0 0 0 0.06 0"/><feBlend in2="BackgroundImageFix" result="effect1_dropShadow_79_7788"/><feColorMatrix in="SourceAlpha" result="hardAlpha" values="0 0 0 0 0 0 0 0 0 0 0 0 0 0 0 0 0 0 127 0"/><feOffset dy="1.941"/><feGaussianBlur stdDeviation="2.588"/><feColorMatrix values="0 0 0 0 0 0 0 0 0 0 0 0 0 0 0 0 0 0 0.15 0"/><feBlend in2="effect1_dropShadow_79_7788" result="effect2_dropShadow_79_7788"/><feBlend in="SourceGraphic" in2="effect2_dropShadow_79_7788" result="shape"/></filter><image id="e" width="381" height="720" preserveAspectRatio="none"/></defs></svg>